<svg xmlns="http://www.w3.org/2000/svg" xmlns:xlink="http://www.w3.org/1999/xlink" width="65" height="65" viewBox="0 0 65 65">
  <defs>
    <linearGradient id="linear-gradient" x1="0.5" x2="0.5" y2="1" gradientUnits="objectBoundingBox">
      <stop offset="0" stop-color="#4bb6e8"/>
      <stop offset="1" stop-color="#4d98ff"/>
    </linearGradient>
  </defs>
  <g id="Group_24074" data-name="Group 24074" transform="translate(-663 -68.149)">
    <g id="Group_23822" data-name="Group 23822" transform="translate(634 -544)">
      <rect id="Rectangle_1438" data-name="Rectangle 1438" width="65" height="65" rx="10" transform="translate(29 612.149)" fill="url(#linear-gradient)"/>
    </g>
    <g id="Group_24057" data-name="Group 24057">
      <text id="_5In1" data-name="5In1" transform="translate(683 96.149)" fill="#000" font-size="22" font-family="WorkSans-Bold, Work Sans" font-weight="700"><tspan x="0" y="0">5</tspan><tspan y="0" font-size="10" font-family="Work Sans" font-weight="500">In1</tspan></text>
      <path id="Path_30307" data-name="Path 30307" d="M-22.986-1.521l-.72-.27A1.657,1.657,0,0,1-25.38-.585c-1.233,0-2-.891-2-2.385s.819-2.385,2.034-2.385a1.5,1.5,0,0,1,1.539,1.044l.711-.333A2.274,2.274,0,0,0-25.4-6.03c-1.656,0-2.736,1.179-2.736,3.06S-27.072.09-25.38.09A2.445,2.445,0,0,0-22.986-1.521Zm3.33-4.509c-1.692,0-2.754,1.179-2.754,3.06S-21.348.09-19.656.09-16.9-1.089-16.9-2.97-17.964-6.03-19.656-6.03Zm0,.675c1.233,0,2,.891,2,2.385s-.765,2.385-2,2.385-2-.891-2-2.385S-20.889-5.355-19.656-5.355Zm8.55-.585h-.684v4.194l.036.954h-.009L-12.4-1.98l-2.475-3.96h-.891V0h.684V-4.194l-.036-.954h.009l.63,1.17L-12,0h.891Zm6.1,0h-.774L-7.29-1.827l-.378,1.17-.378-1.179-1.512-4.1h-.774L-8.073,0h.819ZM-3.51-.675v-2H-.828v-.675H-3.51V-5.265H-.063V-5.94H-4.23V0h4.3V-.675ZM4.824,0h.855L4.005-2.547A1.644,1.644,0,0,0,5.319-4.2,1.765,1.765,0,0,0,3.312-5.94H1.062V0h.72V-2.466H3.2ZM1.782-5.265H3.3c.846,0,1.26.351,1.26,1.062S4.149-3.141,3.3-3.141H1.782Zm8.811-.675H5.733v.675H7.8V0h.72V-5.265h2.07Zm1.53,0H11.4V0h.72ZM13.617,0h2.106c1.4,0,2.187-.657,2.187-1.665a1.373,1.373,0,0,0-1.152-1.35v-.009a1.25,1.25,0,0,0,1-1.278c0-1.008-.621-1.638-2.025-1.638H13.617Zm.72-3.33V-5.265h1.4c.846,0,1.26.315,1.26.963s-.414.972-1.26.972Zm0,2.655v-1.98h1.557c.846,0,1.26.36,1.26.99s-.414.99-1.26.99Zm5.427,0V-5.94h-.72V0h4.122V-.675Zm4.932,0v-2h2.682v-.675H24.7V-5.265h3.447V-5.94H23.976V0h4.3V-.675Z" transform="translate(696 118)" fill="#000"/>
    </g>
  </g>
</svg>
