<svg xmlns="http://www.w3.org/2000/svg" width="324.33" height="260.708" viewBox="0 0 324.33 260.708">
  <g id="Group_23975" data-name="Group 23975" transform="translate(-20 -144.716)">
    <g id="Group_23897" data-name="Group 23897">
      <g id="Group_15048" data-name="Group 15048" transform="translate(-70.861 4.049)">
        <rect id="Rectangle_3462" data-name="Rectangle 3462" width="36.529" height="12.176" rx="6.088" transform="matrix(0.695, -0.719, 0.719, 0.695, 93.717, 166.943)" fill="#f9f9f9"/>
        <rect id="Rectangle_3463" data-name="Rectangle 3463" width="71.653" height="12.176" rx="6.088" transform="matrix(0.695, -0.719, 0.719, 0.695, 90.861, 192.209)" fill="#f9f9f9"/>
        <rect id="Rectangle_3464" data-name="Rectangle 3464" width="71.653" height="12.176" rx="6.088" transform="matrix(0.695, -0.719, 0.719, 0.695, 111.701, 196.944)" fill="#f9f9f9"/>
        <rect id="Rectangle_3465" data-name="Rectangle 3465" width="66.659" height="11.328" rx="5.664" transform="matrix(0.695, -0.719, 0.719, 0.695, 122.168, 209.366)" fill="#f9f9f9"/>
        <g id="Ellipse_662" data-name="Ellipse 662" transform="translate(156.371 170.667)" fill="#fff" stroke="#707070" stroke-width="1">
          <circle cx="2.367" cy="2.367" r="2.367" stroke="none"/>
          <circle cx="2.367" cy="2.367" r="1.867" fill="none"/>
        </g>
        <circle id="Ellipse_663" data-name="Ellipse 663" cx="2.252" cy="2.252" r="2.252" transform="translate(107.196 150.595)" fill="#d4efff"/>
        <circle id="Ellipse_664" data-name="Ellipse 664" cx="2.366" cy="2.366" r="2.366" transform="translate(126.168 208.402)" fill="#4bb6e8"/>
        <g id="Ellipse_665" data-name="Ellipse 665" transform="translate(94.748 177.23)" fill="#fff" stroke="#707070" stroke-width="1">
          <circle cx="2.255" cy="2.255" r="2.255" stroke="none"/>
          <circle cx="2.255" cy="2.255" r="1.755" fill="none"/>
        </g>
      </g>
      <g id="Group_15042" data-name="Group 15042" transform="translate(-244.596 -0.704)">
        <g id="Ellipse_668" data-name="Ellipse 668" transform="translate(278.596 159.704)" fill="none" stroke="#000" stroke-width="1">
          <circle cx="24" cy="24" r="24" stroke="none"/>
          <circle cx="24" cy="24" r="23.5" fill="none"/>
        </g>
        <circle id="Ellipse_666" data-name="Ellipse 666" cx="22.5" cy="22.5" r="22.5" transform="translate(277.596 162.704)" fill="#4bb6e8"/>
        <g id="wifi-svgrepo-com" transform="translate(288.895 175.658)">
          <g id="Group_15041" data-name="Group 15041" transform="translate(0 0)">
            <g id="Group_15037" data-name="Group 15037" transform="translate(3.607 5.113)">
              <path id="Path_10506" data-name="Path 10506" d="M88.631,168.8a1.306,1.306,0,0,1-.929-.388,9.108,9.108,0,0,0-12.86,0,1.314,1.314,0,0,1-1.858-1.858,11.732,11.732,0,0,1,16.576,0,1.317,1.317,0,0,1-.929,2.246Z" transform="translate(-72.6 -163.125)" fill="#fff"/>
            </g>
            <g id="Group_15038" data-name="Group 15038" transform="translate(7.165 10.137)">
              <path id="Path_10507" data-name="Path 10507" d="M153.115,268.429a1.306,1.306,0,0,1-.929-.388,4.067,4.067,0,0,0-5.744,0,1.314,1.314,0,0,1-1.858-1.858,6.688,6.688,0,0,1,9.461.005,1.312,1.312,0,0,1-.929,2.241Z" transform="translate(-144.2 -264.225)" fill="#fff"/>
            </g>
            <g id="Group_15039" data-name="Group 15039" transform="translate(10.525 15.076)">
              <circle id="Ellipse_667" data-name="Ellipse 667" cx="1.754" cy="1.754" r="1.754" fill="#fff"/>
            </g>
            <g id="Group_15040" data-name="Group 15040">
              <path id="Path_10508" data-name="Path 10508" d="M23.251,67.4a1.306,1.306,0,0,1-.929-.388,14.215,14.215,0,0,0-20.079,0A1.314,1.314,0,0,1,.384,65.154a16.83,16.83,0,0,1,23.8,0,1.317,1.317,0,0,1,0,1.858A1.334,1.334,0,0,1,23.251,67.4Z" transform="translate(0 -60.225)" fill="#fff"/>
            </g>
          </g>
        </g>
      </g>
    </g>
    <path id="Path_34787" data-name="Path 34787" d="M9.276-7.92H7.4L5.82-3.336,5.256-1.452H5.232L4.68-3.336,3.084-7.92H1.176V0H2.364V-4.584l-.1-2.184H2.28L4.692,0H5.76L8.172-6.768h.012L8.1-4.584V0H9.276Zm7.3,7.08c-.324,0-.444-.144-.444-.444V-4c0-1.44-1.032-2.124-2.532-2.124a2.417,2.417,0,0,0-2.52,1.56l1,.528a1.486,1.486,0,0,1,1.548-1.08,1.113,1.113,0,0,1,1.224,1.188v.312l-1.524.276c-1.572.276-2.34.96-2.34,1.884,0,1.044.828,1.572,1.956,1.572a2.355,2.355,0,0,0,2.028-.9,1.076,1.076,0,0,0,1.224.9,1.863,1.863,0,0,0,.744-.144l.084-.864A1.738,1.738,0,0,1,16.572-.84Zm-3.36-.012c-.564,0-.9-.24-.9-.684,0-.48.408-.756,1.224-.912l1.308-.264v.72C14.844-1.272,14.016-.852,13.212-.852ZM22.548,0h1.488L21.6-3.648,23.892-6H22.38L19.512-3.06V-8.7H18.228V0h1.284V-1.584L20.7-2.82Zm7.788-3.18a2.652,2.652,0,0,0-2.784-2.94c-1.872,0-2.928,1.164-2.928,3.12A2.813,2.813,0,0,0,27.636.12a2.59,2.59,0,0,0,2.58-1.392l-1.068-.444A1.438,1.438,0,0,1,27.636-.9,1.658,1.658,0,0,1,25.9-2.52h4.392A4.98,4.98,0,0,0,30.336-3.18ZM27.552-5.1c.9,0,1.464.588,1.584,1.6H25.908A1.581,1.581,0,0,1,27.552-5.1ZM38.016.12c1.656,0,2.616-.756,2.616-1.812,0-1-.612-1.512-2.328-1.824-1.128-.2-1.476-.432-1.476-.864,0-.372.5-.732,1.248-.732a1.544,1.544,0,0,1,1.6,1.02l.912-.672a2.418,2.418,0,0,0-2.52-1.356c-1.608,0-2.52.888-2.52,1.86,0,1.008.624,1.524,2.412,1.86,1.044.2,1.392.42,1.392.792,0,.408-.432.72-1.284.72a1.842,1.842,0,0,1-1.86-1l-.864.744A2.91,2.91,0,0,0,38.016.12ZM46.344-6v3.24a1.617,1.617,0,0,1-1.68,1.824c-.756,0-1.236-.336-1.236-1.452V-6H42.144v3.948A1.965,1.965,0,0,0,44.3.12,2.214,2.214,0,0,0,46.428-.972l.06.972h1.14V-6Zm6.372-.12a1.87,1.87,0,0,0-1.884,1.188L50.712-6H49.62V0H50.9V-3.18a1.605,1.605,0,0,1,1.512-1.8,1.58,1.58,0,0,1,.756.156L53.376-6A1.582,1.582,0,0,0,52.716-6.12ZM59.8-3.18a2.652,2.652,0,0,0-2.784-2.94c-1.872,0-2.928,1.164-2.928,3.12A2.813,2.813,0,0,0,57.1.12a2.59,2.59,0,0,0,2.58-1.392l-1.068-.444A1.438,1.438,0,0,1,57.1-.9a1.658,1.658,0,0,1-1.74-1.62h4.392A4.98,4.98,0,0,0,59.8-3.18ZM57.012-5.1c.9,0,1.464.588,1.584,1.6H55.368A1.581,1.581,0,0,1,57.012-5.1ZM70.452-6H69.12L67.872-2.34,67.464-1.1l-.348-1.128L65.8-6h-1.44l1.872,4.548L66.852.036l-.264.648c-.264.7-.6.864-1.044.864a1.176,1.176,0,0,1-.984-.432l-.372.984a1.916,1.916,0,0,0,1.416.48c1.08,0,1.692-.48,2.22-1.872Zm3.756-.12A2.806,2.806,0,0,0,71.22-3,2.806,2.806,0,0,0,74.208.12,2.806,2.806,0,0,0,77.2-3,2.806,2.806,0,0,0,74.208-6.12Zm0,1.008c1.08,0,1.7.756,1.7,2.112s-.624,2.112-1.7,2.112S72.516-1.644,72.516-3,73.128-5.112,74.208-5.112ZM82.992-6v3.24a1.617,1.617,0,0,1-1.68,1.824c-.756,0-1.236-.336-1.236-1.452V-6H78.792v3.948A1.965,1.965,0,0,0,80.952.12,2.214,2.214,0,0,0,83.076-.972l.06.972h1.14V-6ZM95.352-.84c-.324,0-.444-.144-.444-.444V-4c0-1.44-1.032-2.124-2.532-2.124a2.417,2.417,0,0,0-2.52,1.56l1,.528A1.486,1.486,0,0,1,92.4-5.112a1.113,1.113,0,0,1,1.224,1.188v.312L92.1-3.336c-1.572.276-2.34.96-2.34,1.884,0,1.044.828,1.572,1.956,1.572a2.355,2.355,0,0,0,2.028-.9,1.076,1.076,0,0,0,1.224.9,1.863,1.863,0,0,0,.744-.144L95.8-.888A1.738,1.738,0,0,1,95.352-.84Zm-3.36-.012c-.564,0-.9-.24-.9-.684,0-.48.408-.756,1.224-.912l1.308-.264v.72C93.624-1.272,92.8-.852,91.992-.852ZM100.1-6.12A1.87,1.87,0,0,0,98.22-4.932L98.1-6H97.008V0h1.284V-3.18A1.605,1.605,0,0,1,99.8-4.98a1.58,1.58,0,0,1,.756.156l.2-1.176A1.582,1.582,0,0,0,100.1-6.12Zm7.08,2.94A2.652,2.652,0,0,0,104.4-6.12c-1.872,0-2.928,1.164-2.928,3.12A2.813,2.813,0,0,0,104.484.12a2.59,2.59,0,0,0,2.58-1.392L106-1.716a1.438,1.438,0,0,1-1.512.816,1.658,1.658,0,0,1-1.74-1.62h4.392A4.981,4.981,0,0,0,107.184-3.18ZM104.4-5.1c.9,0,1.464.588,1.584,1.6h-3.228A1.581,1.581,0,0,1,104.4-5.1Zm10.932-1.02A2.806,2.806,0,0,0,112.344-3,2.813,2.813,0,0,0,115.356.12a2.524,2.524,0,0,0,2.628-1.788l-1.176-.4A1.364,1.364,0,0,1,115.332-.9c-1.056,0-1.692-.732-1.692-2.088s.624-2.112,1.692-2.112a1.359,1.359,0,0,1,1.4,1.14l1.2-.48A2.517,2.517,0,0,0,115.332-6.12Zm6.792,0A2.806,2.806,0,0,0,119.136-3,2.806,2.806,0,0,0,122.124.12,2.806,2.806,0,0,0,125.112-3,2.806,2.806,0,0,0,122.124-6.12Zm0,1.008c1.08,0,1.7.756,1.7,2.112s-.624,2.112-1.7,2.112S120.432-1.644,120.432-3,121.044-5.112,122.124-5.112Zm7.86-1.008a2.136,2.136,0,0,0-2.028,1.128L127.9-6h-1.14V0h1.284V-3.18c0-1.38.84-1.884,1.632-1.884.732,0,1.284.4,1.284,1.584V0h1.284V-3.888A2.078,2.078,0,0,0,129.984-6.12Zm7.428,0a2.136,2.136,0,0,0-2.028,1.128L135.324-6h-1.14V0h1.284V-3.18c0-1.38.84-1.884,1.632-1.884.732,0,1.284.4,1.284,1.584V0h1.284V-3.888A2.078,2.078,0,0,0,137.412-6.12Zm9.564,2.94a2.652,2.652,0,0,0-2.784-2.94c-1.872,0-2.928,1.164-2.928,3.12A2.813,2.813,0,0,0,144.276.12a2.59,2.59,0,0,0,2.58-1.392l-1.068-.444a1.438,1.438,0,0,1-1.512.816,1.658,1.658,0,0,1-1.74-1.62h4.392A4.979,4.979,0,0,0,146.976-3.18ZM144.192-5.1c.9,0,1.464.588,1.584,1.6h-3.228A1.581,1.581,0,0,1,144.192-5.1Zm7.032-1.02A2.806,2.806,0,0,0,148.236-3,2.813,2.813,0,0,0,151.248.12a2.524,2.524,0,0,0,2.628-1.788l-1.176-.4A1.364,1.364,0,0,1,151.224-.9c-1.056,0-1.692-.732-1.692-2.088s.624-2.112,1.692-2.112a1.359,1.359,0,0,1,1.4,1.14l1.2-.48A2.517,2.517,0,0,0,151.224-6.12Zm7.74,4.788a1.369,1.369,0,0,1-.972.384.778.778,0,0,1-.876-.852V-4.992h2.1V-6h-2.1V-7.764l-1.284.36V-6h-1.14v1.008h1.14v3.408a1.607,1.607,0,0,0,1.836,1.7,2.47,2.47,0,0,0,1.6-.516Zm6.864-1.848a2.652,2.652,0,0,0-2.784-2.94c-1.872,0-2.928,1.164-2.928,3.12A2.813,2.813,0,0,0,163.128.12a2.59,2.59,0,0,0,2.58-1.392l-1.068-.444a1.438,1.438,0,0,1-1.512.816,1.658,1.658,0,0,1-1.74-1.62h4.392A4.979,4.979,0,0,0,165.828-3.18ZM163.044-5.1c.9,0,1.464.588,1.584,1.6H161.4A1.581,1.581,0,0,1,163.044-5.1Zm8.664-3.6v3.672a2.121,2.121,0,0,0-1.932-1.092c-1.632,0-2.664,1.164-2.664,3.132S168.132.12,169.764.12a2.191,2.191,0,0,0,2.028-1.2L171.864,0h1.128V-8.7ZM170.052-.912c-1.032,0-1.656-.78-1.656-2.088s.624-2.076,1.656-2.076c1.008,0,1.656.756,1.656,2v.144C171.708-1.668,171.06-.912,170.052-.912ZM4.584,14.668a1.369,1.369,0,0,1-.972.384.778.778,0,0,1-.876-.852V11.008h2.1V10h-2.1V8.236L1.452,8.6V10H.312v1.008h1.14v3.408a1.607,1.607,0,0,0,1.836,1.7,2.47,2.47,0,0,0,1.6-.516ZM9.36,9.88a2.066,2.066,0,0,0-1.944,1.08V7.3H6.132V16H7.416V12.832c0-1.38.84-1.9,1.632-1.9.732,0,1.284.4,1.284,1.584V16h1.284V12.112A2.078,2.078,0,0,0,9.36,9.88Zm7.3,0a1.87,1.87,0,0,0-1.884,1.188L14.652,10H13.56v6h1.284V12.82a1.605,1.605,0,0,1,1.512-1.8,1.58,1.58,0,0,1,.756.156l.2-1.176A1.582,1.582,0,0,0,16.656,9.88Zm4.356,0A2.806,2.806,0,0,0,18.024,13a2.806,2.806,0,0,0,2.988,3.12A2.806,2.806,0,0,0,24,13,2.806,2.806,0,0,0,21.012,9.88Zm0,1.008c1.08,0,1.7.756,1.7,2.112s-.624,2.112-1.7,2.112S19.32,14.356,19.32,13,19.932,10.888,21.012,10.888ZM29.8,10v3.24a1.617,1.617,0,0,1-1.68,1.824c-.756,0-1.236-.336-1.236-1.452V10H25.6v3.948a1.965,1.965,0,0,0,2.16,2.172,2.214,2.214,0,0,0,2.124-1.092l.06.972h1.14V10Zm6.768,5.064h-2c-.456,0-.744-.2-.744-.576a.628.628,0,0,1,.576-.66,4.222,4.222,0,0,0,1,.108c1.572,0,2.6-.8,2.6-2.028a1.827,1.827,0,0,0-.828-1.56c.18-.408.636-.636,1.416-.612l-.216-1A1.619,1.619,0,0,0,36.6,10.072a3.721,3.721,0,0,0-1.212-.192c-1.56,0-2.6.8-2.6,2.028a1.813,1.813,0,0,0,.924,1.644,1.22,1.22,0,0,0-.936,1.2,1.268,1.268,0,0,0,.84,1.14,1.234,1.234,0,0,0-1.068,1.152c0,.888.876,1.536,2.856,1.536,1.74,0,3.084-.732,3.084-1.98C38.484,15.64,37.776,15.064,36.564,15.064ZM35.388,10.78A1.143,1.143,0,1,1,34.1,11.908,1.173,1.173,0,0,1,35.388,10.78Zm.132,6.84c-1.272,0-1.884-.324-1.884-.852,0-.4.348-.636,1.08-.636h1.62c.792,0,1.044.228,1.044.612C37.38,17.212,36.744,17.62,35.52,17.62Zm7.428-7.74A2.066,2.066,0,0,0,41,10.96V7.3H39.72V16H41V12.832c0-1.38.84-1.9,1.632-1.9.732,0,1.284.4,1.284,1.584V16H45.2V12.112A2.078,2.078,0,0,0,42.948,9.88ZM53.22,16.12c1.656,0,2.616-.756,2.616-1.812,0-1-.612-1.512-2.328-1.824-1.128-.2-1.476-.432-1.476-.864,0-.372.5-.732,1.248-.732a1.544,1.544,0,0,1,1.6,1.02l.912-.672a2.418,2.418,0,0,0-2.52-1.356c-1.608,0-2.52.888-2.52,1.86,0,1.008.624,1.524,2.412,1.86,1.044.2,1.392.42,1.392.792,0,.408-.432.72-1.284.72a1.842,1.842,0,0,1-1.86-1l-.864.744A2.91,2.91,0,0,0,53.22,16.12Zm7.764-1.452a1.369,1.369,0,0,1-.972.384.778.778,0,0,1-.876-.852V11.008h2.1V10h-2.1V8.236l-1.284.36V10h-1.14v1.008h1.14v3.408a1.607,1.607,0,0,0,1.836,1.7,2.47,2.47,0,0,0,1.6-.516Zm6.72.492c-.324,0-.444-.144-.444-.444V12c0-1.44-1.032-2.124-2.532-2.124a2.417,2.417,0,0,0-2.52,1.56l1,.528a1.486,1.486,0,0,1,1.548-1.08,1.113,1.113,0,0,1,1.224,1.188v.312l-1.524.276c-1.572.276-2.34.96-2.34,1.884,0,1.044.828,1.572,1.956,1.572a2.355,2.355,0,0,0,2.028-.9,1.076,1.076,0,0,0,1.224.9,1.863,1.863,0,0,0,.744-.144l.084-.864A1.738,1.738,0,0,1,67.7,15.16Zm-3.36-.012c-.564,0-.9-.24-.9-.684,0-.48.408-.756,1.224-.912l1.308-.264v.72C65.976,14.728,65.148,15.148,64.344,15.148ZM72.576,9.88a2.121,2.121,0,0,0-1.932,1.092V7.3H69.36V16h1.128l.06-1.1a2.175,2.175,0,0,0,2.04,1.224c1.632,0,2.652-1.152,2.652-3.108S74.208,9.88,72.576,9.88ZM72.3,15.088c-1.008,0-1.656-.756-1.656-2.016v-.144c0-1.248.648-2,1.656-2,1.032,0,1.656.768,1.656,2.076S73.332,15.088,72.3,15.088ZM78.156,7.3H76.872v7.128c0,1.164.492,1.692,1.56,1.692a2.381,2.381,0,0,0,1-.2l.144-1.032a1.9,1.9,0,0,1-.792.156c-.48,0-.624-.2-.624-.792Zm7.86,5.52a2.652,2.652,0,0,0-2.784-2.94C81.36,9.88,80.3,11.044,80.3,13a2.813,2.813,0,0,0,3.012,3.12,2.59,2.59,0,0,0,2.58-1.392l-1.068-.444a1.438,1.438,0,0,1-1.512.816,1.658,1.658,0,0,1-1.74-1.62h4.392A4.981,4.981,0,0,0,86.016,12.82ZM83.232,10.9c.9,0,1.464.588,1.584,1.6H81.588A1.581,1.581,0,0,1,83.232,10.9Zm12.468.348.4-1.824h.012l.4,1.824L97.764,16h1.512l2.316-7.92h-1.32l-1.74,6.912L96.78,8.08H95.46l-1.74,6.9-1.728-6.9H90.6L92.928,16h1.524Zm7.872-2.256a.753.753,0,0,0,.852-.8.745.745,0,0,0-.852-.792.754.754,0,0,0-.864.792A.762.762,0,0,0,103.572,8.992ZM104.208,10h-1.284v6h1.284Zm7.908-.816V8.08h-5.724V16h1.284V12.592h3.48V11.476h-3.48V9.184Zm2.076-.192a.753.753,0,0,0,.852-.8.745.745,0,0,0-.852-.792.754.754,0,0,0-.864.792A.762.762,0,0,0,114.192,8.992ZM114.828,10h-1.284v6h1.284Zm8.544-.12A2.806,2.806,0,0,0,120.384,13a2.991,2.991,0,1,0,5.976,0A2.806,2.806,0,0,0,123.372,9.88Zm0,1.008c1.08,0,1.7.756,1.7,2.112s-.624,2.112-1.7,2.112S121.68,14.356,121.68,13,122.292,10.888,123.372,10.888ZM131.1,9.88a1.87,1.87,0,0,0-1.884,1.188L129.1,10H128v6h1.284V12.82a1.605,1.605,0,0,1,1.512-1.8,1.58,1.58,0,0,1,.756.156l.2-1.176A1.582,1.582,0,0,0,131.1,9.88Zm6.984-1.8H136.8V16h1.284Zm5.352,1.8a2.136,2.136,0,0,0-2.028,1.128L141.348,10h-1.14v6h1.284V12.82c0-1.38.84-1.884,1.632-1.884.732,0,1.284.4,1.284,1.584V16h1.284V12.112A2.078,2.078,0,0,0,143.436,9.88Zm7.716,4.788a1.369,1.369,0,0,1-.972.384.778.778,0,0,1-.876-.852V11.008h2.1V10h-2.1V8.236l-1.284.36V10h-1.14v1.008h1.14v3.408a1.607,1.607,0,0,0,1.836,1.7,2.47,2.47,0,0,0,1.6-.516Zm6.864-1.848a2.652,2.652,0,0,0-2.784-2.94c-1.872,0-2.928,1.164-2.928,3.12a2.813,2.813,0,0,0,3.012,3.12,2.59,2.59,0,0,0,2.58-1.392l-1.068-.444a1.438,1.438,0,0,1-1.512.816,1.658,1.658,0,0,1-1.74-1.62h4.392A4.979,4.979,0,0,0,158.016,12.82Zm-2.784-1.92c.9,0,1.464.588,1.584,1.6h-3.228A1.581,1.581,0,0,1,155.232,10.9Zm7.488-1.02a1.87,1.87,0,0,0-1.884,1.188L160.716,10h-1.092v6h1.284V12.82a1.606,1.606,0,0,1,1.512-1.8,1.58,1.58,0,0,1,.756.156l.2-1.176A1.582,1.582,0,0,0,162.72,9.88Zm5.1,0a2.136,2.136,0,0,0-2.028,1.128L165.732,10h-1.14v6h1.284V12.82c0-1.38.84-1.884,1.632-1.884.732,0,1.284.4,1.284,1.584V16h1.284V12.112A2.078,2.078,0,0,0,167.82,9.88Zm9.564,2.94A2.652,2.652,0,0,0,174.6,9.88c-1.872,0-2.928,1.164-2.928,3.12a2.813,2.813,0,0,0,3.012,3.12,2.59,2.59,0,0,0,2.58-1.392l-1.068-.444a1.438,1.438,0,0,1-1.512.816,1.658,1.658,0,0,1-1.74-1.62h4.392A4.979,4.979,0,0,0,177.384,12.82ZM174.6,10.9c.9,0,1.464.588,1.584,1.6h-3.228A1.581,1.581,0,0,1,174.6,10.9Zm7.836,3.768a1.369,1.369,0,0,1-.972.384.778.778,0,0,1-.876-.852V11.008h2.1V10h-2.1V8.236L179.3,8.6V10h-1.14v1.008h1.14v3.408a1.607,1.607,0,0,0,1.836,1.7,2.47,2.47,0,0,0,1.6-.516Z" transform="translate(141 176)" fill="#525968"/>
    <path id="Path_34785" data-name="Path 34785" d="M9.276-7.92H7.4L5.82-3.336,5.256-1.452H5.232L4.68-3.336,3.084-7.92H1.176V0H2.364V-4.584l-.1-2.184H2.28L4.692,0H5.76L8.172-6.768h.012L8.1-4.584V0H9.276Zm7.3,7.08c-.324,0-.444-.144-.444-.444V-4c0-1.44-1.032-2.124-2.532-2.124a2.417,2.417,0,0,0-2.52,1.56l1,.528a1.486,1.486,0,0,1,1.548-1.08,1.113,1.113,0,0,1,1.224,1.188v.312l-1.524.276c-1.572.276-2.34.96-2.34,1.884,0,1.044.828,1.572,1.956,1.572a2.355,2.355,0,0,0,2.028-.9,1.076,1.076,0,0,0,1.224.9,1.863,1.863,0,0,0,.744-.144l.084-.864A1.738,1.738,0,0,1,16.572-.84Zm-3.36-.012c-.564,0-.9-.24-.9-.684,0-.48.408-.756,1.224-.912l1.308-.264v.72C14.844-1.272,14.016-.852,13.212-.852Zm5.664-6.156a.753.753,0,0,0,.852-.8.745.745,0,0,0-.852-.792.754.754,0,0,0-.864.792A.762.762,0,0,0,18.876-7.008ZM19.512-6H18.228V0h1.284Zm5.232-.12a2.136,2.136,0,0,0-2.028,1.128L22.656-6h-1.14V0H22.8V-3.18c0-1.38.84-1.884,1.632-1.884.732,0,1.284.4,1.284,1.584V0H27V-3.888A2.078,2.078,0,0,0,24.744-6.12ZM32.46-1.332a1.369,1.369,0,0,1-.972.384.778.778,0,0,1-.876-.852V-4.992h2.1V-6h-2.1V-7.764l-1.284.36V-6h-1.14v1.008h1.14v3.408A1.607,1.607,0,0,0,31.164.12,2.47,2.47,0,0,0,32.76-.4Zm6.72.492c-.324,0-.444-.144-.444-.444V-4c0-1.44-1.032-2.124-2.532-2.124a2.417,2.417,0,0,0-2.52,1.56l1,.528a1.486,1.486,0,0,1,1.548-1.08,1.113,1.113,0,0,1,1.224,1.188v.312l-1.524.276c-1.572.276-2.34.96-2.34,1.884,0,1.044.828,1.572,1.956,1.572a2.355,2.355,0,0,0,2.028-.9A1.076,1.076,0,0,0,38.8.12a1.863,1.863,0,0,0,.744-.144l.084-.864A1.738,1.738,0,0,1,39.18-.84ZM35.82-.852c-.564,0-.9-.24-.9-.684,0-.48.408-.756,1.224-.912l1.308-.264v.72C37.452-1.272,36.624-.852,35.82-.852Zm5.664-6.156a.753.753,0,0,0,.852-.8.745.745,0,0,0-.852-.792.754.754,0,0,0-.864.792A.762.762,0,0,0,41.484-7.008ZM42.12-6H40.836V0H42.12Zm5.232-.12a2.136,2.136,0,0,0-2.028,1.128L45.264-6h-1.14V0h1.284V-3.18c0-1.38.84-1.884,1.632-1.884.732,0,1.284.4,1.284,1.584V0h1.284V-3.888A2.078,2.078,0,0,0,47.352-6.12ZM60.636-.84c-.324,0-.444-.144-.444-.444V-4c0-1.44-1.032-2.124-2.532-2.124a2.417,2.417,0,0,0-2.52,1.56l1,.528a1.486,1.486,0,0,1,1.548-1.08,1.113,1.113,0,0,1,1.224,1.188v.312l-1.524.276c-1.572.276-2.34.96-2.34,1.884C55.044-.408,55.872.12,57,.12a2.355,2.355,0,0,0,2.028-.9,1.076,1.076,0,0,0,1.224.9A1.863,1.863,0,0,0,61-.024l.084-.864A1.738,1.738,0,0,1,60.636-.84Zm-3.36-.012c-.564,0-.9-.24-.9-.684,0-.48.408-.756,1.224-.912l1.308-.264v.72C58.908-1.272,58.08-.852,57.276-.852ZM70.236-8.7v3.672A2.121,2.121,0,0,0,68.3-6.12c-1.632,0-2.664,1.164-2.664,3.132S66.66.12,68.292.12a2.191,2.191,0,0,0,2.028-1.2L70.392,0H71.52V-8.7ZM68.58-.912c-1.032,0-1.656-.78-1.656-2.088s.624-2.076,1.656-2.076c1.008,0,1.656.756,1.656,2v.144C70.236-1.668,69.588-.912,68.58-.912Zm5.58-6.1a.753.753,0,0,0,.852-.8A.745.745,0,0,0,74.16-8.6a.754.754,0,0,0-.864.792A.762.762,0,0,0,74.16-7.008ZM74.8-6H73.512V0H74.8ZM78.972.12c1.656,0,2.616-.756,2.616-1.812,0-1-.612-1.512-2.328-1.824-1.128-.2-1.476-.432-1.476-.864,0-.372.5-.732,1.248-.732a1.544,1.544,0,0,1,1.6,1.02l.912-.672A2.418,2.418,0,0,0,79.02-6.12c-1.608,0-2.52.888-2.52,1.86,0,1.008.624,1.524,2.412,1.86,1.044.2,1.392.42,1.392.792,0,.408-.432.72-1.284.72a1.842,1.842,0,0,1-1.86-1L76.3-1.14A2.91,2.91,0,0,0,78.972.12Zm7.764-1.452a1.369,1.369,0,0,1-.972.384.778.778,0,0,1-.876-.852V-4.992h2.1V-6h-2.1V-7.764L83.6-7.4V-6h-1.14v1.008H83.6v3.408A1.607,1.607,0,0,0,85.44.12a2.47,2.47,0,0,0,1.6-.516Zm6.72.492c-.324,0-.444-.144-.444-.444V-4c0-1.44-1.032-2.124-2.532-2.124a2.417,2.417,0,0,0-2.52,1.56l1,.528A1.486,1.486,0,0,1,90.5-5.112a1.113,1.113,0,0,1,1.224,1.188v.312L90.2-3.336c-1.572.276-2.34.96-2.34,1.884,0,1.044.828,1.572,1.956,1.572a2.355,2.355,0,0,0,2.028-.9,1.076,1.076,0,0,0,1.224.9,1.863,1.863,0,0,0,.744-.144L93.9-.888A1.738,1.738,0,0,1,93.456-.84ZM90.1-.852c-.564,0-.9-.24-.9-.684,0-.48.408-.756,1.224-.912l1.308-.264v.72C91.728-1.272,90.9-.852,90.1-.852ZM98.34-6.12a2.136,2.136,0,0,0-2.028,1.128L96.252-6h-1.14V0H96.4V-3.18c0-1.38.84-1.884,1.632-1.884.732,0,1.284.4,1.284,1.584V0H100.6V-3.888A2.078,2.078,0,0,0,98.34-6.12Zm6.84,0A2.806,2.806,0,0,0,102.192-3,2.813,2.813,0,0,0,105.2.12a2.524,2.524,0,0,0,2.628-1.788l-1.176-.4A1.364,1.364,0,0,1,105.18-.9c-1.056,0-1.692-.732-1.692-2.088S104.112-5.1,105.18-5.1a1.359,1.359,0,0,1,1.4,1.14l1.2-.48A2.517,2.517,0,0,0,105.18-6.12ZM114.7-3.18a2.652,2.652,0,0,0-2.784-2.94c-1.872,0-2.928,1.164-2.928,3.12A2.813,2.813,0,0,0,112,.12a2.59,2.59,0,0,0,2.58-1.392l-1.068-.444A1.438,1.438,0,0,1,112-.9a1.658,1.658,0,0,1-1.74-1.62h4.392A4.979,4.979,0,0,0,114.7-3.18ZM111.912-5.1c.9,0,1.464.588,1.584,1.6h-3.228A1.581,1.581,0,0,1,111.912-5.1Zm10.932-1.02A2.806,2.806,0,0,0,119.856-3,2.806,2.806,0,0,0,122.844.12,2.806,2.806,0,0,0,125.832-3,2.806,2.806,0,0,0,122.844-6.12Zm0,1.008c1.08,0,1.7.756,1.7,2.112s-.624,2.112-1.7,2.112S121.152-1.644,121.152-3,121.764-5.112,122.844-5.112ZM129.1-6.768c0-.684.384-.972,1.056-.972a1.182,1.182,0,0,1,.684.18l.24-.936a1.923,1.923,0,0,0-1.128-.288,1.839,1.839,0,0,0-2.1,1.92V-6H126.72v1.008h1.128V0h1.284V-4.992h1.908V-6H129.1Zm13.836.648a2.275,2.275,0,0,0-2.076,1.2,2.1,2.1,0,0,0-2.016-1.2A2.162,2.162,0,0,0,136.9-5l-.06-1H135.7V0h1.284V-3.192c0-1.344.84-1.872,1.56-1.872s1.236.4,1.236,1.38V0h1.284V-3.264a1.606,1.606,0,0,1,1.56-1.8c.708,0,1.236.4,1.236,1.38V0h1.284V-3.888A2.082,2.082,0,0,0,142.932-6.12Zm4.8-.888a.753.753,0,0,0,.852-.8.745.745,0,0,0-.852-.792.754.754,0,0,0-.864.792A.762.762,0,0,0,147.732-7.008ZM148.368-6h-1.284V0h1.284Zm5.232-.12a2.136,2.136,0,0,0-2.028,1.128L151.512-6h-1.14V0h1.284V-3.18c0-1.38.84-1.884,1.632-1.884.732,0,1.284.4,1.284,1.584V0h1.284V-3.888A2.078,2.078,0,0,0,153.6-6.12Zm4.848-.888a.753.753,0,0,0,.852-.8.745.745,0,0,0-.852-.792.754.754,0,0,0-.864.792A.762.762,0,0,0,158.448-7.008ZM159.084-6H157.8V0h1.284Zm9.24-.12a2.275,2.275,0,0,0-2.076,1.2,2.1,2.1,0,0,0-2.016-1.2A2.162,2.162,0,0,0,162.288-5l-.06-1h-1.14V0h1.284V-3.192c0-1.344.84-1.872,1.56-1.872s1.236.4,1.236,1.38V0h1.284V-3.264a1.606,1.606,0,0,1,1.56-1.8c.708,0,1.236.4,1.236,1.38V0h1.284V-3.888A2.082,2.082,0,0,0,168.324-6.12Zm8.3.12v3.24a1.617,1.617,0,0,1-1.68,1.824c-.756,0-1.236-.336-1.236-1.452V-6h-1.284v3.948A1.965,1.965,0,0,0,174.588.12a2.214,2.214,0,0,0,2.124-1.092l.06.972h1.14V-6Zm10.512-.12a2.275,2.275,0,0,0-2.076,1.2,2.1,2.1,0,0,0-2.016-1.2A2.162,2.162,0,0,0,181.1-5l-.06-1H179.9V0h1.284V-3.192c0-1.344.84-1.872,1.56-1.872s1.236.4,1.236,1.38V0h1.284V-3.264a1.606,1.606,0,0,1,1.56-1.8c.708,0,1.236.4,1.236,1.38V0h1.284V-3.888A2.082,2.082,0,0,0,187.14-6.12ZM3.516,7.96a2.618,2.618,0,0,0-2.7,1.8l1.176.48a1.375,1.375,0,0,1,1.5-1.176A1.148,1.148,0,0,1,4.8,10.324c-.012.8-.5,1.188-1.488,1.188H2.988v1.02h.36c1.092,0,1.62.3,1.632,1.164.012.78-.552,1.32-1.536,1.32a1.584,1.584,0,0,1-1.716-1.38L.552,14.2A2.742,2.742,0,0,0,3.4,16.12c1.728,0,2.88-.948,2.88-2.256a1.713,1.713,0,0,0-1.668-1.848v-.024A1.751,1.751,0,0,0,6.1,10.072C6.1,8.908,5.2,7.96,3.516,7.96ZM10.8,16.12c2,0,3.06-1.416,3.06-4.08S12.8,7.96,10.8,7.96,7.752,9.376,7.752,12.04,8.8,16.12,10.8,16.12Zm0-1.092c-1.152,0-1.74-1-1.74-2.988s.588-2.988,1.74-2.988,1.752,1,1.752,2.988S11.952,15.028,10.8,15.028ZM18.2,9.88A2.806,2.806,0,0,0,15.216,13a2.813,2.813,0,0,0,3.012,3.12,2.524,2.524,0,0,0,2.628-1.788l-1.176-.4A1.364,1.364,0,0,1,18.2,15.1c-1.056,0-1.692-.732-1.692-2.088S17.136,10.9,18.2,10.9a1.359,1.359,0,0,1,1.4,1.14l1.2-.48A2.517,2.517,0,0,0,18.2,9.88Zm11.388,0a2.275,2.275,0,0,0-2.076,1.2A2.1,2.1,0,0,0,25.5,9.88,2.162,2.162,0,0,0,23.556,11l-.06-1h-1.14v6H23.64V12.808c0-1.344.84-1.872,1.56-1.872s1.236.4,1.236,1.38V16H27.72V12.736a1.606,1.606,0,0,1,1.56-1.8c.708,0,1.236.4,1.236,1.38V16H31.8V12.112A2.082,2.082,0,0,0,29.592,9.88Zm11.268,0a2.121,2.121,0,0,0-1.932,1.092V7.3H37.644V16h1.128l.06-1.1a2.175,2.175,0,0,0,2.04,1.224c1.632,0,2.652-1.152,2.652-3.108S42.492,9.88,40.86,9.88Zm-.276,5.208c-1.008,0-1.656-.756-1.656-2.016v-.144c0-1.248.648-2,1.656-2,1.032,0,1.656.768,1.656,2.076S41.616,15.088,40.584,15.088Zm9.972-2.268a2.652,2.652,0,0,0-2.784-2.94c-1.872,0-2.928,1.164-2.928,3.12a2.813,2.813,0,0,0,3.012,3.12,2.59,2.59,0,0,0,2.58-1.392l-1.068-.444a1.438,1.438,0,0,1-1.512.816,1.658,1.658,0,0,1-1.74-1.62h4.392A4.98,4.98,0,0,0,50.556,12.82ZM47.772,10.9c.9,0,1.464.588,1.584,1.6H46.128A1.581,1.581,0,0,1,47.772,10.9Zm7.836,3.768a1.369,1.369,0,0,1-.972.384.778.778,0,0,1-.876-.852V11.008h2.1V10h-2.1V8.236l-1.284.36V10h-1.14v1.008h1.14v3.408a1.607,1.607,0,0,0,1.836,1.7,2.47,2.47,0,0,0,1.6-.516ZM64.836,10,63.48,14.788,61.98,10H60.708l-1.5,4.788L57.852,10H56.46l2,6h1.4l1.44-4.536L62.82,16h1.4l2-6Zm7.908,2.82A2.652,2.652,0,0,0,69.96,9.88c-1.872,0-2.928,1.164-2.928,3.12a2.813,2.813,0,0,0,3.012,3.12,2.59,2.59,0,0,0,2.58-1.392l-1.068-.444a1.438,1.438,0,0,1-1.512.816,1.658,1.658,0,0,1-1.74-1.62H72.7A4.979,4.979,0,0,0,72.744,12.82ZM69.96,10.9c.9,0,1.464.588,1.584,1.6H68.316A1.581,1.581,0,0,1,69.96,10.9Zm9.756,1.92a2.652,2.652,0,0,0-2.784-2.94C75.06,9.88,74,11.044,74,13a2.813,2.813,0,0,0,3.012,3.12,2.59,2.59,0,0,0,2.58-1.392l-1.068-.444a1.438,1.438,0,0,1-1.512.816,1.658,1.658,0,0,1-1.74-1.62h4.392A4.979,4.979,0,0,0,79.716,12.82ZM76.932,10.9c.9,0,1.464.588,1.584,1.6H75.288A1.581,1.581,0,0,1,76.932,10.9Zm7.62-1.02a2.136,2.136,0,0,0-2.028,1.128L82.464,10h-1.14v6h1.284V12.82c0-1.38.84-1.884,1.632-1.884.732,0,1.284.4,1.284,1.584V16h1.284V12.112A2.078,2.078,0,0,0,84.552,9.88Zm15.336,0a2.275,2.275,0,0,0-2.076,1.2A2.1,2.1,0,0,0,95.8,9.88,2.162,2.162,0,0,0,93.852,11l-.06-1h-1.14v6h1.284V12.808c0-1.344.84-1.872,1.56-1.872s1.236.4,1.236,1.38V16h1.284V12.736a1.606,1.606,0,0,1,1.56-1.8c.708,0,1.236.4,1.236,1.38V16H102.1V12.112A2.082,2.082,0,0,0,99.888,9.88Zm6.792,0A2.806,2.806,0,0,0,103.692,13a2.991,2.991,0,1,0,5.976,0A2.806,2.806,0,0,0,106.68,9.88Zm0,1.008c1.08,0,1.7.756,1.7,2.112s-.624,2.112-1.7,2.112-1.692-.756-1.692-2.112S105.6,10.888,106.68,10.888Zm7.848-1.008a2.121,2.121,0,0,0-1.932,1.092V7.3h-1.284V16h1.128l.06-1.1a2.175,2.175,0,0,0,2.04,1.224c1.632,0,2.652-1.152,2.652-3.108S116.16,9.88,114.528,9.88Zm-.276,5.208c-1.008,0-1.656-.756-1.656-2.016v-.144c0-1.248.648-2,1.656-2,1.032,0,1.656.768,1.656,2.076S115.284,15.088,114.252,15.088Zm5.256-6.1a.753.753,0,0,0,.852-.8.745.745,0,0,0-.852-.792.754.754,0,0,0-.864.792A.762.762,0,0,0,119.508,8.992ZM120.144,10H118.86v6h1.284ZM123.4,7.3h-1.284v7.128c0,1.164.492,1.692,1.56,1.692a2.381,2.381,0,0,0,1-.2l.144-1.032a1.9,1.9,0,0,1-.792.156c-.48,0-.624-.2-.624-.792Zm7.86,5.52a2.652,2.652,0,0,0-2.784-2.94c-1.872,0-2.928,1.164-2.928,3.12a2.813,2.813,0,0,0,3.012,3.12,2.59,2.59,0,0,0,2.58-1.392l-1.068-.444a1.438,1.438,0,0,1-1.512.816,1.658,1.658,0,0,1-1.74-1.62h4.392A4.98,4.98,0,0,0,131.256,12.82Zm-2.784-1.92c.9,0,1.464.588,1.584,1.6h-3.228A1.581,1.581,0,0,1,128.472,10.9Zm13.476,4.26c-.324,0-.444-.144-.444-.444V12c0-1.44-1.032-2.124-2.532-2.124a2.417,2.417,0,0,0-2.52,1.56l1,.528A1.486,1.486,0,0,1,139,10.888a1.113,1.113,0,0,1,1.224,1.188v.312l-1.524.276c-1.572.276-2.34.96-2.34,1.884,0,1.044.828,1.572,1.956,1.572a2.355,2.355,0,0,0,2.028-.9,1.076,1.076,0,0,0,1.224.9,1.863,1.863,0,0,0,.744-.144l.084-.864A1.738,1.738,0,0,1,141.948,15.16Zm-3.36-.012c-.564,0-.9-.24-.9-.684,0-.48.408-.756,1.224-.912l1.308-.264v.72C140.22,14.728,139.392,15.148,138.588,15.148Zm8.244-5.268a2.136,2.136,0,0,0-2.028,1.128L144.744,10H143.6v6h1.284V12.82c0-1.38.84-1.884,1.632-1.884.732,0,1.284.4,1.284,1.584V16h1.284V12.112A2.078,2.078,0,0,0,146.832,9.88ZM155.3,7.3v3.672a2.121,2.121,0,0,0-1.932-1.092c-1.632,0-2.664,1.164-2.664,3.132s1.02,3.108,2.652,3.108a2.191,2.191,0,0,0,2.028-1.2L155.46,16h1.128V7.3Zm-1.656,7.788c-1.032,0-1.656-.78-1.656-2.088s.624-2.076,1.656-2.076c1.008,0,1.656.756,1.656,2v.144C155.3,14.332,154.656,15.088,153.648,15.088ZM6.4,26H5.064L3.816,29.66,3.408,30.9,3.06,29.768,1.74,26H.3l1.872,4.548L2.8,32.036l-.264.648c-.264.7-.6.864-1.044.864A1.176,1.176,0,0,1,.5,33.116L.132,34.1a1.916,1.916,0,0,0,1.416.48c1.08,0,1.692-.48,2.22-1.872Zm3.756-.12A2.806,2.806,0,0,0,7.164,29a2.806,2.806,0,0,0,2.988,3.12A2.806,2.806,0,0,0,13.14,29,2.806,2.806,0,0,0,10.152,25.88Zm0,1.008c1.08,0,1.7.756,1.7,2.112s-.624,2.112-1.7,2.112S8.46,30.356,8.46,29,9.072,26.888,10.152,26.888ZM18.936,26v3.24a1.617,1.617,0,0,1-1.68,1.824c-.756,0-1.236-.336-1.236-1.452V26H14.736v3.948A1.965,1.965,0,0,0,16.9,32.12a2.214,2.214,0,0,0,2.124-1.092l.06.972h1.14V26Zm6.372-.12a1.87,1.87,0,0,0-1.884,1.188L23.3,26H22.212v6H23.5V28.82a1.605,1.605,0,0,1,1.512-1.8,1.58,1.58,0,0,1,.756.156l.2-1.176A1.582,1.582,0,0,0,25.308,25.88ZM35.1,23.3v3.672a2.121,2.121,0,0,0-1.932-1.092c-1.632,0-2.664,1.164-2.664,3.132s1.02,3.108,2.652,3.108a2.191,2.191,0,0,0,2.028-1.2L35.256,32h1.128V23.3Zm-1.656,7.788c-1.032,0-1.656-.78-1.656-2.088s.624-2.076,1.656-2.076c1.008,0,1.656.756,1.656,2v.144C35.1,30.332,34.452,31.088,33.444,31.088Zm10.3-2.268a2.652,2.652,0,0,0-2.784-2.94c-1.872,0-2.928,1.164-2.928,3.12a2.813,2.813,0,0,0,3.012,3.12,2.59,2.59,0,0,0,2.58-1.392l-1.068-.444a1.438,1.438,0,0,1-1.512.816,1.658,1.658,0,0,1-1.74-1.62h4.392A4.98,4.98,0,0,0,43.74,28.82ZM40.956,26.9c.9,0,1.464.588,1.584,1.6H39.312A1.581,1.581,0,0,1,40.956,26.9Zm8.16-.9-1.74,4.956L45.684,26H44.268l2.4,6h1.4l2.388-6ZM52.2,24.992a.753.753,0,0,0,.852-.8A.745.745,0,0,0,52.2,23.4a.754.754,0,0,0-.864.792A.762.762,0,0,0,52.2,24.992ZM52.836,26H51.552v6h1.284Zm4.644-.12A2.806,2.806,0,0,0,54.492,29,2.813,2.813,0,0,0,57.5,32.12a2.524,2.524,0,0,0,2.628-1.788l-1.176-.4A1.364,1.364,0,0,1,57.48,31.1c-1.056,0-1.692-.732-1.692-2.088S56.412,26.9,57.48,26.9a1.359,1.359,0,0,1,1.4,1.14l1.2-.48A2.517,2.517,0,0,0,57.48,25.88ZM67,28.82a2.652,2.652,0,0,0-2.784-2.94c-1.872,0-2.928,1.164-2.928,3.12A2.813,2.813,0,0,0,64.3,32.12a2.59,2.59,0,0,0,2.58-1.392l-1.068-.444A1.438,1.438,0,0,1,64.3,31.1a1.658,1.658,0,0,1-1.74-1.62h4.392A4.979,4.979,0,0,0,67,28.82ZM64.212,26.9c.9,0,1.464.588,1.584,1.6H62.568A1.581,1.581,0,0,1,64.212,26.9Z" transform="translate(141 362.14)" fill="#525968"/>
    <path id="Path_34786" data-name="Path 34786" d="M2.46-1.1V-3.456H5.94v-1.08H2.46v-2.28H6.912v-1.1H1.176V0h5.9V-1.1Zm9.4-5.016A2.136,2.136,0,0,0,9.828-4.992L9.768-6H8.628V0H9.912V-3.18c0-1.38.84-1.884,1.632-1.884.732,0,1.284.4,1.284,1.584V0h1.284V-3.888A2.078,2.078,0,0,0,11.856-6.12ZM18.228.12c1.656,0,2.616-.756,2.616-1.812,0-1-.612-1.512-2.328-1.824-1.128-.2-1.476-.432-1.476-.864,0-.372.5-.732,1.248-.732a1.544,1.544,0,0,1,1.6,1.02l.912-.672a2.418,2.418,0,0,0-2.52-1.356c-1.608,0-2.52.888-2.52,1.86,0,1.008.624,1.524,2.412,1.86,1.044.2,1.392.42,1.392.792,0,.408-.432.72-1.284.72a1.842,1.842,0,0,1-1.86-1l-.864.744A2.91,2.91,0,0,0,18.228.12ZM26.556-6v3.24a1.617,1.617,0,0,1-1.68,1.824c-.756,0-1.236-.336-1.236-1.452V-6H22.356v3.948A1.965,1.965,0,0,0,24.516.12,2.214,2.214,0,0,0,26.64-.972L26.7,0h1.14V-6Zm6.372-.12a1.87,1.87,0,0,0-1.884,1.188L30.924-6H29.832V0h1.284V-3.18a1.605,1.605,0,0,1,1.512-1.8,1.58,1.58,0,0,1,.756.156L33.588-6A1.582,1.582,0,0,0,32.928-6.12Zm7.08,2.94a2.652,2.652,0,0,0-2.784-2.94C35.352-6.12,34.3-4.956,34.3-3A2.813,2.813,0,0,0,37.308.12a2.59,2.59,0,0,0,2.58-1.392L38.82-1.716A1.438,1.438,0,0,1,37.308-.9a1.658,1.658,0,0,1-1.74-1.62H39.96A4.98,4.98,0,0,0,40.008-3.18ZM37.224-5.1c.9,0,1.464.588,1.584,1.6H35.58A1.581,1.581,0,0,1,37.224-5.1ZM50.664-6H49.332L48.084-2.34,47.676-1.1l-.348-1.128L46.008-6h-1.44L46.44-1.452,47.064.036,46.8.684c-.264.7-.6.864-1.044.864a1.176,1.176,0,0,1-.984-.432L44.4,2.1a1.916,1.916,0,0,0,1.416.48c1.08,0,1.692-.48,2.22-1.872Zm3.756-.12A2.806,2.806,0,0,0,51.432-3,2.806,2.806,0,0,0,54.42.12,2.806,2.806,0,0,0,57.408-3,2.806,2.806,0,0,0,54.42-6.12Zm0,1.008c1.08,0,1.7.756,1.7,2.112S55.5-.888,54.42-.888,52.728-1.644,52.728-3,53.34-5.112,54.42-5.112ZM63.2-6v3.24a1.617,1.617,0,0,1-1.68,1.824c-.756,0-1.236-.336-1.236-1.452V-6H59v3.948A1.965,1.965,0,0,0,61.164.12,2.214,2.214,0,0,0,63.288-.972l.06.972h1.14V-6Zm6.372-.12a1.87,1.87,0,0,0-1.884,1.188L67.572-6H66.48V0h1.284V-3.18a1.605,1.605,0,0,1,1.512-1.8,1.58,1.58,0,0,1,.756.156L70.236-6A1.582,1.582,0,0,0,69.576-6.12Zm12.756,0a2.275,2.275,0,0,0-2.076,1.2,2.1,2.1,0,0,0-2.016-1.2A2.162,2.162,0,0,0,76.3-5l-.06-1H75.1V0H76.38V-3.192c0-1.344.84-1.872,1.56-1.872s1.236.4,1.236,1.38V0H80.46V-3.264a1.606,1.606,0,0,1,1.56-1.8c.708,0,1.236.4,1.236,1.38V0H84.54V-3.888A2.082,2.082,0,0,0,82.332-6.12Zm6.792,0A2.806,2.806,0,0,0,86.136-3,2.806,2.806,0,0,0,89.124.12,2.806,2.806,0,0,0,92.112-3,2.806,2.806,0,0,0,89.124-6.12Zm0,1.008c1.08,0,1.7.756,1.7,2.112S90.2-.888,89.124-.888,87.432-1.644,87.432-3,88.044-5.112,89.124-5.112ZM96.972-6.12A2.121,2.121,0,0,0,95.04-5.028V-8.7H93.756V0h1.128l.06-1.1A2.175,2.175,0,0,0,96.984.12c1.632,0,2.652-1.152,2.652-3.108S98.6-6.12,96.972-6.12ZM96.7-.912c-1.008,0-1.656-.756-1.656-2.016v-.144c0-1.248.648-2,1.656-2,1.032,0,1.656.768,1.656,2.076S97.728-.912,96.7-.912Zm5.256-6.1a.753.753,0,0,0,.852-.8.745.745,0,0,0-.852-.792.754.754,0,0,0-.864.792A.762.762,0,0,0,101.952-7.008ZM102.588-6H101.3V0h1.284Zm3.252-2.7h-1.284v7.128c0,1.164.492,1.692,1.56,1.692a2.381,2.381,0,0,0,1-.2l.144-1.032a1.9,1.9,0,0,1-.792.156c-.48,0-.624-.2-.624-.792Zm7.86,5.52a2.652,2.652,0,0,0-2.784-2.94c-1.872,0-2.928,1.164-2.928,3.12A2.813,2.813,0,0,0,111,.12a2.59,2.59,0,0,0,2.58-1.392l-1.068-.444A1.438,1.438,0,0,1,111-.9a1.658,1.658,0,0,1-1.74-1.62h4.392A4.979,4.979,0,0,0,113.7-3.18ZM110.916-5.1c.9,0,1.464.588,1.584,1.6h-3.228A1.581,1.581,0,0,1,110.916-5.1Zm8.94-1.908a.753.753,0,0,0,.852-.8.745.745,0,0,0-.852-.792.754.754,0,0,0-.864.792A.762.762,0,0,0,119.856-7.008ZM120.492-6h-1.284V0h1.284ZM124.668.12c1.656,0,2.616-.756,2.616-1.812,0-1-.612-1.512-2.328-1.824-1.128-.2-1.476-.432-1.476-.864,0-.372.5-.732,1.248-.732a1.544,1.544,0,0,1,1.6,1.02l.912-.672a2.418,2.418,0,0,0-2.52-1.356c-1.608,0-2.52.888-2.52,1.86,0,1.008.624,1.524,2.412,1.86,1.044.2,1.392.42,1.392.792,0,.408-.432.72-1.284.72a1.842,1.842,0,0,1-1.86-1l-.864.744A2.91,2.91,0,0,0,124.668.12Zm10.716-6.24A2.806,2.806,0,0,0,132.4-3,2.813,2.813,0,0,0,135.408.12a2.524,2.524,0,0,0,2.628-1.788l-1.176-.4A1.364,1.364,0,0,1,135.384-.9c-1.056,0-1.692-.732-1.692-2.088s.624-2.112,1.692-2.112a1.359,1.359,0,0,1,1.4,1.14l1.2-.48A2.517,2.517,0,0,0,135.384-6.12Zm6.792,0A2.806,2.806,0,0,0,139.188-3,2.806,2.806,0,0,0,142.176.12,2.806,2.806,0,0,0,145.164-3,2.806,2.806,0,0,0,142.176-6.12Zm0,1.008c1.08,0,1.7.756,1.7,2.112s-.624,2.112-1.7,2.112S140.484-1.644,140.484-3,141.1-5.112,142.176-5.112Zm7.86-1.008a2.136,2.136,0,0,0-2.028,1.128L147.948-6h-1.14V0h1.284V-3.18c0-1.38.84-1.884,1.632-1.884.732,0,1.284.4,1.284,1.584V0h1.284V-3.888A2.078,2.078,0,0,0,150.036-6.12Zm7.428,0a2.136,2.136,0,0,0-2.028,1.128L155.376-6h-1.14V0h1.284V-3.18c0-1.38.84-1.884,1.632-1.884.732,0,1.284.4,1.284,1.584V0h1.284V-3.888A2.078,2.078,0,0,0,157.464-6.12Zm9.564,2.94a2.652,2.652,0,0,0-2.784-2.94c-1.872,0-2.928,1.164-2.928,3.12A2.813,2.813,0,0,0,164.328.12a2.59,2.59,0,0,0,2.58-1.392l-1.068-.444a1.438,1.438,0,0,1-1.512.816,1.658,1.658,0,0,1-1.74-1.62h4.392A4.979,4.979,0,0,0,167.028-3.18ZM164.244-5.1c.9,0,1.464.588,1.584,1.6H162.6A1.581,1.581,0,0,1,164.244-5.1Zm7.032-1.02A2.806,2.806,0,0,0,168.288-3,2.813,2.813,0,0,0,171.3.12a2.524,2.524,0,0,0,2.628-1.788l-1.176-.4A1.364,1.364,0,0,1,171.276-.9c-1.056,0-1.692-.732-1.692-2.088s.624-2.112,1.692-2.112a1.359,1.359,0,0,1,1.4,1.14l1.2-.48A2.517,2.517,0,0,0,171.276-6.12Zm7.74,4.788a1.369,1.369,0,0,1-.972.384.778.778,0,0,1-.876-.852V-4.992h2.1V-6h-2.1V-7.764l-1.284.36V-6h-1.14v1.008h1.14v3.408A1.607,1.607,0,0,0,177.72.12a2.47,2.47,0,0,0,1.6-.516ZM185.88-3.18A2.652,2.652,0,0,0,183.1-6.12c-1.872,0-2.928,1.164-2.928,3.12A2.813,2.813,0,0,0,183.18.12a2.59,2.59,0,0,0,2.58-1.392l-1.068-.444A1.438,1.438,0,0,1,183.18-.9a1.658,1.658,0,0,1-1.74-1.62h4.392A4.979,4.979,0,0,0,185.88-3.18ZM183.1-5.1c.9,0,1.464.588,1.584,1.6h-3.228A1.581,1.581,0,0,1,183.1-5.1Zm8.664-3.6v3.672a2.121,2.121,0,0,0-1.932-1.092c-1.632,0-2.664,1.164-2.664,3.132S188.184.12,189.816.12a2.191,2.191,0,0,0,2.028-1.2L191.916,0h1.128V-8.7ZM190.1-.912c-1.032,0-1.656-.78-1.656-2.088s.624-2.076,1.656-2.076c1.008,0,1.656.756,1.656,2v.144C191.76-1.668,191.112-.912,190.1-.912ZM4.584,14.668a1.369,1.369,0,0,1-.972.384.778.778,0,0,1-.876-.852V11.008h2.1V10h-2.1V8.236L1.452,8.6V10H.312v1.008h1.14v3.408a1.607,1.607,0,0,0,1.836,1.7,2.47,2.47,0,0,0,1.6-.516ZM8.724,9.88A2.806,2.806,0,0,0,5.736,13a2.806,2.806,0,0,0,2.988,3.12A2.806,2.806,0,0,0,11.712,13,2.806,2.806,0,0,0,8.724,9.88Zm0,1.008c1.08,0,1.7.756,1.7,2.112s-.624,2.112-1.7,2.112S7.032,14.356,7.032,13,7.644,10.888,8.724,10.888Zm11.928,3.78a1.369,1.369,0,0,1-.972.384A.778.778,0,0,1,18.8,14.2V11.008h2.1V10H18.8V8.236L17.52,8.6V10H16.38v1.008h1.14v3.408a1.607,1.607,0,0,0,1.836,1.7,2.47,2.47,0,0,0,1.6-.516ZM25.428,9.88a2.066,2.066,0,0,0-1.944,1.08V7.3H22.2V16h1.284V12.832c0-1.38.84-1.9,1.632-1.9.732,0,1.284.4,1.284,1.584V16h1.284V12.112A2.078,2.078,0,0,0,25.428,9.88Zm9.564,2.94a2.652,2.652,0,0,0-2.784-2.94c-1.872,0-2.928,1.164-2.928,3.12a2.813,2.813,0,0,0,3.012,3.12,2.59,2.59,0,0,0,2.58-1.392L33.8,14.284a1.438,1.438,0,0,1-1.512.816,1.658,1.658,0,0,1-1.74-1.62h4.392A4.98,4.98,0,0,0,34.992,12.82ZM32.208,10.9c.9,0,1.464.588,1.584,1.6H30.564A1.581,1.581,0,0,1,32.208,10.9Zm10.464,5.22c1.656,0,2.616-.756,2.616-1.812,0-1-.612-1.512-2.328-1.824-1.128-.2-1.476-.432-1.476-.864,0-.372.5-.732,1.248-.732a1.544,1.544,0,0,1,1.6,1.02l.912-.672A2.418,2.418,0,0,0,42.72,9.88c-1.608,0-2.52.888-2.52,1.86,0,1.008.624,1.524,2.412,1.86,1.044.2,1.392.42,1.392.792,0,.408-.432.72-1.284.72a1.842,1.842,0,0,1-1.86-1L40,14.86A2.91,2.91,0,0,0,42.672,16.12Zm9.36-.96c-.324,0-.444-.144-.444-.444V12c0-1.44-1.032-2.124-2.532-2.124a2.417,2.417,0,0,0-2.52,1.56l1,.528a1.486,1.486,0,0,1,1.548-1.08A1.113,1.113,0,0,1,50.3,12.076v.312l-1.524.276c-1.572.276-2.34.96-2.34,1.884,0,1.044.828,1.572,1.956,1.572a2.355,2.355,0,0,0,2.028-.9,1.076,1.076,0,0,0,1.224.9,1.863,1.863,0,0,0,.744-.144l.084-.864A1.738,1.738,0,0,1,52.032,15.16Zm-3.36-.012c-.564,0-.9-.24-.9-.684,0-.48.408-.756,1.224-.912l1.308-.264v.72C50.3,14.728,49.476,15.148,48.672,15.148ZM60.924,9.88a2.275,2.275,0,0,0-2.076,1.2,2.1,2.1,0,0,0-2.016-1.2A2.162,2.162,0,0,0,54.888,11l-.06-1h-1.14v6h1.284V12.808c0-1.344.84-1.872,1.56-1.872s1.236.4,1.236,1.38V16h1.284V12.736a1.606,1.606,0,0,1,1.56-1.8c.708,0,1.236.4,1.236,1.38V16h1.284V12.112A2.082,2.082,0,0,0,60.924,9.88Zm9.516,2.94a2.652,2.652,0,0,0-2.784-2.94c-1.872,0-2.928,1.164-2.928,3.12a2.813,2.813,0,0,0,3.012,3.12,2.59,2.59,0,0,0,2.58-1.392l-1.068-.444a1.438,1.438,0,0,1-1.512.816A1.658,1.658,0,0,1,66,13.48h4.392A4.979,4.979,0,0,0,70.44,12.82ZM67.656,10.9c.9,0,1.464.588,1.584,1.6H66.012A1.581,1.581,0,0,1,67.656,10.9Zm12.468.348.4-1.824h.012l.4,1.824L82.188,16H83.7l2.316-7.92H84.7l-1.74,6.912L81.2,8.08h-1.32l-1.74,6.9-1.728-6.9H75.024L77.352,16h1.524ZM88,8.992a.753.753,0,0,0,.852-.8A.745.745,0,0,0,88,7.4a.754.754,0,0,0-.864.792A.762.762,0,0,0,88,8.992ZM88.632,10H87.348v6h1.284Zm7.908-.816V8.08H90.816V16H92.1V12.592h3.48V11.476H92.1V9.184Zm2.076-.192a.753.753,0,0,0,.852-.8.745.745,0,0,0-.852-.792.754.754,0,0,0-.864.792A.762.762,0,0,0,98.616,8.992ZM99.252,10H97.968v6h1.284ZM110.3,10h-1.332l-1.248,3.66-.408,1.236-.348-1.128L105.648,10h-1.44l1.872,4.548.624,1.488-.264.648c-.264.7-.6.864-1.044.864a1.176,1.176,0,0,1-.984-.432l-.372.984a1.916,1.916,0,0,0,1.416.48c1.08,0,1.692-.48,2.22-1.872Zm3.756-.12A2.806,2.806,0,0,0,111.072,13a2.991,2.991,0,1,0,5.976,0A2.806,2.806,0,0,0,114.06,9.88Zm0,1.008c1.08,0,1.7.756,1.7,2.112s-.624,2.112-1.7,2.112-1.692-.756-1.692-2.112S112.98,10.888,114.06,10.888ZM122.844,10v3.24a1.617,1.617,0,0,1-1.68,1.824c-.756,0-1.236-.336-1.236-1.452V10h-1.284v3.948a1.965,1.965,0,0,0,2.16,2.172,2.214,2.214,0,0,0,2.124-1.092l.06.972h1.14V10Zm14.64,0-1.356,4.788L134.628,10h-1.272l-1.5,4.788L130.5,10h-1.392l2,6h1.4l1.44-4.536L135.468,16h1.4l2-6Zm7.788,5.16c-.324,0-.444-.144-.444-.444V12c0-1.44-1.032-2.124-2.532-2.124a2.417,2.417,0,0,0-2.52,1.56l1,.528a1.486,1.486,0,0,1,1.548-1.08,1.113,1.113,0,0,1,1.224,1.188v.312l-1.524.276c-1.572.276-2.34.96-2.34,1.884,0,1.044.828,1.572,1.956,1.572a2.355,2.355,0,0,0,2.028-.9,1.076,1.076,0,0,0,1.224.9,1.863,1.863,0,0,0,.744-.144l.084-.864A1.738,1.738,0,0,1,145.272,15.16Zm-3.36-.012c-.564,0-.9-.24-.9-.684,0-.48.408-.756,1.224-.912l1.308-.264v.72C143.544,14.728,142.716,15.148,141.912,15.148Zm8.244-5.268a2.136,2.136,0,0,0-2.028,1.128L148.068,10h-1.14v6h1.284V12.82c0-1.38.84-1.884,1.632-1.884.732,0,1.284.4,1.284,1.584V16h1.284V12.112A2.078,2.078,0,0,0,150.156,9.88Zm7.716,4.788a1.369,1.369,0,0,1-.972.384.778.778,0,0,1-.876-.852V11.008h2.1V10h-2.1V8.236l-1.284.36V10H153.6v1.008h1.14v3.408a1.607,1.607,0,0,0,1.836,1.7,2.47,2.47,0,0,0,1.6-.516Zm8.8,0a1.369,1.369,0,0,1-.972.384.778.778,0,0,1-.876-.852V11.008h2.1V10h-2.1V8.236l-1.284.36V10H162.4v1.008h1.14v3.408a1.607,1.607,0,0,0,1.836,1.7,2.47,2.47,0,0,0,1.6-.516Zm4.14-4.788A2.806,2.806,0,0,0,167.82,13a2.991,2.991,0,1,0,5.976,0A2.806,2.806,0,0,0,170.808,9.88Zm0,1.008c1.08,0,1.7.756,1.7,2.112s-.624,2.112-1.7,2.112-1.692-.756-1.692-2.112S169.728,10.888,170.808,10.888ZM183.492,10v3.24a1.617,1.617,0,0,1-1.68,1.824c-.756,0-1.236-.336-1.236-1.452V10h-1.284v3.948a1.965,1.965,0,0,0,2.16,2.172,2.214,2.214,0,0,0,2.124-1.092l.06.972h1.14V10Zm5.448,6.12c1.656,0,2.616-.756,2.616-1.812,0-1-.612-1.512-2.328-1.824-1.128-.2-1.476-.432-1.476-.864,0-.372.5-.732,1.248-.732a1.544,1.544,0,0,1,1.6,1.02l.912-.672a2.418,2.418,0,0,0-2.52-1.356c-1.608,0-2.52.888-2.52,1.86,0,1.008.624,1.524,2.412,1.86,1.044.2,1.392.42,1.392.792,0,.408-.432.72-1.284.72a1.842,1.842,0,0,1-1.86-1l-.864.744A2.91,2.91,0,0,0,188.94,16.12Zm9.528-3.3a2.652,2.652,0,0,0-2.784-2.94c-1.872,0-2.928,1.164-2.928,3.12a2.813,2.813,0,0,0,3.012,3.12,2.59,2.59,0,0,0,2.58-1.392l-1.068-.444a1.438,1.438,0,0,1-1.512.816,1.658,1.658,0,0,1-1.74-1.62h4.392A4.979,4.979,0,0,0,198.468,12.82Zm-2.784-1.92c.9,0,1.464.588,1.584,1.6H194.04A1.581,1.581,0,0,1,195.684,10.9ZM2.7,25.232c0-.684.384-.972,1.056-.972a1.182,1.182,0,0,1,.684.18l.24-.936a1.923,1.923,0,0,0-1.128-.288,1.839,1.839,0,0,0-2.1,1.92V26H.324v1.008H1.452V32H2.736V27.008H4.644V26H2.7Zm5.6.648A2.806,2.806,0,0,0,5.316,29,2.806,2.806,0,0,0,8.3,32.12,2.806,2.806,0,0,0,11.292,29,2.806,2.806,0,0,0,8.3,25.88Zm0,1.008c1.08,0,1.7.756,1.7,2.112s-.624,2.112-1.7,2.112S6.612,30.356,6.612,29,7.224,26.888,8.3,26.888Zm7.728-1.008a1.87,1.87,0,0,0-1.884,1.188L14.028,26H12.936v6H14.22V28.82a1.605,1.605,0,0,1,1.512-1.8,1.58,1.58,0,0,1,.756.156l.2-1.176A1.582,1.582,0,0,0,16.032,25.88Zm8.916,4.788a1.369,1.369,0,0,1-.972.384A.778.778,0,0,1,23.1,30.2V27.008h2.1V26H23.1V24.236l-1.284.36V26h-1.14v1.008h1.14v3.408a1.607,1.607,0,0,0,1.836,1.7,2.47,2.47,0,0,0,1.6-.516Zm4.776-4.788a2.066,2.066,0,0,0-1.944,1.08V23.3H26.5V32H27.78V28.832c0-1.38.84-1.9,1.632-1.9.732,0,1.284.4,1.284,1.584V32H31.98V28.112A2.078,2.078,0,0,0,29.724,25.88Zm9.564,2.94A2.652,2.652,0,0,0,36.5,25.88c-1.872,0-2.928,1.164-2.928,3.12a2.813,2.813,0,0,0,3.012,3.12,2.59,2.59,0,0,0,2.58-1.392L38.1,30.284a1.438,1.438,0,0,1-1.512.816,1.658,1.658,0,0,1-1.74-1.62H39.24A4.98,4.98,0,0,0,39.288,28.82ZM36.5,26.9c.9,0,1.464.588,1.584,1.6H34.86A1.581,1.581,0,0,1,36.5,26.9ZM49.776,32h1.356l-2.988-7.92H46.608L43.62,32h1.32l.756-2.076h3.336Zm-3.708-3.12L47,26.312,47.34,25.2h.036l.36,1.14.912,2.544Zm9.516-3a2.175,2.175,0,0,0-2.04,1.224l-.06-1.1H52.356v8.52H53.64V31.028a2.121,2.121,0,0,0,1.932,1.092c1.632,0,2.664-1.164,2.664-3.132S57.216,25.88,55.584,25.88Zm-.288,5.2c-1.008,0-1.656-.756-1.656-2v-.144c0-1.26.648-2.016,1.656-2.016,1.032,0,1.656.78,1.656,2.088S56.328,31.076,55.3,31.076Zm7.836-5.2a2.175,2.175,0,0,0-2.04,1.224l-.06-1.1H59.9v8.52h1.284V31.028A2.121,2.121,0,0,0,63.12,32.12c1.632,0,2.664-1.164,2.664-3.132S64.764,25.88,63.132,25.88Zm-.288,5.2c-1.008,0-1.656-.756-1.656-2v-.144c0-1.26.648-2.016,1.656-2.016,1.032,0,1.656.78,1.656,2.088S63.876,31.076,62.844,31.076Z" transform="translate(52 264)" fill="#525968"/>
    <g id="Group_23898" data-name="Group 23898">
      <g id="Group_15049" data-name="Group 15049" transform="translate(167.708 97.049)">
        <rect id="Rectangle_3462-2" data-name="Rectangle 3462" width="36.529" height="12.176" rx="6.088" transform="matrix(0.695, -0.719, 0.719, 0.695, 93.717, 166.943)" fill="#f9f9f9"/>
        <rect id="Rectangle_3463-2" data-name="Rectangle 3463" width="71.653" height="12.176" rx="6.088" transform="matrix(0.695, -0.719, 0.719, 0.695, 90.861, 192.209)" fill="#f9f9f9"/>
        <rect id="Rectangle_3464-2" data-name="Rectangle 3464" width="71.653" height="12.176" rx="6.088" transform="matrix(0.695, -0.719, 0.719, 0.695, 111.701, 196.944)" fill="#f9f9f9"/>
        <rect id="Rectangle_3465-2" data-name="Rectangle 3465" width="66.659" height="11.328" rx="5.664" transform="matrix(0.695, -0.719, 0.719, 0.695, 122.168, 209.366)" fill="#f9f9f9"/>
        <g id="Ellipse_662-2" data-name="Ellipse 662" transform="translate(151.371 152.732)" fill="#fff" stroke="#707070" stroke-width="1">
          <circle cx="2.367" cy="2.367" r="2.367" stroke="none"/>
          <circle cx="2.367" cy="2.367" r="1.867" fill="none"/>
        </g>
        <circle id="Ellipse_664-2" data-name="Ellipse 664" cx="2.366" cy="2.366" r="2.366" transform="translate(161.168 181.402)" fill="#d4efff"/>
        <g id="Ellipse_665-2" data-name="Ellipse 665" transform="translate(99.748 196.158)" fill="#fff" stroke="#707070" stroke-width="1">
          <circle cx="2.255" cy="2.255" r="2.255" stroke="none"/>
          <circle cx="2.255" cy="2.255" r="1.755" fill="none"/>
        </g>
      </g>
      <g id="Group_15050" data-name="Group 15050" transform="translate(-6.026 92.296)">
        <g id="Ellipse_668-2" data-name="Ellipse 668" transform="translate(278.596 159.704)" fill="none" stroke="#000" stroke-width="1">
          <circle cx="24" cy="24" r="24" stroke="none"/>
          <circle cx="24" cy="24" r="23.5" fill="none"/>
        </g>
        <circle id="Ellipse_666-2" data-name="Ellipse 666" cx="22.5" cy="22.5" r="22.5" transform="translate(277.596 162.704)" fill="#4bb6e8"/>
      </g>
      <g id="Group_15052" data-name="Group 15052" transform="translate(-17.263 19.558)">
        <path id="Path_10511" data-name="Path 10511" d="M23.693,4H10.837A1.837,1.837,0,0,0,9,5.837V27.876a1.837,1.837,0,0,0,1.837,1.837H23.693a1.837,1.837,0,0,0,1.837-1.837V5.837A1.837,1.837,0,0,0,23.693,4Zm-5.51,23.876H16.346V26.039h1.837ZM10.837,24.2V5.837H23.693V24.2Z" transform="translate(295.068 240.586)" fill="#fff"/>
        <g id="wifi-svgrepo-com-2" data-name="wifi-svgrepo-com" transform="translate(306.281 251.092)">
          <g id="Group_15041-2" data-name="Group 15041" transform="translate(0 0)">
            <g id="Group_15037-2" data-name="Group 15037" transform="translate(1.752 2.483)">
              <path id="Path_10506-2" data-name="Path 10506" d="M80.384,165.88a.634.634,0,0,1-.451-.188,4.423,4.423,0,0,0-6.244,0,.638.638,0,1,1-.9-.9,5.7,5.7,0,0,1,8.049,0,.639.639,0,0,1-.451,1.091Z" transform="translate(-72.6 -163.125)" fill="#fff"/>
            </g>
            <g id="Group_15038-2" data-name="Group 15038" transform="translate(3.479 4.922)">
              <path id="Path_10507-2" data-name="Path 10507" d="M148.529,266.266a.634.634,0,0,1-.451-.188,1.975,1.975,0,0,0-2.789,0,.638.638,0,1,1-.9-.9,3.247,3.247,0,0,1,4.594,0,.637.637,0,0,1-.451,1.088Z" transform="translate(-144.2 -264.225)" fill="#fff"/>
            </g>
            <g id="Group_15039-2" data-name="Group 15039" transform="translate(5.111 7.32)">
              <circle id="Ellipse_667-2" data-name="Ellipse 667" cx="0.852" cy="0.852" r="0.852" fill="#fff"/>
            </g>
            <g id="Group_15040-2" data-name="Group 15040" transform="translate(0 0)">
              <path id="Path_10508-2" data-name="Path 10508" d="M11.29,63.709a.634.634,0,0,1-.451-.188,6.9,6.9,0,0,0-9.75,0,.638.638,0,0,1-.9-.9,8.172,8.172,0,0,1,11.557,0,.639.639,0,0,1,0,.9A.648.648,0,0,1,11.29,63.709Z" transform="translate(0 -60.225)" fill="#fff"/>
            </g>
          </g>
        </g>
      </g>
    </g>
    <g id="Group_23899" data-name="Group 23899">
      <g id="Group_15053" data-name="Group 15053" transform="translate(-70.861 188.189)">
        <rect id="Rectangle_3462-3" data-name="Rectangle 3462" width="36.529" height="12.176" rx="6.088" transform="matrix(0.695, -0.719, 0.719, 0.695, 93.717, 166.943)" fill="#f9f9f9"/>
        <rect id="Rectangle_3463-3" data-name="Rectangle 3463" width="71.653" height="12.176" rx="6.088" transform="matrix(0.695, -0.719, 0.719, 0.695, 90.861, 192.209)" fill="#f9f9f9"/>
        <rect id="Rectangle_3464-3" data-name="Rectangle 3464" width="71.653" height="12.176" rx="6.088" transform="matrix(0.695, -0.719, 0.719, 0.695, 111.701, 196.944)" fill="#f9f9f9"/>
        <rect id="Rectangle_3465-3" data-name="Rectangle 3465" width="66.659" height="11.328" rx="5.664" transform="matrix(0.695, -0.719, 0.719, 0.695, 122.168, 209.366)" fill="#f9f9f9"/>
        <g id="Ellipse_662-3" data-name="Ellipse 662" transform="translate(156.371 170.667)" fill="#fff" stroke="#707070" stroke-width="1">
          <circle cx="2.367" cy="2.367" r="2.367" stroke="none"/>
          <circle cx="2.367" cy="2.367" r="1.867" fill="none"/>
        </g>
        <circle id="Ellipse_663-2" data-name="Ellipse 663" cx="2.252" cy="2.252" r="2.252" transform="translate(107.196 150.595)" fill="#d4efff"/>
        <circle id="Ellipse_664-3" data-name="Ellipse 664" cx="2.366" cy="2.366" r="2.366" transform="translate(122.168 208.402)" fill="#d4efff"/>
        <g id="Ellipse_665-3" data-name="Ellipse 665" transform="translate(94.748 177.23)" fill="#fff" stroke="#707070" stroke-width="1">
          <circle cx="2.255" cy="2.255" r="2.255" stroke="none"/>
          <circle cx="2.255" cy="2.255" r="1.755" fill="none"/>
        </g>
      </g>
      <g id="Group_15054" data-name="Group 15054" transform="translate(-244.596 183.437)">
        <g id="Ellipse_668-3" data-name="Ellipse 668" transform="translate(278.596 159.704)" fill="none" stroke="#000" stroke-width="1">
          <circle cx="24" cy="24" r="24" stroke="none"/>
          <circle cx="24" cy="24" r="23.5" fill="none"/>
        </g>
        <circle id="Ellipse_666-3" data-name="Ellipse 666" cx="22.5" cy="22.5" r="22.5" transform="translate(277.596 162.704)" fill="#4bb6e8"/>
      </g>
      <text id="_30" data-name="30" transform="translate(47.637 368.14)" fill="#fff" font-size="14" font-family="Montserrat-Bold, Montserrat" font-weight="700"><tspan x="0" y="0">30</tspan></text>
      <g id="Group_15055" data-name="Group 15055" transform="translate(39.182 370.413)">
        <line id="Line_616" data-name="Line 616" y1="0.277" x2="33.592" transform="translate(0.727 4.087)" fill="none" stroke="#fff" stroke-width="2" stroke-dasharray="2"/>
        <line id="Line_617" data-name="Line 617" y2="8.727" transform="translate(0 0)" fill="none" stroke="#fff" stroke-width="2"/>
        <line id="Line_618" data-name="Line 618" y2="8.727" transform="translate(33.454 0)" fill="none" stroke="#fff" stroke-width="2"/>
      </g>
    </g>
    <line id="Line_619" data-name="Line 619" y2="15" transform="translate(57.5 217.5)" fill="none" stroke="#cfcfcf" stroke-width="1" stroke-dasharray="2"/>
    <line id="Line_624" data-name="Line 624" y2="15" transform="translate(57.5 319)" fill="none" stroke="#cfcfcf" stroke-width="1" stroke-dasharray="2"/>
    <line id="Line_621" data-name="Line 621" y2="15" transform="translate(297.5 232.5)" fill="none" stroke="#cfcfcf" stroke-width="1" stroke-dasharray="2"/>
    <line id="Line_622" data-name="Line 622" y2="15" transform="translate(297.5 304.5)" fill="none" stroke="#cfcfcf" stroke-width="1" stroke-dasharray="2"/>
    <line id="Line_620" data-name="Line 620" x1="240" transform="translate(57.5 232.5)" fill="none" stroke="#cfcfcf" stroke-width="1" stroke-dasharray="2"/>
    <line id="Line_623" data-name="Line 623" x1="240" transform="translate(57.5 318.5)" fill="none" stroke="#cfcfcf" stroke-width="1" stroke-dasharray="2"/>
    <circle id="Ellipse_669" data-name="Ellipse 669" cx="2.366" cy="2.366" r="2.366" transform="translate(295.134 245.134)" fill="#4bb6e8"/>
    <circle id="Ellipse_670" data-name="Ellipse 670" cx="2.366" cy="2.366" r="2.366" transform="translate(295.134 304.5)" fill="#4bb6e8"/>
    <circle id="Ellipse_671" data-name="Ellipse 671" cx="2.366" cy="2.366" r="2.366" transform="translate(55.135 331.634)" fill="#4bb6e8"/>
    <path id="Path_34788" data-name="Path 34788" d="M3.816.12c2.1,0,3.168-1.4,3.168-4.08S5.916-8.04,3.816-8.04.648-6.636.648-3.96,1.716.12,3.816.12Zm0-1.332C2.8-1.212,2.3-2.076,2.3-3.96S2.8-6.708,3.816-6.708s1.512.864,1.512,2.748S4.836-1.212,3.816-1.212ZM10.4-7.92A4.405,4.405,0,0,1,8-6.552L8.22-5.16a4.221,4.221,0,0,0,1.932-1.032,2.312,2.312,0,0,0-.012.288V0h1.608V-7.92Z" transform="translate(118 177)" fill="#4bb6e8"/>
    <path id="Path_34790" data-name="Path 34790" d="M3.816.12c2.1,0,3.168-1.4,3.168-4.08S5.916-8.04,3.816-8.04.648-6.636.648-3.96,1.716.12,3.816.12Zm0-1.332C2.8-1.212,2.3-2.076,2.3-3.96S2.8-6.708,3.816-6.708s1.512.864,1.512,2.748S4.836-1.212,3.816-1.212ZM11.04-8.04A2.636,2.636,0,0,0,8.184-6.12l1.476.54a1.206,1.206,0,0,1,1.308-1.128A1,1,0,0,1,12.1-5.592c0,.708-.432,1.056-1.3,1.056h-.336v1.152h.4c.948,0,1.4.276,1.416,1.02.012.7-.492,1.152-1.332,1.152A1.362,1.362,0,0,1,9.456-2.5l-1.5.672A2.778,2.778,0,0,0,10.932.12C12.684.12,13.9-.8,13.9-2.148a1.69,1.69,0,0,0-1.644-1.824v-.036A1.731,1.731,0,0,0,13.74-5.88C13.74-7.128,12.78-8.04,11.04-8.04Z" transform="translate(118 362)" fill="#4bb6e8"/>
    <path id="Path_34789" data-name="Path 34789" d="M3.816.12c2.1,0,3.168-1.4,3.168-4.08S5.916-8.04,3.816-8.04.648-6.636.648-3.96,1.716.12,3.816.12Zm0-1.332C2.8-1.212,2.3-2.076,2.3-3.96S2.8-6.708,3.816-6.708s1.512.864,1.512,2.748S4.836-1.212,3.816-1.212ZM8.412,0h5.712V-1.332H11.94c-.408,0-1.1.024-1.452.048V-1.3C12.888-2.772,14-4,14-5.52a2.546,2.546,0,0,0-2.856-2.52A2.7,2.7,0,0,0,8.16-5.472l1.428.54c.048-1.116.576-1.752,1.464-1.752a1.191,1.191,0,0,1,1.284,1.26c0,1.212-1.044,2.376-3.924,4.3Z" transform="translate(29 264)" fill="#4bb6e8"/>
  </g>
</svg>
