<svg xmlns="http://www.w3.org/2000/svg" width="324.33" height="260.708" viewBox="0 0 324.33 260.708">
  <g id="Group_23975" data-name="Group 23975" transform="translate(-20 -144.716)">
    <g id="Group_23897" data-name="Group 23897">
      <g id="Group_15048" data-name="Group 15048" transform="translate(-70.861 4.049)">
        <rect id="Rectangle_3462" data-name="Rectangle 3462" width="36.529" height="12.176" rx="6.088" transform="matrix(0.695, -0.719, 0.719, 0.695, 93.717, 166.943)" fill="#f9f9f9"/>
        <rect id="Rectangle_3463" data-name="Rectangle 3463" width="71.653" height="12.176" rx="6.088" transform="matrix(0.695, -0.719, 0.719, 0.695, 90.861, 192.209)" fill="#f9f9f9"/>
        <rect id="Rectangle_3464" data-name="Rectangle 3464" width="71.653" height="12.176" rx="6.088" transform="matrix(0.695, -0.719, 0.719, 0.695, 111.701, 196.944)" fill="#f9f9f9"/>
        <rect id="Rectangle_3465" data-name="Rectangle 3465" width="66.659" height="11.328" rx="5.664" transform="matrix(0.695, -0.719, 0.719, 0.695, 122.168, 209.366)" fill="#f9f9f9"/>
        <g id="Ellipse_662" data-name="Ellipse 662" transform="translate(156.371 170.667)" fill="#fff" stroke="#707070" stroke-width="1">
          <circle cx="2.367" cy="2.367" r="2.367" stroke="none"/>
          <circle cx="2.367" cy="2.367" r="1.867" fill="none"/>
        </g>
        <circle id="Ellipse_663" data-name="Ellipse 663" cx="2.252" cy="2.252" r="2.252" transform="translate(107.196 150.595)" fill="#d4efff"/>
        <circle id="Ellipse_664" data-name="Ellipse 664" cx="2.366" cy="2.366" r="2.366" transform="translate(126.168 208.402)" fill="#4bb6e8"/>
        <g id="Ellipse_665" data-name="Ellipse 665" transform="translate(94.748 177.23)" fill="#fff" stroke="#707070" stroke-width="1">
          <circle cx="2.255" cy="2.255" r="2.255" stroke="none"/>
          <circle cx="2.255" cy="2.255" r="1.755" fill="none"/>
        </g>
      </g>
      <g id="Group_15042" data-name="Group 15042" transform="translate(-244.596 -0.704)">
        <g id="Ellipse_668" data-name="Ellipse 668" transform="translate(278.596 159.704)" fill="none" stroke="#000" stroke-width="1">
          <circle cx="24" cy="24" r="24" stroke="none"/>
          <circle cx="24" cy="24" r="23.5" fill="none"/>
        </g>
        <circle id="Ellipse_666" data-name="Ellipse 666" cx="22.5" cy="22.5" r="22.5" transform="translate(277.596 162.704)" fill="#4bb6e8"/>
        <g id="wifi-svgrepo-com" transform="translate(288.895 175.658)">
          <g id="Group_15041" data-name="Group 15041" transform="translate(0 0)">
            <g id="Group_15037" data-name="Group 15037" transform="translate(3.607 5.113)">
              <path id="Path_10506" data-name="Path 10506" d="M88.631,168.8a1.306,1.306,0,0,1-.929-.388,9.108,9.108,0,0,0-12.86,0,1.314,1.314,0,0,1-1.858-1.858,11.732,11.732,0,0,1,16.576,0,1.317,1.317,0,0,1-.929,2.246Z" transform="translate(-72.6 -163.125)" fill="#fff"/>
            </g>
            <g id="Group_15038" data-name="Group 15038" transform="translate(7.165 10.137)">
              <path id="Path_10507" data-name="Path 10507" d="M153.115,268.429a1.306,1.306,0,0,1-.929-.388,4.067,4.067,0,0,0-5.744,0,1.314,1.314,0,0,1-1.858-1.858,6.688,6.688,0,0,1,9.461.005,1.312,1.312,0,0,1-.929,2.241Z" transform="translate(-144.2 -264.225)" fill="#fff"/>
            </g>
            <g id="Group_15039" data-name="Group 15039" transform="translate(10.525 15.076)">
              <circle id="Ellipse_667" data-name="Ellipse 667" cx="1.754" cy="1.754" r="1.754" fill="#fff"/>
            </g>
            <g id="Group_15040" data-name="Group 15040">
              <path id="Path_10508" data-name="Path 10508" d="M23.251,67.4a1.306,1.306,0,0,1-.929-.388,14.215,14.215,0,0,0-20.079,0A1.314,1.314,0,0,1,.384,65.154a16.83,16.83,0,0,1,23.8,0,1.317,1.317,0,0,1,0,1.858A1.334,1.334,0,0,1,23.251,67.4Z" transform="translate(0 -60.225)" fill="#fff"/>
            </g>
          </g>
        </g>
      </g>
    </g>
    <path id="Path_34786" data-name="Path 34786" d="M2.46-1.1V-3.456H5.94v-1.08H2.46v-2.28H6.912v-1.1H1.176V0h5.9V-1.1Zm9.4-5.016A2.136,2.136,0,0,0,9.828-4.992L9.768-6H8.628V0H9.912V-3.18c0-1.38.84-1.884,1.632-1.884.732,0,1.284.4,1.284,1.584V0h1.284V-3.888A2.078,2.078,0,0,0,11.856-6.12ZM18.228.12c1.656,0,2.616-.756,2.616-1.812,0-1-.612-1.512-2.328-1.824-1.128-.2-1.476-.432-1.476-.864,0-.372.5-.732,1.248-.732a1.544,1.544,0,0,1,1.6,1.02l.912-.672a2.418,2.418,0,0,0-2.52-1.356c-1.608,0-2.52.888-2.52,1.86,0,1.008.624,1.524,2.412,1.86,1.044.2,1.392.42,1.392.792,0,.408-.432.72-1.284.72a1.842,1.842,0,0,1-1.86-1l-.864.744A2.91,2.91,0,0,0,18.228.12ZM26.556-6v3.24a1.617,1.617,0,0,1-1.68,1.824c-.756,0-1.236-.336-1.236-1.452V-6H22.356v3.948A1.965,1.965,0,0,0,24.516.12,2.214,2.214,0,0,0,26.64-.972L26.7,0h1.14V-6Zm6.372-.12a1.87,1.87,0,0,0-1.884,1.188L30.924-6H29.832V0h1.284V-3.18a1.605,1.605,0,0,1,1.512-1.8,1.58,1.58,0,0,1,.756.156L33.588-6A1.582,1.582,0,0,0,32.928-6.12Zm7.08,2.94a2.652,2.652,0,0,0-2.784-2.94C35.352-6.12,34.3-4.956,34.3-3A2.813,2.813,0,0,0,37.308.12a2.59,2.59,0,0,0,2.58-1.392L38.82-1.716A1.438,1.438,0,0,1,37.308-.9a1.658,1.658,0,0,1-1.74-1.62H39.96A4.98,4.98,0,0,0,40.008-3.18ZM37.224-5.1c.9,0,1.464.588,1.584,1.6H35.58A1.581,1.581,0,0,1,37.224-5.1ZM50.664-6H49.332L48.084-2.34,47.676-1.1l-.348-1.128L46.008-6h-1.44L46.44-1.452,47.064.036,46.8.684c-.264.7-.6.864-1.044.864a1.176,1.176,0,0,1-.984-.432L44.4,2.1a1.916,1.916,0,0,0,1.416.48c1.08,0,1.692-.48,2.22-1.872Zm3.756-.12A2.806,2.806,0,0,0,51.432-3,2.806,2.806,0,0,0,54.42.12,2.806,2.806,0,0,0,57.408-3,2.806,2.806,0,0,0,54.42-6.12Zm0,1.008c1.08,0,1.7.756,1.7,2.112S55.5-.888,54.42-.888,52.728-1.644,52.728-3,53.34-5.112,54.42-5.112ZM63.2-6v3.24a1.617,1.617,0,0,1-1.68,1.824c-.756,0-1.236-.336-1.236-1.452V-6H59v3.948A1.965,1.965,0,0,0,61.164.12,2.214,2.214,0,0,0,63.288-.972l.06.972h1.14V-6Zm6.372-.12a1.87,1.87,0,0,0-1.884,1.188L67.572-6H66.48V0h1.284V-3.18a1.605,1.605,0,0,1,1.512-1.8,1.58,1.58,0,0,1,.756.156L70.236-6A1.582,1.582,0,0,0,69.576-6.12Zm12.756,0a2.275,2.275,0,0,0-2.076,1.2,2.1,2.1,0,0,0-2.016-1.2A2.162,2.162,0,0,0,76.3-5l-.06-1H75.1V0H76.38V-3.192c0-1.344.84-1.872,1.56-1.872s1.236.4,1.236,1.38V0H80.46V-3.264a1.606,1.606,0,0,1,1.56-1.8c.708,0,1.236.4,1.236,1.38V0H84.54V-3.888A2.082,2.082,0,0,0,82.332-6.12Zm6.792,0A2.806,2.806,0,0,0,86.136-3,2.806,2.806,0,0,0,89.124.12,2.806,2.806,0,0,0,92.112-3,2.806,2.806,0,0,0,89.124-6.12Zm0,1.008c1.08,0,1.7.756,1.7,2.112S90.2-.888,89.124-.888,87.432-1.644,87.432-3,88.044-5.112,89.124-5.112ZM96.972-6.12A2.121,2.121,0,0,0,95.04-5.028V-8.7H93.756V0h1.128l.06-1.1A2.175,2.175,0,0,0,96.984.12c1.632,0,2.652-1.152,2.652-3.108S98.6-6.12,96.972-6.12ZM96.7-.912c-1.008,0-1.656-.756-1.656-2.016v-.144c0-1.248.648-2,1.656-2,1.032,0,1.656.768,1.656,2.076S97.728-.912,96.7-.912Zm5.256-6.1a.753.753,0,0,0,.852-.8.745.745,0,0,0-.852-.792.754.754,0,0,0-.864.792A.762.762,0,0,0,101.952-7.008ZM102.588-6H101.3V0h1.284Zm3.252-2.7h-1.284v7.128c0,1.164.492,1.692,1.56,1.692a2.381,2.381,0,0,0,1-.2l.144-1.032a1.9,1.9,0,0,1-.792.156c-.48,0-.624-.2-.624-.792Zm7.86,5.52a2.652,2.652,0,0,0-2.784-2.94c-1.872,0-2.928,1.164-2.928,3.12A2.813,2.813,0,0,0,111,.12a2.59,2.59,0,0,0,2.58-1.392l-1.068-.444A1.438,1.438,0,0,1,111-.9a1.658,1.658,0,0,1-1.74-1.62h4.392A4.979,4.979,0,0,0,113.7-3.18ZM110.916-5.1c.9,0,1.464.588,1.584,1.6h-3.228A1.581,1.581,0,0,1,110.916-5.1Zm8.94-1.908a.753.753,0,0,0,.852-.8.745.745,0,0,0-.852-.792.754.754,0,0,0-.864.792A.762.762,0,0,0,119.856-7.008ZM120.492-6h-1.284V0h1.284ZM124.668.12c1.656,0,2.616-.756,2.616-1.812,0-1-.612-1.512-2.328-1.824-1.128-.2-1.476-.432-1.476-.864,0-.372.5-.732,1.248-.732a1.544,1.544,0,0,1,1.6,1.02l.912-.672a2.418,2.418,0,0,0-2.52-1.356c-1.608,0-2.52.888-2.52,1.86,0,1.008.624,1.524,2.412,1.86,1.044.2,1.392.42,1.392.792,0,.408-.432.72-1.284.72a1.842,1.842,0,0,1-1.86-1l-.864.744A2.91,2.91,0,0,0,124.668.12Zm10.716-6.24A2.806,2.806,0,0,0,132.4-3,2.813,2.813,0,0,0,135.408.12a2.524,2.524,0,0,0,2.628-1.788l-1.176-.4A1.364,1.364,0,0,1,135.384-.9c-1.056,0-1.692-.732-1.692-2.088s.624-2.112,1.692-2.112a1.359,1.359,0,0,1,1.4,1.14l1.2-.48A2.517,2.517,0,0,0,135.384-6.12Zm6.792,0A2.806,2.806,0,0,0,139.188-3,2.806,2.806,0,0,0,142.176.12,2.806,2.806,0,0,0,145.164-3,2.806,2.806,0,0,0,142.176-6.12Zm0,1.008c1.08,0,1.7.756,1.7,2.112s-.624,2.112-1.7,2.112S140.484-1.644,140.484-3,141.1-5.112,142.176-5.112Zm7.86-1.008a2.136,2.136,0,0,0-2.028,1.128L147.948-6h-1.14V0h1.284V-3.18c0-1.38.84-1.884,1.632-1.884.732,0,1.284.4,1.284,1.584V0h1.284V-3.888A2.078,2.078,0,0,0,150.036-6.12Zm7.428,0a2.136,2.136,0,0,0-2.028,1.128L155.376-6h-1.14V0h1.284V-3.18c0-1.38.84-1.884,1.632-1.884.732,0,1.284.4,1.284,1.584V0h1.284V-3.888A2.078,2.078,0,0,0,157.464-6.12Zm9.564,2.94a2.652,2.652,0,0,0-2.784-2.94c-1.872,0-2.928,1.164-2.928,3.12A2.813,2.813,0,0,0,164.328.12a2.59,2.59,0,0,0,2.58-1.392l-1.068-.444a1.438,1.438,0,0,1-1.512.816,1.658,1.658,0,0,1-1.74-1.62h4.392A4.979,4.979,0,0,0,167.028-3.18ZM164.244-5.1c.9,0,1.464.588,1.584,1.6H162.6A1.581,1.581,0,0,1,164.244-5.1Zm7.032-1.02A2.806,2.806,0,0,0,168.288-3,2.813,2.813,0,0,0,171.3.12a2.524,2.524,0,0,0,2.628-1.788l-1.176-.4A1.364,1.364,0,0,1,171.276-.9c-1.056,0-1.692-.732-1.692-2.088s.624-2.112,1.692-2.112a1.359,1.359,0,0,1,1.4,1.14l1.2-.48A2.517,2.517,0,0,0,171.276-6.12Zm7.74,4.788a1.369,1.369,0,0,1-.972.384.778.778,0,0,1-.876-.852V-4.992h2.1V-6h-2.1V-7.764l-1.284.36V-6h-1.14v1.008h1.14v3.408A1.607,1.607,0,0,0,177.72.12a2.47,2.47,0,0,0,1.6-.516ZM185.88-3.18A2.652,2.652,0,0,0,183.1-6.12c-1.872,0-2.928,1.164-2.928,3.12A2.813,2.813,0,0,0,183.18.12a2.59,2.59,0,0,0,2.58-1.392l-1.068-.444A1.438,1.438,0,0,1,183.18-.9a1.658,1.658,0,0,1-1.74-1.62h4.392A4.979,4.979,0,0,0,185.88-3.18ZM183.1-5.1c.9,0,1.464.588,1.584,1.6h-3.228A1.581,1.581,0,0,1,183.1-5.1Zm8.664-3.6v3.672a2.121,2.121,0,0,0-1.932-1.092c-1.632,0-2.664,1.164-2.664,3.132S188.184.12,189.816.12a2.191,2.191,0,0,0,2.028-1.2L191.916,0h1.128V-8.7ZM190.1-.912c-1.032,0-1.656-.78-1.656-2.088s.624-2.076,1.656-2.076c1.008,0,1.656.756,1.656,2v.144C191.76-1.668,191.112-.912,190.1-.912ZM2.7,25.232c0-.684.384-.972,1.056-.972a1.182,1.182,0,0,1,.684.18l.24-.936a1.923,1.923,0,0,0-1.128-.288,1.839,1.839,0,0,0-2.1,1.92V26H.324v1.008H1.452V32H2.736V27.008H4.644V26H2.7Zm5.6.648A2.806,2.806,0,0,0,5.316,29,2.806,2.806,0,0,0,8.3,32.12,2.806,2.806,0,0,0,11.292,29,2.806,2.806,0,0,0,8.3,25.88Zm0,1.008c1.08,0,1.7.756,1.7,2.112s-.624,2.112-1.7,2.112S6.612,30.356,6.612,29,7.224,26.888,8.3,26.888Zm7.728-1.008a1.87,1.87,0,0,0-1.884,1.188L14.028,26H12.936v6H14.22V28.82a1.605,1.605,0,0,1,1.512-1.8,1.58,1.58,0,0,1,.756.156l.2-1.176A1.582,1.582,0,0,0,16.032,25.88Zm8.916,4.788a1.369,1.369,0,0,1-.972.384A.778.778,0,0,1,23.1,30.2V27.008h2.1V26H23.1V24.236l-1.284.36V26h-1.14v1.008h1.14v3.408a1.607,1.607,0,0,0,1.836,1.7,2.47,2.47,0,0,0,1.6-.516Zm4.776-4.788a2.066,2.066,0,0,0-1.944,1.08V23.3H26.5V32H27.78V28.832c0-1.38.84-1.9,1.632-1.9.732,0,1.284.4,1.284,1.584V32H31.98V28.112A2.078,2.078,0,0,0,29.724,25.88Zm9.564,2.94A2.652,2.652,0,0,0,36.5,25.88c-1.872,0-2.928,1.164-2.928,3.12a2.813,2.813,0,0,0,3.012,3.12,2.59,2.59,0,0,0,2.58-1.392L38.1,30.284a1.438,1.438,0,0,1-1.512.816,1.658,1.658,0,0,1-1.74-1.62H39.24A4.98,4.98,0,0,0,39.288,28.82ZM36.5,26.9c.9,0,1.464.588,1.584,1.6H34.86A1.581,1.581,0,0,1,36.5,26.9ZM49.776,32h1.356l-2.988-7.92H46.608L43.62,32h1.32l.756-2.076h3.336Zm-3.708-3.12L47,26.312,47.34,25.2h.036l.36,1.14.912,2.544Zm9.516-3a2.175,2.175,0,0,0-2.04,1.224l-.06-1.1H52.356v8.52H53.64V31.028a2.121,2.121,0,0,0,1.932,1.092c1.632,0,2.664-1.164,2.664-3.132S57.216,25.88,55.584,25.88Zm-.288,5.2c-1.008,0-1.656-.756-1.656-2v-.144c0-1.26.648-2.016,1.656-2.016,1.032,0,1.656.78,1.656,2.088S56.328,31.076,55.3,31.076Zm7.836-5.2a2.175,2.175,0,0,0-2.04,1.224l-.06-1.1H59.9v8.52h1.284V31.028A2.121,2.121,0,0,0,63.12,32.12c1.632,0,2.664-1.164,2.664-3.132S64.764,25.88,63.132,25.88Zm-.288,5.2c-1.008,0-1.656-.756-1.656-2v-.144c0-1.26.648-2.016,1.656-2.016,1.032,0,1.656.78,1.656,2.088S63.876,31.076,62.844,31.076Z" transform="translate(52 264)" fill="#525968"/>
    <g id="Group_23898" data-name="Group 23898">
      <g id="Group_15049" data-name="Group 15049" transform="translate(167.708 97.049)">
        <rect id="Rectangle_3462-2" data-name="Rectangle 3462" width="36.529" height="12.176" rx="6.088" transform="matrix(0.695, -0.719, 0.719, 0.695, 93.717, 166.943)" fill="#f9f9f9"/>
        <rect id="Rectangle_3463-2" data-name="Rectangle 3463" width="71.653" height="12.176" rx="6.088" transform="matrix(0.695, -0.719, 0.719, 0.695, 90.861, 192.209)" fill="#f9f9f9"/>
        <rect id="Rectangle_3464-2" data-name="Rectangle 3464" width="71.653" height="12.176" rx="6.088" transform="matrix(0.695, -0.719, 0.719, 0.695, 111.701, 196.944)" fill="#f9f9f9"/>
        <rect id="Rectangle_3465-2" data-name="Rectangle 3465" width="66.659" height="11.328" rx="5.664" transform="matrix(0.695, -0.719, 0.719, 0.695, 122.168, 209.366)" fill="#f9f9f9"/>
        <g id="Ellipse_662-2" data-name="Ellipse 662" transform="translate(151.371 152.732)" fill="#fff" stroke="#707070" stroke-width="1">
          <circle cx="2.367" cy="2.367" r="2.367" stroke="none"/>
          <circle cx="2.367" cy="2.367" r="1.867" fill="none"/>
        </g>
        <circle id="Ellipse_664-2" data-name="Ellipse 664" cx="2.366" cy="2.366" r="2.366" transform="translate(161.168 181.402)" fill="#d4efff"/>
        <g id="Ellipse_665-2" data-name="Ellipse 665" transform="translate(99.748 196.158)" fill="#fff" stroke="#707070" stroke-width="1">
          <circle cx="2.255" cy="2.255" r="2.255" stroke="none"/>
          <circle cx="2.255" cy="2.255" r="1.755" fill="none"/>
        </g>
      </g>
      <g id="Group_15050" data-name="Group 15050" transform="translate(-6.026 92.296)">
        <g id="Ellipse_668-2" data-name="Ellipse 668" transform="translate(278.596 159.704)" fill="none" stroke="#000" stroke-width="1">
          <circle cx="24" cy="24" r="24" stroke="none"/>
          <circle cx="24" cy="24" r="23.5" fill="none"/>
        </g>
        <circle id="Ellipse_666-2" data-name="Ellipse 666" cx="22.5" cy="22.5" r="22.5" transform="translate(277.596 162.704)" fill="#4bb6e8"/>
      </g>
      <g id="Group_15052" data-name="Group 15052" transform="translate(-17.263 19.558)">
        <path id="Path_10511" data-name="Path 10511" d="M23.693,4H10.837A1.837,1.837,0,0,0,9,5.837V27.876a1.837,1.837,0,0,0,1.837,1.837H23.693a1.837,1.837,0,0,0,1.837-1.837V5.837A1.837,1.837,0,0,0,23.693,4Zm-5.51,23.876H16.346V26.039h1.837ZM10.837,24.2V5.837H23.693V24.2Z" transform="translate(295.068 240.586)" fill="#fff"/>
        <g id="wifi-svgrepo-com-2" data-name="wifi-svgrepo-com" transform="translate(306.281 251.092)">
          <g id="Group_15041-2" data-name="Group 15041" transform="translate(0 0)">
            <g id="Group_15037-2" data-name="Group 15037" transform="translate(1.752 2.483)">
              <path id="Path_10506-2" data-name="Path 10506" d="M80.384,165.88a.634.634,0,0,1-.451-.188,4.423,4.423,0,0,0-6.244,0,.638.638,0,1,1-.9-.9,5.7,5.7,0,0,1,8.049,0,.639.639,0,0,1-.451,1.091Z" transform="translate(-72.6 -163.125)" fill="#fff"/>
            </g>
            <g id="Group_15038-2" data-name="Group 15038" transform="translate(3.479 4.922)">
              <path id="Path_10507-2" data-name="Path 10507" d="M148.529,266.266a.634.634,0,0,1-.451-.188,1.975,1.975,0,0,0-2.789,0,.638.638,0,1,1-.9-.9,3.247,3.247,0,0,1,4.594,0,.637.637,0,0,1-.451,1.088Z" transform="translate(-144.2 -264.225)" fill="#fff"/>
            </g>
            <g id="Group_15039-2" data-name="Group 15039" transform="translate(5.111 7.32)">
              <circle id="Ellipse_667-2" data-name="Ellipse 667" cx="0.852" cy="0.852" r="0.852" fill="#fff"/>
            </g>
            <g id="Group_15040-2" data-name="Group 15040" transform="translate(0 0)">
              <path id="Path_10508-2" data-name="Path 10508" d="M11.29,63.709a.634.634,0,0,1-.451-.188,6.9,6.9,0,0,0-9.75,0,.638.638,0,0,1-.9-.9,8.172,8.172,0,0,1,11.557,0,.639.639,0,0,1,0,.9A.648.648,0,0,1,11.29,63.709Z" transform="translate(0 -60.225)" fill="#fff"/>
            </g>
          </g>
        </g>
      </g>
    </g>
    <g id="Group_23899" data-name="Group 23899">
      <g id="Group_15053" data-name="Group 15053" transform="translate(-70.861 188.189)">
        <rect id="Rectangle_3462-3" data-name="Rectangle 3462" width="36.529" height="12.176" rx="6.088" transform="matrix(0.695, -0.719, 0.719, 0.695, 93.717, 166.943)" fill="#f9f9f9"/>
        <rect id="Rectangle_3463-3" data-name="Rectangle 3463" width="71.653" height="12.176" rx="6.088" transform="matrix(0.695, -0.719, 0.719, 0.695, 90.861, 192.209)" fill="#f9f9f9"/>
        <rect id="Rectangle_3464-3" data-name="Rectangle 3464" width="71.653" height="12.176" rx="6.088" transform="matrix(0.695, -0.719, 0.719, 0.695, 111.701, 196.944)" fill="#f9f9f9"/>
        <rect id="Rectangle_3465-3" data-name="Rectangle 3465" width="66.659" height="11.328" rx="5.664" transform="matrix(0.695, -0.719, 0.719, 0.695, 122.168, 209.366)" fill="#f9f9f9"/>
        <g id="Ellipse_662-3" data-name="Ellipse 662" transform="translate(156.371 170.667)" fill="#fff" stroke="#707070" stroke-width="1">
          <circle cx="2.367" cy="2.367" r="2.367" stroke="none"/>
          <circle cx="2.367" cy="2.367" r="1.867" fill="none"/>
        </g>
        <circle id="Ellipse_663-2" data-name="Ellipse 663" cx="2.252" cy="2.252" r="2.252" transform="translate(107.196 150.595)" fill="#d4efff"/>
        <circle id="Ellipse_664-3" data-name="Ellipse 664" cx="2.366" cy="2.366" r="2.366" transform="translate(122.168 208.402)" fill="#d4efff"/>
        <g id="Ellipse_665-3" data-name="Ellipse 665" transform="translate(94.748 177.23)" fill="#fff" stroke="#707070" stroke-width="1">
          <circle cx="2.255" cy="2.255" r="2.255" stroke="none"/>
          <circle cx="2.255" cy="2.255" r="1.755" fill="none"/>
        </g>
      </g>
      <g id="Group_15054" data-name="Group 15054" transform="translate(-244.596 183.437)">
        <g id="Ellipse_668-3" data-name="Ellipse 668" transform="translate(278.596 159.704)" fill="none" stroke="#000" stroke-width="1">
          <circle cx="24" cy="24" r="24" stroke="none"/>
          <circle cx="24" cy="24" r="23.5" fill="none"/>
        </g>
        <circle id="Ellipse_666-3" data-name="Ellipse 666" cx="22.5" cy="22.5" r="22.5" transform="translate(277.596 162.704)" fill="#4bb6e8"/>
      </g>
      <path id="Path_34794" data-name="Path 34794" d="M.1-9.8v1.82h1.96V0H4.326V-9.8ZM6.216-3.066h3.962v-1.75H6.216Zm8.106,1.218,2.254-2.128c1.372-1.274,1.638-2.142,1.638-3.094,0-1.778-1.456-2.9-3.64-2.9a4.552,4.552,0,0,0-3.892,1.82l1.652,1.064a2.4,2.4,0,0,1,2.03-.98c1.036,0,1.568.448,1.568,1.218,0,.476-.154.98-1.022,1.806L11.13-1.47V0h7.406V-1.848Z" transform="translate(47.637 368.14)" fill="#fff"/>
      <g id="Group_15055" data-name="Group 15055" transform="translate(39.182 370.413)">
        <line id="Line_616" data-name="Line 616" y1="0.277" x2="33.592" transform="translate(0.727 4.087)" fill="none" stroke="#fff" stroke-width="2" stroke-dasharray="2"/>
        <line id="Line_617" data-name="Line 617" y2="8.727" transform="translate(0 0)" fill="none" stroke="#fff" stroke-width="2"/>
        <line id="Line_618" data-name="Line 618" y2="8.727" transform="translate(33.454 0)" fill="none" stroke="#fff" stroke-width="2"/>
      </g>
    </g>
    <line id="Line_619" data-name="Line 619" y2="15" transform="translate(57.5 217.5)" fill="none" stroke="#cfcfcf" stroke-width="1" stroke-dasharray="2"/>
    <line id="Line_624" data-name="Line 624" y2="15" transform="translate(57.5 319)" fill="none" stroke="#cfcfcf" stroke-width="1" stroke-dasharray="2"/>
    <line id="Line_621" data-name="Line 621" y2="15" transform="translate(297.5 232.5)" fill="none" stroke="#cfcfcf" stroke-width="1" stroke-dasharray="2"/>
    <line id="Line_622" data-name="Line 622" y2="15" transform="translate(297.5 304.5)" fill="none" stroke="#cfcfcf" stroke-width="1" stroke-dasharray="2"/>
    <line id="Line_620" data-name="Line 620" x1="240" transform="translate(57.5 232.5)" fill="none" stroke="#cfcfcf" stroke-width="1" stroke-dasharray="2"/>
    <line id="Line_623" data-name="Line 623" x1="240" transform="translate(57.5 318.5)" fill="none" stroke="#cfcfcf" stroke-width="1" stroke-dasharray="2"/>
    <circle id="Ellipse_669" data-name="Ellipse 669" cx="2.366" cy="2.366" r="2.366" transform="translate(295.134 245.134)" fill="#4bb6e8"/>
    <circle id="Ellipse_670" data-name="Ellipse 670" cx="2.366" cy="2.366" r="2.366" transform="translate(295.134 304.5)" fill="#4bb6e8"/>
    <circle id="Ellipse_671" data-name="Ellipse 671" cx="2.366" cy="2.366" r="2.366" transform="translate(55.135 331.634)" fill="#4bb6e8"/>
    <path id="Path_34788" data-name="Path 34788" d="M3.816.12c2.1,0,3.168-1.4,3.168-4.08S5.916-8.04,3.816-8.04.648-6.636.648-3.96,1.716.12,3.816.12Zm0-1.332C2.8-1.212,2.3-2.076,2.3-3.96S2.8-6.708,3.816-6.708s1.512.864,1.512,2.748S4.836-1.212,3.816-1.212ZM10.4-7.92A4.405,4.405,0,0,1,8-6.552L8.22-5.16a4.221,4.221,0,0,0,1.932-1.032,2.312,2.312,0,0,0-.012.288V0h1.608V-7.92Z" transform="translate(118 177)" fill="#4bb6e8"/>
    <path id="Path_34790" data-name="Path 34790" d="M3.816.12c2.1,0,3.168-1.4,3.168-4.08S5.916-8.04,3.816-8.04.648-6.636.648-3.96,1.716.12,3.816.12Zm0-1.332C2.8-1.212,2.3-2.076,2.3-3.96S2.8-6.708,3.816-6.708s1.512.864,1.512,2.748S4.836-1.212,3.816-1.212ZM11.04-8.04A2.636,2.636,0,0,0,8.184-6.12l1.476.54a1.206,1.206,0,0,1,1.308-1.128A1,1,0,0,1,12.1-5.592c0,.708-.432,1.056-1.3,1.056h-.336v1.152h.4c.948,0,1.4.276,1.416,1.02.012.7-.492,1.152-1.332,1.152A1.362,1.362,0,0,1,9.456-2.5l-1.5.672A2.778,2.778,0,0,0,10.932.12C12.684.12,13.9-.8,13.9-2.148a1.69,1.69,0,0,0-1.644-1.824v-.036A1.731,1.731,0,0,0,13.74-5.88C13.74-7.128,12.78-8.04,11.04-8.04Z" transform="translate(118 362)" fill="#4bb6e8"/>
    <path id="Path_34789" data-name="Path 34789" d="M3.816.12c2.1,0,3.168-1.4,3.168-4.08S5.916-8.04,3.816-8.04.648-6.636.648-3.96,1.716.12,3.816.12Zm0-1.332C2.8-1.212,2.3-2.076,2.3-3.96S2.8-6.708,3.816-6.708s1.512.864,1.512,2.748S4.836-1.212,3.816-1.212ZM8.412,0h5.712V-1.332H11.94c-.408,0-1.1.024-1.452.048V-1.3C12.888-2.772,14-4,14-5.52a2.546,2.546,0,0,0-2.856-2.52A2.7,2.7,0,0,0,8.16-5.472l1.428.54c.048-1.116.576-1.752,1.464-1.752a1.191,1.191,0,0,1,1.284,1.26c0,1.212-1.044,2.376-3.924,4.3Z" transform="translate(29 264)" fill="#4bb6e8"/>
    <g id="Group_25440" data-name="Group 25440">
      <path id="Path_34785" data-name="Path 34785" d="M9.276-7.92H7.4L5.82-3.336,5.256-1.452H5.232L4.68-3.336,3.084-7.92H1.176V0H2.364V-4.584l-.1-2.184H2.28L4.692,0H5.76L8.172-6.768h.012L8.1-4.584V0H9.276Zm7.3,7.08c-.324,0-.444-.144-.444-.444V-4c0-1.44-1.032-2.124-2.532-2.124a2.417,2.417,0,0,0-2.52,1.56l1,.528a1.486,1.486,0,0,1,1.548-1.08,1.113,1.113,0,0,1,1.224,1.188v.312l-1.524.276c-1.572.276-2.34.96-2.34,1.884,0,1.044.828,1.572,1.956,1.572a2.355,2.355,0,0,0,2.028-.9,1.076,1.076,0,0,0,1.224.9,1.863,1.863,0,0,0,.744-.144l.084-.864A1.738,1.738,0,0,1,16.572-.84Zm-3.36-.012c-.564,0-.9-.24-.9-.684,0-.48.408-.756,1.224-.912l1.308-.264v.72C14.844-1.272,14.016-.852,13.212-.852Zm5.664-6.156a.753.753,0,0,0,.852-.8.745.745,0,0,0-.852-.792.754.754,0,0,0-.864.792A.762.762,0,0,0,18.876-7.008ZM19.512-6H18.228V0h1.284Zm5.232-.12a2.136,2.136,0,0,0-2.028,1.128L22.656-6h-1.14V0H22.8V-3.18c0-1.38.84-1.884,1.632-1.884.732,0,1.284.4,1.284,1.584V0H27V-3.888A2.078,2.078,0,0,0,24.744-6.12ZM32.46-1.332a1.369,1.369,0,0,1-.972.384.778.778,0,0,1-.876-.852V-4.992h2.1V-6h-2.1V-7.764l-1.284.36V-6h-1.14v1.008h1.14v3.408A1.607,1.607,0,0,0,31.164.12,2.47,2.47,0,0,0,32.76-.4Zm6.72.492c-.324,0-.444-.144-.444-.444V-4c0-1.44-1.032-2.124-2.532-2.124a2.417,2.417,0,0,0-2.52,1.56l1,.528a1.486,1.486,0,0,1,1.548-1.08,1.113,1.113,0,0,1,1.224,1.188v.312l-1.524.276c-1.572.276-2.34.96-2.34,1.884,0,1.044.828,1.572,1.956,1.572a2.355,2.355,0,0,0,2.028-.9A1.076,1.076,0,0,0,38.8.12a1.863,1.863,0,0,0,.744-.144l.084-.864A1.738,1.738,0,0,1,39.18-.84ZM35.82-.852c-.564,0-.9-.24-.9-.684,0-.48.408-.756,1.224-.912l1.308-.264v.72C37.452-1.272,36.624-.852,35.82-.852Zm5.664-6.156a.753.753,0,0,0,.852-.8.745.745,0,0,0-.852-.792.754.754,0,0,0-.864.792A.762.762,0,0,0,41.484-7.008ZM42.12-6H40.836V0H42.12Zm5.232-.12a2.136,2.136,0,0,0-2.028,1.128L45.264-6h-1.14V0h1.284V-3.18c0-1.38.84-1.884,1.632-1.884.732,0,1.284.4,1.284,1.584V0h1.284V-3.888A2.078,2.078,0,0,0,47.352-6.12ZM60.636-.84c-.324,0-.444-.144-.444-.444V-4c0-1.44-1.032-2.124-2.532-2.124a2.417,2.417,0,0,0-2.52,1.56l1,.528a1.486,1.486,0,0,1,1.548-1.08,1.113,1.113,0,0,1,1.224,1.188v.312l-1.524.276c-1.572.276-2.34.96-2.34,1.884C55.044-.408,55.872.12,57,.12a2.355,2.355,0,0,0,2.028-.9,1.076,1.076,0,0,0,1.224.9A1.863,1.863,0,0,0,61-.024l.084-.864A1.738,1.738,0,0,1,60.636-.84Zm-3.36-.012c-.564,0-.9-.24-.9-.684,0-.48.408-.756,1.224-.912l1.308-.264v.72C58.908-1.272,58.08-.852,57.276-.852ZM70.236-8.7v3.672A2.121,2.121,0,0,0,68.3-6.12c-1.632,0-2.664,1.164-2.664,3.132S66.66.12,68.292.12a2.191,2.191,0,0,0,2.028-1.2L70.392,0H71.52V-8.7ZM68.58-.912c-1.032,0-1.656-.78-1.656-2.088s.624-2.076,1.656-2.076c1.008,0,1.656.756,1.656,2v.144C70.236-1.668,69.588-.912,68.58-.912Zm5.58-6.1a.753.753,0,0,0,.852-.8A.745.745,0,0,0,74.16-8.6a.754.754,0,0,0-.864.792A.762.762,0,0,0,74.16-7.008ZM74.8-6H73.512V0H74.8ZM78.972.12c1.656,0,2.616-.756,2.616-1.812,0-1-.612-1.512-2.328-1.824-1.128-.2-1.476-.432-1.476-.864,0-.372.5-.732,1.248-.732a1.544,1.544,0,0,1,1.6,1.02l.912-.672A2.418,2.418,0,0,0,79.02-6.12c-1.608,0-2.52.888-2.52,1.86,0,1.008.624,1.524,2.412,1.86,1.044.2,1.392.42,1.392.792,0,.408-.432.72-1.284.72a1.842,1.842,0,0,1-1.86-1L76.3-1.14A2.91,2.91,0,0,0,78.972.12Zm7.764-1.452a1.369,1.369,0,0,1-.972.384.778.778,0,0,1-.876-.852V-4.992h2.1V-6h-2.1V-7.764L83.6-7.4V-6h-1.14v1.008H83.6v3.408A1.607,1.607,0,0,0,85.44.12a2.47,2.47,0,0,0,1.6-.516Zm6.72.492c-.324,0-.444-.144-.444-.444V-4c0-1.44-1.032-2.124-2.532-2.124a2.417,2.417,0,0,0-2.52,1.56l1,.528A1.486,1.486,0,0,1,90.5-5.112a1.113,1.113,0,0,1,1.224,1.188v.312L90.2-3.336c-1.572.276-2.34.96-2.34,1.884,0,1.044.828,1.572,1.956,1.572a2.355,2.355,0,0,0,2.028-.9,1.076,1.076,0,0,0,1.224.9,1.863,1.863,0,0,0,.744-.144L93.9-.888A1.738,1.738,0,0,1,93.456-.84ZM90.1-.852c-.564,0-.9-.24-.9-.684,0-.48.408-.756,1.224-.912l1.308-.264v.72C91.728-1.272,90.9-.852,90.1-.852ZM98.34-6.12a2.136,2.136,0,0,0-2.028,1.128L96.252-6h-1.14V0H96.4V-3.18c0-1.38.84-1.884,1.632-1.884.732,0,1.284.4,1.284,1.584V0H100.6V-3.888A2.078,2.078,0,0,0,98.34-6.12Zm6.84,0A2.806,2.806,0,0,0,102.192-3,2.813,2.813,0,0,0,105.2.12a2.524,2.524,0,0,0,2.628-1.788l-1.176-.4A1.364,1.364,0,0,1,105.18-.9c-1.056,0-1.692-.732-1.692-2.088S104.112-5.1,105.18-5.1a1.359,1.359,0,0,1,1.4,1.14l1.2-.48A2.517,2.517,0,0,0,105.18-6.12ZM114.7-3.18a2.652,2.652,0,0,0-2.784-2.94c-1.872,0-2.928,1.164-2.928,3.12A2.813,2.813,0,0,0,112,.12a2.59,2.59,0,0,0,2.58-1.392l-1.068-.444A1.438,1.438,0,0,1,112-.9a1.658,1.658,0,0,1-1.74-1.62h4.392A4.979,4.979,0,0,0,114.7-3.18ZM111.912-5.1c.9,0,1.464.588,1.584,1.6h-3.228A1.581,1.581,0,0,1,111.912-5.1Zm10.932-1.02A2.806,2.806,0,0,0,119.856-3,2.806,2.806,0,0,0,122.844.12,2.806,2.806,0,0,0,125.832-3,2.806,2.806,0,0,0,122.844-6.12Zm0,1.008c1.08,0,1.7.756,1.7,2.112s-.624,2.112-1.7,2.112S121.152-1.644,121.152-3,121.764-5.112,122.844-5.112ZM129.1-6.768c0-.684.384-.972,1.056-.972a1.182,1.182,0,0,1,.684.18l.24-.936a1.923,1.923,0,0,0-1.128-.288,1.839,1.839,0,0,0-2.1,1.92V-6H126.72v1.008h1.128V0h1.284V-4.992h1.908V-6H129.1Zm13.836.648a2.275,2.275,0,0,0-2.076,1.2,2.1,2.1,0,0,0-2.016-1.2A2.162,2.162,0,0,0,136.9-5l-.06-1H135.7V0h1.284V-3.192c0-1.344.84-1.872,1.56-1.872s1.236.4,1.236,1.38V0h1.284V-3.264a1.606,1.606,0,0,1,1.56-1.8c.708,0,1.236.4,1.236,1.38V0h1.284V-3.888A2.082,2.082,0,0,0,142.932-6.12Zm4.8-.888a.753.753,0,0,0,.852-.8.745.745,0,0,0-.852-.792.754.754,0,0,0-.864.792A.762.762,0,0,0,147.732-7.008ZM148.368-6h-1.284V0h1.284Zm5.232-.12a2.136,2.136,0,0,0-2.028,1.128L151.512-6h-1.14V0h1.284V-3.18c0-1.38.84-1.884,1.632-1.884.732,0,1.284.4,1.284,1.584V0h1.284V-3.888A2.078,2.078,0,0,0,153.6-6.12Zm4.848-.888a.753.753,0,0,0,.852-.8.745.745,0,0,0-.852-.792.754.754,0,0,0-.864.792A.762.762,0,0,0,158.448-7.008ZM159.084-6H157.8V0h1.284Zm9.24-.12a2.275,2.275,0,0,0-2.076,1.2,2.1,2.1,0,0,0-2.016-1.2A2.162,2.162,0,0,0,162.288-5l-.06-1h-1.14V0h1.284V-3.192c0-1.344.84-1.872,1.56-1.872s1.236.4,1.236,1.38V0h1.284V-3.264a1.606,1.606,0,0,1,1.56-1.8c.708,0,1.236.4,1.236,1.38V0h1.284V-3.888A2.082,2.082,0,0,0,168.324-6.12Zm8.3.12v3.24a1.617,1.617,0,0,1-1.68,1.824c-.756,0-1.236-.336-1.236-1.452V-6h-1.284v3.948A1.965,1.965,0,0,0,174.588.12a2.214,2.214,0,0,0,2.124-1.092l.06.972h1.14V-6Zm10.512-.12a2.275,2.275,0,0,0-2.076,1.2,2.1,2.1,0,0,0-2.016-1.2A2.162,2.162,0,0,0,181.1-5l-.06-1H179.9V0h1.284V-3.192c0-1.344.84-1.872,1.56-1.872s1.236.4,1.236,1.38V0h1.284V-3.264a1.606,1.606,0,0,1,1.56-1.8c.708,0,1.236.4,1.236,1.38V0h1.284V-3.888A2.082,2.082,0,0,0,187.14-6.12ZM61.86,9.88a2.121,2.121,0,0,0-1.932,1.092V7.3H58.644V16h1.128l.06-1.1a2.175,2.175,0,0,0,2.04,1.224c1.632,0,2.652-1.152,2.652-3.108S63.492,9.88,61.86,9.88Zm-.276,5.208c-1.008,0-1.656-.756-1.656-2.016v-.144c0-1.248.648-2,1.656-2,1.032,0,1.656.768,1.656,2.076S62.616,15.088,61.584,15.088Zm9.972-2.268a2.652,2.652,0,0,0-2.784-2.94c-1.872,0-2.928,1.164-2.928,3.12a2.813,2.813,0,0,0,3.012,3.12,2.59,2.59,0,0,0,2.58-1.392l-1.068-.444a1.438,1.438,0,0,1-1.512.816,1.658,1.658,0,0,1-1.74-1.62h4.392A4.979,4.979,0,0,0,71.556,12.82ZM68.772,10.9c.9,0,1.464.588,1.584,1.6H67.128A1.581,1.581,0,0,1,68.772,10.9Zm7.836,3.768a1.369,1.369,0,0,1-.972.384.778.778,0,0,1-.876-.852V11.008h2.1V10h-2.1V8.236l-1.284.36V10h-1.14v1.008h1.14v3.408a1.607,1.607,0,0,0,1.836,1.7,2.47,2.47,0,0,0,1.6-.516ZM85.836,10,84.48,14.788,82.98,10H81.708l-1.5,4.788L78.852,10H77.46l2,6h1.4l1.44-4.536L83.82,16h1.4l2-6Zm7.908,2.82A2.652,2.652,0,0,0,90.96,9.88c-1.872,0-2.928,1.164-2.928,3.12a2.813,2.813,0,0,0,3.012,3.12,2.59,2.59,0,0,0,2.58-1.392l-1.068-.444a1.438,1.438,0,0,1-1.512.816,1.658,1.658,0,0,1-1.74-1.62H93.7A4.979,4.979,0,0,0,93.744,12.82ZM90.96,10.9c.9,0,1.464.588,1.584,1.6H89.316A1.581,1.581,0,0,1,90.96,10.9Zm9.756,1.92a2.652,2.652,0,0,0-2.784-2.94C96.06,9.88,95,11.044,95,13a2.813,2.813,0,0,0,3.012,3.12,2.59,2.59,0,0,0,2.58-1.392l-1.068-.444a1.438,1.438,0,0,1-1.512.816,1.658,1.658,0,0,1-1.74-1.62h4.392A4.979,4.979,0,0,0,100.716,12.82ZM97.932,10.9c.9,0,1.464.588,1.584,1.6H96.288A1.581,1.581,0,0,1,97.932,10.9Zm7.62-1.02a2.136,2.136,0,0,0-2.028,1.128L103.464,10h-1.14v6h1.284V12.82c0-1.38.84-1.884,1.632-1.884.732,0,1.284.4,1.284,1.584V16h1.284V12.112A2.078,2.078,0,0,0,105.552,9.88Zm15.336,0a2.275,2.275,0,0,0-2.076,1.2,2.1,2.1,0,0,0-2.016-1.2A2.162,2.162,0,0,0,114.852,11l-.06-1h-1.14v6h1.284V12.808c0-1.344.84-1.872,1.56-1.872s1.236.4,1.236,1.38V16h1.284V12.736a1.606,1.606,0,0,1,1.56-1.8c.708,0,1.236.4,1.236,1.38V16H123.1V12.112A2.082,2.082,0,0,0,120.888,9.88Zm6.792,0A2.806,2.806,0,0,0,124.692,13a2.991,2.991,0,1,0,5.976,0A2.806,2.806,0,0,0,127.68,9.88Zm0,1.008c1.08,0,1.7.756,1.7,2.112s-.624,2.112-1.7,2.112-1.692-.756-1.692-2.112S126.6,10.888,127.68,10.888Zm7.848-1.008a2.12,2.12,0,0,0-1.932,1.092V7.3h-1.284V16h1.128l.06-1.1a2.175,2.175,0,0,0,2.04,1.224c1.632,0,2.652-1.152,2.652-3.108S137.16,9.88,135.528,9.88Zm-.276,5.208c-1.008,0-1.656-.756-1.656-2.016v-.144c0-1.248.648-2,1.656-2,1.032,0,1.656.768,1.656,2.076S136.284,15.088,135.252,15.088Zm5.256-6.1a.753.753,0,0,0,.852-.8.745.745,0,0,0-.852-.792.754.754,0,0,0-.864.792A.762.762,0,0,0,140.508,8.992ZM141.144,10H139.86v6h1.284ZM144.4,7.3h-1.284v7.128c0,1.164.492,1.692,1.56,1.692a2.381,2.381,0,0,0,1-.2l.144-1.032a1.9,1.9,0,0,1-.792.156c-.48,0-.624-.2-.624-.792Zm7.86,5.52a2.652,2.652,0,0,0-2.784-2.94c-1.872,0-2.928,1.164-2.928,3.12a2.813,2.813,0,0,0,3.012,3.12,2.59,2.59,0,0,0,2.58-1.392l-1.068-.444a1.438,1.438,0,0,1-1.512.816,1.658,1.658,0,0,1-1.74-1.62h4.392A4.98,4.98,0,0,0,152.256,12.82Zm-2.784-1.92c.9,0,1.464.588,1.584,1.6h-3.228A1.581,1.581,0,0,1,149.472,10.9Zm13.476,4.26c-.324,0-.444-.144-.444-.444V12c0-1.44-1.032-2.124-2.532-2.124a2.417,2.417,0,0,0-2.52,1.56l1,.528A1.486,1.486,0,0,1,160,10.888a1.113,1.113,0,0,1,1.224,1.188v.312l-1.524.276c-1.572.276-2.34.96-2.34,1.884,0,1.044.828,1.572,1.956,1.572a2.355,2.355,0,0,0,2.028-.9,1.076,1.076,0,0,0,1.224.9,1.863,1.863,0,0,0,.744-.144l.084-.864A1.738,1.738,0,0,1,162.948,15.16Zm-3.36-.012c-.564,0-.9-.24-.9-.684,0-.48.408-.756,1.224-.912l1.308-.264v.72C161.22,14.728,160.392,15.148,159.588,15.148Zm8.244-5.268a2.136,2.136,0,0,0-2.028,1.128L165.744,10H164.6v6h1.284V12.82c0-1.38.84-1.884,1.632-1.884.732,0,1.284.4,1.284,1.584V16h1.284V12.112A2.078,2.078,0,0,0,167.832,9.88ZM176.3,7.3v3.672a2.121,2.121,0,0,0-1.932-1.092c-1.632,0-2.664,1.164-2.664,3.132s1.02,3.108,2.652,3.108a2.191,2.191,0,0,0,2.028-1.2L176.46,16h1.128V7.3Zm-1.656,7.788c-1.032,0-1.656-.78-1.656-2.088s.624-2.076,1.656-2.076c1.008,0,1.656.756,1.656,2v.144C176.3,14.332,175.656,15.088,174.648,15.088ZM6.4,26H5.064L3.816,29.66,3.408,30.9,3.06,29.768,1.74,26H.3l1.872,4.548L2.8,32.036l-.264.648c-.264.7-.6.864-1.044.864A1.176,1.176,0,0,1,.5,33.116L.132,34.1a1.916,1.916,0,0,0,1.416.48c1.08,0,1.692-.48,2.22-1.872Zm3.756-.12A2.806,2.806,0,0,0,7.164,29a2.806,2.806,0,0,0,2.988,3.12A2.806,2.806,0,0,0,13.14,29,2.806,2.806,0,0,0,10.152,25.88Zm0,1.008c1.08,0,1.7.756,1.7,2.112s-.624,2.112-1.7,2.112S8.46,30.356,8.46,29,9.072,26.888,10.152,26.888ZM18.936,26v3.24a1.617,1.617,0,0,1-1.68,1.824c-.756,0-1.236-.336-1.236-1.452V26H14.736v3.948A1.965,1.965,0,0,0,16.9,32.12a2.214,2.214,0,0,0,2.124-1.092l.06.972h1.14V26Zm6.372-.12a1.87,1.87,0,0,0-1.884,1.188L23.3,26H22.212v6H23.5V28.82a1.605,1.605,0,0,1,1.512-1.8,1.58,1.58,0,0,1,.756.156l.2-1.176A1.582,1.582,0,0,0,25.308,25.88ZM35.1,23.3v3.672a2.121,2.121,0,0,0-1.932-1.092c-1.632,0-2.664,1.164-2.664,3.132s1.02,3.108,2.652,3.108a2.191,2.191,0,0,0,2.028-1.2L35.256,32h1.128V23.3Zm-1.656,7.788c-1.032,0-1.656-.78-1.656-2.088s.624-2.076,1.656-2.076c1.008,0,1.656.756,1.656,2v.144C35.1,30.332,34.452,31.088,33.444,31.088Zm10.3-2.268a2.652,2.652,0,0,0-2.784-2.94c-1.872,0-2.928,1.164-2.928,3.12a2.813,2.813,0,0,0,3.012,3.12,2.59,2.59,0,0,0,2.58-1.392l-1.068-.444a1.438,1.438,0,0,1-1.512.816,1.658,1.658,0,0,1-1.74-1.62h4.392A4.98,4.98,0,0,0,43.74,28.82ZM40.956,26.9c.9,0,1.464.588,1.584,1.6H39.312A1.581,1.581,0,0,1,40.956,26.9Zm8.16-.9-1.74,4.956L45.684,26H44.268l2.4,6h1.4l2.388-6ZM52.2,24.992a.753.753,0,0,0,.852-.8A.745.745,0,0,0,52.2,23.4a.754.754,0,0,0-.864.792A.762.762,0,0,0,52.2,24.992ZM52.836,26H51.552v6h1.284Zm4.644-.12A2.806,2.806,0,0,0,54.492,29,2.813,2.813,0,0,0,57.5,32.12a2.524,2.524,0,0,0,2.628-1.788l-1.176-.4A1.364,1.364,0,0,1,57.48,31.1c-1.056,0-1.692-.732-1.692-2.088S56.412,26.9,57.48,26.9a1.359,1.359,0,0,1,1.4,1.14l1.2-.48A2.517,2.517,0,0,0,57.48,25.88ZM67,28.82a2.652,2.652,0,0,0-2.784-2.94c-1.872,0-2.928,1.164-2.928,3.12A2.813,2.813,0,0,0,64.3,32.12a2.59,2.59,0,0,0,2.58-1.392l-1.068-.444A1.438,1.438,0,0,1,64.3,31.1a1.658,1.658,0,0,1-1.74-1.62h4.392A4.979,4.979,0,0,0,67,28.82ZM64.212,26.9c.9,0,1.464.588,1.584,1.6H62.568A1.581,1.581,0,0,1,64.212,26.9Z" transform="translate(141 362.14)" fill="#525968"/>
      <path id="Path_34791" data-name="Path 34791" d="M2.808-7.92a4.75,4.75,0,0,1-2.4,1.4L.648-5.4a4.341,4.341,0,0,0,2-1.092c-.012.228-.024.444-.024.636V0h1.26V-7.92Zm7.344,4.164H6.06v1.188h4.092ZM11.532,0H17.04V-1.1h-2.5c-.324,0-1.008.024-1.308.048V-1.08c2.628-1.68,3.66-2.952,3.66-4.464a2.487,2.487,0,0,0-2.748-2.5A2.638,2.638,0,0,0,11.28-5.58l1.116.516c.084-1.152.684-1.86,1.68-1.86a1.374,1.374,0,0,1,1.5,1.428c0,1.32-1.008,2.412-4.044,4.548ZM25.968-6.12a2.275,2.275,0,0,0-2.076,1.2,2.1,2.1,0,0,0-2.016-1.2A2.162,2.162,0,0,0,19.932-5l-.06-1h-1.14V0h1.284V-3.192c0-1.344.84-1.872,1.56-1.872s1.236.4,1.236,1.38V0H24.1V-3.264a1.606,1.606,0,0,1,1.56-1.8c.708,0,1.236.4,1.236,1.38V0h1.284V-3.888A2.082,2.082,0,0,0,25.968-6.12Zm9.516,2.94A2.652,2.652,0,0,0,32.7-6.12c-1.872,0-2.928,1.164-2.928,3.12A2.813,2.813,0,0,0,32.784.12a2.59,2.59,0,0,0,2.58-1.392L34.3-1.716A1.438,1.438,0,0,1,32.784-.9a1.658,1.658,0,0,1-1.74-1.62h4.392A4.98,4.98,0,0,0,35.484-3.18ZM32.7-5.1c.9,0,1.464.588,1.584,1.6H31.056A1.581,1.581,0,0,1,32.7-5.1Zm7.836,3.768a1.369,1.369,0,0,1-.972.384.778.778,0,0,1-.876-.852V-4.992h2.1V-6h-2.1V-7.764L37.4-7.4V-6h-1.14v1.008H37.4v3.408A1.607,1.607,0,0,0,39.24.12a2.47,2.47,0,0,0,1.6-.516ZM47.4-3.18a2.652,2.652,0,0,0-2.784-2.94c-1.872,0-2.928,1.164-2.928,3.12A2.813,2.813,0,0,0,44.7.12a2.59,2.59,0,0,0,2.58-1.392l-1.068-.444A1.438,1.438,0,0,1,44.7-.9a1.658,1.658,0,0,1-1.74-1.62h4.392A4.98,4.98,0,0,0,47.4-3.18ZM44.616-5.1c.9,0,1.464.588,1.584,1.6H42.972A1.581,1.581,0,0,1,44.616-5.1ZM52.1-6.12A1.87,1.87,0,0,0,50.22-4.932L50.1-6H49.008V0h1.284V-3.18A1.605,1.605,0,0,1,51.8-4.98a1.58,1.58,0,0,1,.756.156L52.764-6A1.582,1.582,0,0,0,52.1-6.12Z" transform="translate(141 378)" fill="#525968"/>
    </g>
    <path id="Path_34792" data-name="Path 34792" d="M4.584-1.332a1.369,1.369,0,0,1-.972.384A.778.778,0,0,1,2.736-1.8V-4.992h2.1V-6h-2.1V-7.764L1.452-7.4V-6H.312v1.008h1.14v3.408A1.607,1.607,0,0,0,3.288.12,2.47,2.47,0,0,0,4.884-.4ZM8.724-6.12A2.806,2.806,0,0,0,5.736-3,2.806,2.806,0,0,0,8.724.12,2.806,2.806,0,0,0,11.712-3,2.806,2.806,0,0,0,8.724-6.12Zm0,1.008c1.08,0,1.7.756,1.7,2.112S9.8-.888,8.724-.888,7.032-1.644,7.032-3,7.644-5.112,8.724-5.112Zm11.928,3.78a1.369,1.369,0,0,1-.972.384A.778.778,0,0,1,18.8-1.8V-4.992h2.1V-6H18.8V-7.764L17.52-7.4V-6H16.38v1.008h1.14v3.408A1.607,1.607,0,0,0,19.356.12a2.47,2.47,0,0,0,1.6-.516ZM25.428-6.12a2.066,2.066,0,0,0-1.944,1.08V-8.7H22.2V0h1.284V-3.168c0-1.38.84-1.9,1.632-1.9.732,0,1.284.4,1.284,1.584V0h1.284V-3.888A2.078,2.078,0,0,0,25.428-6.12Zm9.564,2.94a2.652,2.652,0,0,0-2.784-2.94C30.336-6.12,29.28-4.956,29.28-3A2.813,2.813,0,0,0,32.292.12a2.59,2.59,0,0,0,2.58-1.392L33.8-1.716A1.438,1.438,0,0,1,32.292-.9a1.658,1.658,0,0,1-1.74-1.62h4.392A4.98,4.98,0,0,0,34.992-3.18ZM32.208-5.1c.9,0,1.464.588,1.584,1.6H30.564A1.581,1.581,0,0,1,32.208-5.1Zm8.94-1.908a.753.753,0,0,0,.852-.8.745.745,0,0,0-.852-.792.754.754,0,0,0-.864.792A.762.762,0,0,0,41.148-7.008ZM41.784-6H40.5V0h1.284Zm5.232-.12a2.136,2.136,0,0,0-2.028,1.128L44.928-6h-1.14V0h1.284V-3.18c0-1.38.84-1.884,1.632-1.884.732,0,1.284.4,1.284,1.584V0h1.284V-3.888A2.078,2.078,0,0,0,47.016-6.12Zm7.716,4.788a1.369,1.369,0,0,1-.972.384.778.778,0,0,1-.876-.852V-4.992h2.1V-6h-2.1V-7.764L51.6-7.4V-6H50.46v1.008H51.6v3.408A1.607,1.607,0,0,0,53.436.12a2.47,2.47,0,0,0,1.6-.516ZM61.6-3.18a2.652,2.652,0,0,0-2.784-2.94c-1.872,0-2.928,1.164-2.928,3.12A2.813,2.813,0,0,0,58.9.12a2.59,2.59,0,0,0,2.58-1.392l-1.068-.444A1.438,1.438,0,0,1,58.9-.9a1.658,1.658,0,0,1-1.74-1.62h4.392A4.98,4.98,0,0,0,61.6-3.18ZM58.812-5.1c.9,0,1.464.588,1.584,1.6H57.168A1.581,1.581,0,0,1,58.812-5.1ZM66.3-6.12a1.87,1.87,0,0,0-1.884,1.188L64.3-6H63.2V0h1.284V-3.18A1.605,1.605,0,0,1,66-4.98a1.58,1.58,0,0,1,.756.156L66.96-6A1.582,1.582,0,0,0,66.3-6.12Zm5.1,0a2.136,2.136,0,0,0-2.028,1.128L69.312-6h-1.14V0h1.284V-3.18c0-1.38.84-1.884,1.632-1.884.732,0,1.284.4,1.284,1.584V0h1.284V-3.888A2.078,2.078,0,0,0,71.4-6.12Zm9.564,2.94A2.652,2.652,0,0,0,78.18-6.12c-1.872,0-2.928,1.164-2.928,3.12A2.813,2.813,0,0,0,78.264.12a2.59,2.59,0,0,0,2.58-1.392l-1.068-.444A1.438,1.438,0,0,1,78.264-.9a1.658,1.658,0,0,1-1.74-1.62h4.392A4.981,4.981,0,0,0,80.964-3.18ZM78.18-5.1c.9,0,1.464.588,1.584,1.6H76.536A1.581,1.581,0,0,1,78.18-5.1Zm7.836,3.768a1.369,1.369,0,0,1-.972.384.778.778,0,0,1-.876-.852V-4.992h2.1V-6h-2.1V-7.764l-1.284.36V-6h-1.14v1.008h1.14v3.408A1.607,1.607,0,0,0,84.72.12a2.47,2.47,0,0,0,1.6-.516Zm8.8,0a1.369,1.369,0,0,1-.972.384.778.778,0,0,1-.876-.852V-4.992h2.1V-6h-2.1V-7.764L91.68-7.4V-6H90.54v1.008h1.14v3.408A1.607,1.607,0,0,0,93.516.12a2.47,2.47,0,0,0,1.6-.516ZM99.588-6.12a2.066,2.066,0,0,0-1.944,1.08V-8.7H96.36V0h1.284V-3.168c0-1.38.84-1.9,1.632-1.9.732,0,1.284.4,1.284,1.584V0h1.284V-3.888A2.078,2.078,0,0,0,99.588-6.12Zm9.384,5.28c-.324,0-.444-.144-.444-.444V-4c0-1.44-1.032-2.124-2.532-2.124a2.417,2.417,0,0,0-2.52,1.56l1,.528a1.486,1.486,0,0,1,1.548-1.08,1.113,1.113,0,0,1,1.224,1.188v.312l-1.524.276c-1.572.276-2.34.96-2.34,1.884,0,1.044.828,1.572,1.956,1.572a2.355,2.355,0,0,0,2.028-.9,1.076,1.076,0,0,0,1.224.9,1.863,1.863,0,0,0,.744-.144l.084-.864A1.738,1.738,0,0,1,108.972-.84Zm-3.36-.012c-.564,0-.9-.24-.9-.684,0-.48.408-.756,1.224-.912l1.308-.264v.72C107.244-1.272,106.416-.852,105.612-.852Zm8.364-.48A1.369,1.369,0,0,1,113-.948a.778.778,0,0,1-.876-.852V-4.992h2.1V-6h-2.1V-7.764l-1.284.36V-6H109.7v1.008h1.14v3.408A1.607,1.607,0,0,0,112.68.12a2.47,2.47,0,0,0,1.6-.516ZM124.524-6h-1.332l-1.248,3.66L121.536-1.1l-.348-1.128L119.868-6h-1.44L120.3-1.452l.624,1.488-.264.648c-.264.7-.6.864-1.044.864a1.176,1.176,0,0,1-.984-.432l-.372.984a1.916,1.916,0,0,0,1.416.48c1.08,0,1.692-.48,2.22-1.872Zm3.756-.12A2.806,2.806,0,0,0,125.292-3,2.806,2.806,0,0,0,128.28.12,2.806,2.806,0,0,0,131.268-3,2.806,2.806,0,0,0,128.28-6.12Zm0,1.008c1.08,0,1.7.756,1.7,2.112s-.624,2.112-1.7,2.112S126.588-1.644,126.588-3,127.2-5.112,128.28-5.112ZM137.064-6v3.24a1.617,1.617,0,0,1-1.68,1.824c-.756,0-1.236-.336-1.236-1.452V-6h-1.284v3.948A1.965,1.965,0,0,0,135.024.12a2.214,2.214,0,0,0,2.124-1.092l.06.972h1.14V-6ZM151.7-6l-1.356,4.788L148.848-6h-1.272l-1.5,4.788L144.72-6h-1.392l2,6h1.4l1.44-4.536L149.688,0h1.4l2-6Zm7.788,5.16c-.324,0-.444-.144-.444-.444V-4c0-1.44-1.032-2.124-2.532-2.124A2.417,2.417,0,0,0,154-4.56l1,.528a1.486,1.486,0,0,1,1.548-1.08,1.113,1.113,0,0,1,1.224,1.188v.312l-1.524.276c-1.572.276-2.34.96-2.34,1.884,0,1.044.828,1.572,1.956,1.572a2.355,2.355,0,0,0,2.028-.9,1.076,1.076,0,0,0,1.224.9,1.863,1.863,0,0,0,.744-.144l.084-.864A1.738,1.738,0,0,1,159.492-.84Zm-3.36-.012c-.564,0-.9-.24-.9-.684,0-.48.408-.756,1.224-.912l1.308-.264v.72C157.764-1.272,156.936-.852,156.132-.852Zm8.244-5.268a2.136,2.136,0,0,0-2.028,1.128L162.288-6h-1.14V0h1.284V-3.18c0-1.38.84-1.884,1.632-1.884.732,0,1.284.4,1.284,1.584V0h1.284V-3.888A2.078,2.078,0,0,0,164.376-6.12Zm7.716,4.788a1.369,1.369,0,0,1-.972.384.778.778,0,0,1-.876-.852V-4.992h2.1V-6h-2.1V-7.764l-1.284.36V-6h-1.14v1.008h1.14v3.408A1.607,1.607,0,0,0,170.8.12a2.47,2.47,0,0,0,1.6-.516Zm8.8,0a1.369,1.369,0,0,1-.972.384.778.778,0,0,1-.876-.852V-4.992h2.1V-6h-2.1V-7.764l-1.284.36V-6h-1.14v1.008h1.14v3.408a1.607,1.607,0,0,0,1.836,1.7,2.47,2.47,0,0,0,1.6-.516Zm4.14-4.788A2.806,2.806,0,0,0,182.04-3,2.806,2.806,0,0,0,185.028.12,2.806,2.806,0,0,0,188.016-3,2.806,2.806,0,0,0,185.028-6.12Zm0,1.008c1.08,0,1.7.756,1.7,2.112s-.624,2.112-1.7,2.112S183.336-1.644,183.336-3,183.948-5.112,185.028-5.112ZM197.712-6v3.24a1.617,1.617,0,0,1-1.68,1.824c-.756,0-1.236-.336-1.236-1.452V-6h-1.284v3.948A1.965,1.965,0,0,0,195.672.12,2.214,2.214,0,0,0,197.8-.972l.06.972H199V-6ZM203.16.12c1.656,0,2.616-.756,2.616-1.812,0-1-.612-1.512-2.328-1.824-1.128-.2-1.476-.432-1.476-.864,0-.372.5-.732,1.248-.732a1.544,1.544,0,0,1,1.6,1.02l.912-.672a2.418,2.418,0,0,0-2.52-1.356c-1.608,0-2.52.888-2.52,1.86,0,1.008.624,1.524,2.412,1.86,1.044.2,1.392.42,1.392.792,0,.408-.432.72-1.284.72a1.842,1.842,0,0,1-1.86-1l-.864.744A2.91,2.91,0,0,0,203.16.12Zm9.528-3.3A2.652,2.652,0,0,0,209.9-6.12c-1.872,0-2.928,1.164-2.928,3.12A2.813,2.813,0,0,0,209.988.12a2.59,2.59,0,0,0,2.58-1.392L211.5-1.716a1.438,1.438,0,0,1-1.512.816,1.658,1.658,0,0,1-1.74-1.62h4.392A4.979,4.979,0,0,0,212.688-3.18ZM209.9-5.1c.9,0,1.464.588,1.584,1.6H208.26A1.581,1.581,0,0,1,209.9-5.1Z" transform="translate(52 280)" fill="#525968"/>
    <path id="Path_34793" data-name="Path 34793" d="M9.276,3.08H7.4L5.82,7.664,5.256,9.548H5.232L4.68,7.664,3.084,3.08H1.176V11H2.364V6.416l-.1-2.184H2.28L4.692,11H5.76L8.172,4.232h.012L8.1,6.416V11H9.276Zm7.3,7.08c-.324,0-.444-.144-.444-.444V7c0-1.44-1.032-2.124-2.532-2.124a2.417,2.417,0,0,0-2.52,1.56l1,.528a1.486,1.486,0,0,1,1.548-1.08,1.113,1.113,0,0,1,1.224,1.188v.312l-1.524.276c-1.572.276-2.34.96-2.34,1.884,0,1.044.828,1.572,1.956,1.572a2.355,2.355,0,0,0,2.028-.9,1.076,1.076,0,0,0,1.224.9,1.863,1.863,0,0,0,.744-.144l.084-.864A1.738,1.738,0,0,1,16.572,10.16Zm-3.36-.012c-.564,0-.9-.24-.9-.684,0-.48.408-.756,1.224-.912l1.308-.264v.72C14.844,9.728,14.016,10.148,13.212,10.148ZM22.548,11h1.488L21.6,7.352,23.892,5H22.38L19.512,7.94V2.3H18.228V11h1.284V9.416L20.7,8.18Zm7.788-3.18a2.652,2.652,0,0,0-2.784-2.94c-1.872,0-2.928,1.164-2.928,3.12a2.813,2.813,0,0,0,3.012,3.12,2.59,2.59,0,0,0,2.58-1.392l-1.068-.444a1.438,1.438,0,0,1-1.512.816A1.658,1.658,0,0,1,25.9,8.48h4.392A4.98,4.98,0,0,0,30.336,7.82ZM27.552,5.9c.9,0,1.464.588,1.584,1.6H25.908A1.581,1.581,0,0,1,27.552,5.9Zm10.464,5.22c1.656,0,2.616-.756,2.616-1.812,0-1-.612-1.512-2.328-1.824-1.128-.2-1.476-.432-1.476-.864,0-.372.5-.732,1.248-.732a1.544,1.544,0,0,1,1.6,1.02l.912-.672a2.418,2.418,0,0,0-2.52-1.356c-1.608,0-2.52.888-2.52,1.86,0,1.008.624,1.524,2.412,1.86,1.044.2,1.392.42,1.392.792,0,.408-.432.72-1.284.72a1.842,1.842,0,0,1-1.86-1l-.864.744A2.91,2.91,0,0,0,38.016,11.12ZM46.344,5V8.24a1.617,1.617,0,0,1-1.68,1.824c-.756,0-1.236-.336-1.236-1.452V5H42.144V8.948A1.965,1.965,0,0,0,44.3,11.12a2.214,2.214,0,0,0,2.124-1.092l.06.972h1.14V5Zm6.372-.12a1.87,1.87,0,0,0-1.884,1.188L50.712,5H49.62v6H50.9V7.82a1.605,1.605,0,0,1,1.512-1.8,1.58,1.58,0,0,1,.756.156L53.376,5A1.582,1.582,0,0,0,52.716,4.88ZM59.8,7.82a2.652,2.652,0,0,0-2.784-2.94c-1.872,0-2.928,1.164-2.928,3.12A2.813,2.813,0,0,0,57.1,11.12a2.59,2.59,0,0,0,2.58-1.392l-1.068-.444A1.438,1.438,0,0,1,57.1,10.1a1.658,1.658,0,0,1-1.74-1.62h4.392A4.98,4.98,0,0,0,59.8,7.82ZM57.012,5.9c.9,0,1.464.588,1.584,1.6H55.368A1.581,1.581,0,0,1,57.012,5.9ZM70.452,5H69.12L67.872,8.66,67.464,9.9l-.348-1.128L65.8,5h-1.44l1.872,4.548.624,1.488-.264.648c-.264.7-.6.864-1.044.864a1.176,1.176,0,0,1-.984-.432l-.372.984a1.916,1.916,0,0,0,1.416.48c1.08,0,1.692-.48,2.22-1.872Zm3.756-.12A2.806,2.806,0,0,0,71.22,8,2.991,2.991,0,1,0,77.2,8,2.806,2.806,0,0,0,74.208,4.88Zm0,1.008c1.08,0,1.7.756,1.7,2.112s-.624,2.112-1.7,2.112S72.516,9.356,72.516,8,73.128,5.888,74.208,5.888ZM82.992,5V8.24a1.617,1.617,0,0,1-1.68,1.824c-.756,0-1.236-.336-1.236-1.452V5H78.792V8.948a1.965,1.965,0,0,0,2.16,2.172,2.214,2.214,0,0,0,2.124-1.092l.06.972h1.14V5Zm10.4-.12a2.066,2.066,0,0,0-1.944,1.08V2.3H90.168V11h1.284V7.832c0-1.38.84-1.9,1.632-1.9.732,0,1.284.4,1.284,1.584V11h1.284V7.112A2.078,2.078,0,0,0,93.4,4.88Zm9.384,5.28c-.324,0-.444-.144-.444-.444V7c0-1.44-1.032-2.124-2.532-2.124a2.417,2.417,0,0,0-2.52,1.56l1,.528a1.486,1.486,0,0,1,1.548-1.08,1.113,1.113,0,0,1,1.224,1.188v.312l-1.524.276c-1.572.276-2.34.96-2.34,1.884,0,1.044.828,1.572,1.956,1.572a2.355,2.355,0,0,0,2.028-.9,1.076,1.076,0,0,0,1.224.9,1.863,1.863,0,0,0,.744-.144l.084-.864A1.738,1.738,0,0,1,102.78,10.16Zm-3.36-.012c-.564,0-.9-.24-.9-.684,0-.48.408-.756,1.224-.912l1.308-.264v.72C101.052,9.728,100.224,10.148,99.42,10.148ZM108.168,5l-1.74,4.956L104.736,5H103.32l2.4,6h1.4l2.388-6Zm7.764,2.82a2.652,2.652,0,0,0-2.784-2.94c-1.872,0-2.928,1.164-2.928,3.12a2.813,2.813,0,0,0,3.012,3.12,2.59,2.59,0,0,0,2.58-1.392l-1.068-.444a1.438,1.438,0,0,1-1.512.816,1.658,1.658,0,0,1-1.74-1.62h4.392A4.981,4.981,0,0,0,115.932,7.82ZM113.148,5.9c.9,0,1.464.588,1.584,1.6H111.5A1.581,1.581,0,0,1,113.148,5.9Zm13.476,4.26c-.324,0-.444-.144-.444-.444V7c0-1.44-1.032-2.124-2.532-2.124a2.417,2.417,0,0,0-2.52,1.56l1,.528a1.486,1.486,0,0,1,1.548-1.08A1.113,1.113,0,0,1,124.9,7.076v.312l-1.524.276c-1.572.276-2.34.96-2.34,1.884,0,1.044.828,1.572,1.956,1.572a2.355,2.355,0,0,0,2.028-.9,1.076,1.076,0,0,0,1.224.9,1.863,1.863,0,0,0,.744-.144l.084-.864A1.738,1.738,0,0,1,126.624,10.16Zm-3.36-.012c-.564,0-.9-.24-.9-.684,0-.48.408-.756,1.224-.912l1.308-.264v.72C124.9,9.728,124.068,10.148,123.264,10.148Zm10.86.972c1.656,0,2.616-.756,2.616-1.812,0-1-.612-1.512-2.328-1.824-1.128-.2-1.476-.432-1.476-.864,0-.372.5-.732,1.248-.732a1.544,1.544,0,0,1,1.6,1.02l.912-.672a2.418,2.418,0,0,0-2.52-1.356c-1.608,0-2.52.888-2.52,1.86,0,1.008.624,1.524,2.412,1.86,1.044.2,1.392.42,1.392.792,0,.408-.432.72-1.284.72a1.842,1.842,0,0,1-1.86-1l-.864.744A2.91,2.91,0,0,0,134.124,11.12Zm7.764-1.452a1.369,1.369,0,0,1-.972.384.778.778,0,0,1-.876-.852V6.008h2.1V5h-2.1V3.236l-1.284.36V5h-1.14V6.008h1.14V9.416a1.607,1.607,0,0,0,1.836,1.7,2.47,2.47,0,0,0,1.6-.516Zm6.72.492c-.324,0-.444-.144-.444-.444V7c0-1.44-1.032-2.124-2.532-2.124a2.417,2.417,0,0,0-2.52,1.56l1,.528a1.486,1.486,0,0,1,1.548-1.08,1.113,1.113,0,0,1,1.224,1.188v.312l-1.524.276c-1.572.276-2.34.96-2.34,1.884,0,1.044.828,1.572,1.956,1.572a2.355,2.355,0,0,0,2.028-.9,1.076,1.076,0,0,0,1.224.9,1.863,1.863,0,0,0,.744-.144l.084-.864A1.738,1.738,0,0,1,148.608,10.16Zm-3.36-.012c-.564,0-.9-.24-.9-.684,0-.48.408-.756,1.224-.912l1.308-.264v.72C146.88,9.728,146.052,10.148,145.248,10.148ZM153.48,4.88a2.121,2.121,0,0,0-1.932,1.092V2.3h-1.284V11h1.128l.06-1.1a2.175,2.175,0,0,0,2.04,1.224c1.632,0,2.652-1.152,2.652-3.108S155.112,4.88,153.48,4.88Zm-.276,5.208c-1.008,0-1.656-.756-1.656-2.016V7.928c0-1.248.648-2,1.656-2,1.032,0,1.656.768,1.656,2.076S154.236,10.088,153.2,10.088ZM159.06,2.3h-1.284V9.428c0,1.164.492,1.692,1.56,1.692a2.381,2.381,0,0,0,1-.2l.144-1.032a1.9,1.9,0,0,1-.792.156c-.48,0-.624-.2-.624-.792Zm7.86,5.52a2.652,2.652,0,0,0-2.784-2.94c-1.872,0-2.928,1.164-2.928,3.12a2.813,2.813,0,0,0,3.012,3.12,2.59,2.59,0,0,0,2.58-1.392l-1.068-.444a1.438,1.438,0,0,1-1.512.816,1.658,1.658,0,0,1-1.74-1.62h4.392A4.979,4.979,0,0,0,166.92,7.82ZM164.136,5.9c.9,0,1.464.588,1.584,1.6h-3.228A1.581,1.581,0,0,1,164.136,5.9Zm12.468.348.4-1.824h.012l.4,1.824L178.668,11h1.512L182.5,3.08h-1.32l-1.74,6.912L177.684,3.08h-1.32l-1.74,6.9L172.9,3.08H171.5L173.832,11h1.524Zm7.872-2.256a.753.753,0,0,0,.852-.8.745.745,0,0,0-.852-.792.754.754,0,0,0-.864.792A.762.762,0,0,0,184.476,3.992ZM185.112,5h-1.284v6h1.284Zm7.908-.816V3.08H187.3V11h1.284V7.592h3.48V6.476h-3.48V4.184Zm2.076-.192a.753.753,0,0,0,.852-.8A.745.745,0,0,0,195.1,2.4a.754.754,0,0,0-.864.792A.762.762,0,0,0,195.1,3.992ZM195.732,5h-1.284v6h1.284ZM2.46,19.08H1.176V27H2.46Zm5.352,1.8a2.136,2.136,0,0,0-2.028,1.128L5.724,21H4.584v6H5.868V23.82c0-1.38.84-1.884,1.632-1.884.732,0,1.284.4,1.284,1.584V27h1.284V23.112A2.078,2.078,0,0,0,7.812,20.88Zm7.716,4.788a1.369,1.369,0,0,1-.972.384.778.778,0,0,1-.876-.852V22.008h2.1V21h-2.1V19.236L12.4,19.6V21h-1.14v1.008H12.4v3.408a1.607,1.607,0,0,0,1.836,1.7,2.47,2.47,0,0,0,1.6-.516Zm6.864-1.848a2.652,2.652,0,0,0-2.784-2.94c-1.872,0-2.928,1.164-2.928,3.12a2.813,2.813,0,0,0,3.012,3.12,2.59,2.59,0,0,0,2.58-1.392L21.2,25.284a1.438,1.438,0,0,1-1.512.816,1.658,1.658,0,0,1-1.74-1.62h4.392A4.98,4.98,0,0,0,22.392,23.82ZM19.608,21.9c.9,0,1.464.588,1.584,1.6H17.964A1.581,1.581,0,0,1,19.608,21.9ZM27.1,20.88a1.87,1.87,0,0,0-1.884,1.188L25.092,21H24v6h1.284V23.82a1.605,1.605,0,0,1,1.512-1.8,1.58,1.58,0,0,1,.756.156l.2-1.176A1.582,1.582,0,0,0,27.1,20.88Zm5.1,0a2.136,2.136,0,0,0-2.028,1.128L30.108,21h-1.14v6h1.284V23.82c0-1.38.84-1.884,1.632-1.884.732,0,1.284.4,1.284,1.584V27h1.284V23.112A2.078,2.078,0,0,0,32.2,20.88Zm9.564,2.94a2.652,2.652,0,0,0-2.784-2.94c-1.872,0-2.928,1.164-2.928,3.12a2.813,2.813,0,0,0,3.012,3.12,2.59,2.59,0,0,0,2.58-1.392l-1.068-.444a1.438,1.438,0,0,1-1.512.816,1.658,1.658,0,0,1-1.74-1.62h4.392A4.98,4.98,0,0,0,41.76,23.82ZM38.976,21.9c.9,0,1.464.588,1.584,1.6H37.332A1.581,1.581,0,0,1,38.976,21.9Zm7.836,3.768a1.369,1.369,0,0,1-.972.384.778.778,0,0,1-.876-.852V22.008h2.1V21h-2.1V19.236l-1.284.36V21H42.54v1.008h1.14v3.408a1.607,1.607,0,0,0,1.836,1.7,2.47,2.47,0,0,0,1.6-.516Zm8.04-4.788A2.806,2.806,0,0,0,51.864,24a2.813,2.813,0,0,0,3.012,3.12A2.524,2.524,0,0,0,57.5,25.332l-1.176-.4A1.364,1.364,0,0,1,54.852,26.1c-1.056,0-1.692-.732-1.692-2.088s.624-2.112,1.692-2.112a1.359,1.359,0,0,1,1.4,1.14l1.2-.48A2.517,2.517,0,0,0,54.852,20.88Zm6.792,0A2.806,2.806,0,0,0,58.656,24a2.991,2.991,0,1,0,5.976,0A2.806,2.806,0,0,0,61.644,20.88Zm0,1.008c1.08,0,1.7.756,1.7,2.112s-.624,2.112-1.7,2.112S59.952,25.356,59.952,24,60.564,21.888,61.644,21.888ZM69.5,20.88a2.136,2.136,0,0,0-2.028,1.128L67.416,21h-1.14v6H67.56V23.82c0-1.38.84-1.884,1.632-1.884.732,0,1.284.4,1.284,1.584V27H71.76V23.112A2.078,2.078,0,0,0,69.5,20.88Zm7.428,0A2.136,2.136,0,0,0,74.9,22.008L74.844,21H73.7v6h1.284V23.82c0-1.38.84-1.884,1.632-1.884.732,0,1.284.4,1.284,1.584V27h1.284V23.112A2.078,2.078,0,0,0,76.932,20.88ZM86.5,23.82a2.652,2.652,0,0,0-2.784-2.94c-1.872,0-2.928,1.164-2.928,3.12A2.813,2.813,0,0,0,83.8,27.12a2.59,2.59,0,0,0,2.58-1.392l-1.068-.444A1.438,1.438,0,0,1,83.8,26.1a1.658,1.658,0,0,1-1.74-1.62h4.392A4.979,4.979,0,0,0,86.5,23.82ZM83.712,21.9c.9,0,1.464.588,1.584,1.6H82.068A1.581,1.581,0,0,1,83.712,21.9Zm7.032-1.02A2.806,2.806,0,0,0,87.756,24a2.813,2.813,0,0,0,3.012,3.12A2.524,2.524,0,0,0,93.4,25.332l-1.176-.4A1.364,1.364,0,0,1,90.744,26.1c-1.056,0-1.692-.732-1.692-2.088s.624-2.112,1.692-2.112a1.359,1.359,0,0,1,1.4,1.14l1.2-.48A2.517,2.517,0,0,0,90.744,20.88Zm7.74,4.788a1.369,1.369,0,0,1-.972.384.778.778,0,0,1-.876-.852V22.008h2.1V21h-2.1V19.236l-1.284.36V21h-1.14v1.008h1.14v3.408a1.607,1.607,0,0,0,1.836,1.7,2.47,2.47,0,0,0,1.6-.516Zm2.148-5.676a.753.753,0,0,0,.852-.8.745.745,0,0,0-.852-.792.754.754,0,0,0-.864.792A.762.762,0,0,0,100.632,19.992ZM101.268,21H99.984v6h1.284Zm4.644-.12A2.806,2.806,0,0,0,102.924,24a2.991,2.991,0,1,0,5.976,0A2.806,2.806,0,0,0,105.912,20.88Zm0,1.008c1.08,0,1.7.756,1.7,2.112s-.624,2.112-1.7,2.112S104.22,25.356,104.22,24,104.832,21.888,105.912,21.888Zm7.86-1.008a2.136,2.136,0,0,0-2.028,1.128L111.684,21h-1.14v6h1.284V23.82c0-1.38.84-1.884,1.632-1.884.732,0,1.284.4,1.284,1.584V27h1.284V23.112A2.078,2.078,0,0,0,113.772,20.88Zm13.284,5.28c-.324,0-.444-.144-.444-.444V23c0-1.44-1.032-2.124-2.532-2.124a2.417,2.417,0,0,0-2.52,1.56l1,.528a1.486,1.486,0,0,1,1.548-1.08,1.113,1.113,0,0,1,1.224,1.188v.312l-1.524.276c-1.572.276-2.34.96-2.34,1.884,0,1.044.828,1.572,1.956,1.572a2.355,2.355,0,0,0,2.028-.9,1.076,1.076,0,0,0,1.224.9,1.863,1.863,0,0,0,.744-.144l.084-.864A1.738,1.738,0,0,1,127.056,26.16Zm-3.36-.012c-.564,0-.9-.24-.9-.684,0-.48.408-.756,1.224-.912l1.308-.264v.72C125.328,25.728,124.5,26.148,123.7,26.148ZM132.444,21l-1.74,4.956L129.012,21H127.6l2.4,6h1.4l2.388-6Zm7.476,5.16c-.324,0-.444-.144-.444-.444V23c0-1.44-1.032-2.124-2.532-2.124a2.417,2.417,0,0,0-2.52,1.56l1,.528a1.486,1.486,0,0,1,1.548-1.08,1.113,1.113,0,0,1,1.224,1.188v.312l-1.524.276c-1.572.276-2.34.96-2.34,1.884,0,1.044.828,1.572,1.956,1.572a2.355,2.355,0,0,0,2.028-.9,1.076,1.076,0,0,0,1.224.9,1.863,1.863,0,0,0,.744-.144l.084-.864A1.738,1.738,0,0,1,139.92,26.16Zm-3.36-.012c-.564,0-.9-.24-.9-.684,0-.48.408-.756,1.224-.912l1.308-.264v.72C138.192,25.728,137.364,26.148,136.56,26.148Zm5.664-6.156a.753.753,0,0,0,.852-.8.745.745,0,0,0-.852-.792.754.754,0,0,0-.864.792A.762.762,0,0,0,142.224,19.992ZM142.86,21h-1.284v6h1.284Zm3.252-2.7h-1.284v7.128c0,1.164.492,1.692,1.56,1.692a2.381,2.381,0,0,0,1-.2l.144-1.032a1.9,1.9,0,0,1-.792.156c-.48,0-.624-.2-.624-.792Zm7.692,7.86c-.324,0-.444-.144-.444-.444V23c0-1.44-1.032-2.124-2.532-2.124a2.417,2.417,0,0,0-2.52,1.56l1,.528a1.486,1.486,0,0,1,1.548-1.08,1.113,1.113,0,0,1,1.224,1.188v.312l-1.524.276c-1.572.276-2.34.96-2.34,1.884,0,1.044.828,1.572,1.956,1.572a2.355,2.355,0,0,0,2.028-.9,1.076,1.076,0,0,0,1.224.9,1.863,1.863,0,0,0,.744-.144l.084-.864A1.738,1.738,0,0,1,153.8,26.16Zm-3.36-.012c-.564,0-.9-.24-.9-.684,0-.48.408-.756,1.224-.912l1.308-.264v.72C152.076,25.728,151.248,26.148,150.444,26.148Zm8.232-5.268a2.121,2.121,0,0,0-1.932,1.092V18.3H155.46V27h1.128l.06-1.1a2.175,2.175,0,0,0,2.04,1.224c1.632,0,2.652-1.152,2.652-3.108S160.308,20.88,158.676,20.88Zm-.276,5.208c-1.008,0-1.656-.756-1.656-2.016v-.144c0-1.248.648-2,1.656-2,1.032,0,1.656.768,1.656,2.076S159.432,26.088,158.4,26.088Zm5.856-7.788h-1.284v7.128c0,1.164.492,1.692,1.56,1.692a2.381,2.381,0,0,0,1-.2l.144-1.032a1.9,1.9,0,0,1-.792.156c-.48,0-.624-.2-.624-.792Zm7.86,5.52a2.652,2.652,0,0,0-2.784-2.94c-1.872,0-2.928,1.164-2.928,3.12a2.813,2.813,0,0,0,3.012,3.12A2.59,2.59,0,0,0,172,25.728l-1.068-.444a1.438,1.438,0,0,1-1.512.816,1.658,1.658,0,0,1-1.74-1.62h4.392A4.979,4.979,0,0,0,172.116,23.82Zm-2.784-1.92c.9,0,1.464.588,1.584,1.6h-3.228A1.581,1.581,0,0,1,169.332,21.9Z" transform="translate(141 166)" fill="#525968"/>
  </g>
</svg>
