<svg xmlns="http://www.w3.org/2000/svg" xmlns:xlink="http://www.w3.org/1999/xlink" width="205.494" height="228.958" viewBox="0 0 205.494 228.958">
  <defs>
    <clipPath id="clip-path">
      <rect id="Rectangle_1812" data-name="Rectangle 1812" width="22.647" height="22.313" fill="none"/>
    </clipPath>
  </defs>
  <g id="Group_25443" data-name="Group 25443" transform="translate(-100.946 -181)">
    <g id="Group_25442" data-name="Group 25442">
      <path id="Path_2654" data-name="Path 2654" d="M169.495,239.362c0,3.392-37.555,6.143-83.882,6.143s-83.88-2.75-83.88-6.143,37.555-6.143,83.88-6.143,83.882,2.75,83.882,6.143" transform="translate(130.246 164.454)" fill="#413847" opacity="0.1"/>
      <rect id="Rectangle_1796" data-name="Rectangle 1796" width="2.371" height="113.204" transform="translate(204.938 268.749)" fill="#ebebeb"/>
      <rect id="Rectangle_1797" data-name="Rectangle 1797" width="2.371" height="112.879" transform="translate(207.309 269.074)" fill="#e0e0e0"/>
      <rect id="Rectangle_1799" data-name="Rectangle 1799" width="79.286" height="15.368" transform="translate(126.836 271.458)" fill="#ebebeb"/>
      <path id="Path_2482" data-name="Path 2482" d="M280.229,255.82a1.767,1.767,0,1,1-1.767-1.767,1.767,1.767,0,0,1,1.767,1.767" transform="translate(-110.215 22.26)" fill="#e0e0e0"/>
      <path id="Path_2570" data-name="Path 2570" d="M75.193,133.2l19.657-4.323,12.617-31.309s16.884,3.745,19.671,13.178c2.41,8.156,7.384,44.2-3.924,66.419a17.078,17.078,0,0,1-15.244,9.261H21.959A21.325,21.325,0,0,1,.764,167.475,93.7,93.7,0,0,1,.009,156.3l13.81-10.6Z" transform="translate(176.111 219.141)" fill="#c4c4c4"/>
      <g id="Group_5585" data-name="Group 5585" transform="translate(176.078 360.578)">
        <g id="Group_5584" data-name="Group 5584" clip-path="url(#clip-path)">
          <path id="Path_2571" data-name="Path 2571" d="M245.213,190.868c-6.052,7.908-13.42,15.016-22.23,19.656l-.417-10.735,16.268-11.578Z" transform="translate(-222.565 -188.211)"/>
        </g>
      </g>
      <path id="Path_2578" data-name="Path 2578" d="M166.235,132.57c0-.01-.181,0-.392.219a1.271,1.271,0,0,0-.256,1.187,3.493,3.493,0,0,0,1.034,1.479,12.6,12.6,0,0,0,1.69,1.394,22.565,22.565,0,0,0,3.469,1.915,9.545,9.545,0,0,0,1.519.615,11.608,11.608,0,0,0-1.441-.775,29.516,29.516,0,0,1-3.4-1.961,13.857,13.857,0,0,1-1.671-1.354,3.481,3.481,0,0,1-1.025-1.362,1.2,1.2,0,0,1,.159-1.074c.166-.215.328-.26.316-.282" transform="translate(53.025 201.08)" fill="#263238"/>
      <path id="Path_2579" data-name="Path 2579" d="M170.374,116.332a6.541,6.541,0,0,0,2.467.668,6.54,6.54,0,0,0-2.467-.668" transform="translate(51.145 209.47)" fill="#ff9b6c"/>
      <path id="Path_2580" data-name="Path 2580" d="M174.807,120.462a12.943,12.943,0,0,0,3.419,1.136,12.943,12.943,0,0,0-3.419-1.136" transform="translate(43.613 207.334)" fill="#263238"/>
      <path id="Path_2581" data-name="Path 2581" d="M175.33,126.111c.071-.008.105-.218.187-.452s.18-.422.129-.472-.267.1-.367.391-.015.544.051.533" transform="translate(45.973 204.894)" fill="#ff9b6c"/>
      <path id="Path_2582" data-name="Path 2582" d="M176.978,131.246c.071-.016.045-.36.146-.755s.276-.69.221-.737-.354.212-.466.677.036.837.1.815" transform="translate(43.502 202.535)" fill="#ff9b6c"/>
      <path id="Path_2589" data-name="Path 2589" d="M309.693,233.832l-3.246,6.882-.486,3.164a3.547,3.547,0,0,1-4.044,2.968l-22.2-3.407a1.733,1.733,0,0,1-1.372-2.374,1.513,1.513,0,0,1,1.058-.86c1.856-.473,16.7-2.373,16.7-2.373l3.584-9.083Z" transform="translate(-141.943 154.668)" fill="#131f2d"/>
      <path id="Path_2590" data-name="Path 2590" d="M284.476,235.792a26.778,26.778,0,0,0,3.074-4.172,26.691,26.691,0,0,0-3.074,4.172" transform="translate(-118.789 149.966)" fill="#263238"/>
      <path id="Path_2591" data-name="Path 2591" d="M294.43,231.845a13.012,13.012,0,0,0,2.611-4.482c-.067-.029-.577,1.013-1.3,2.246s-1.372,2.193-1.313,2.237" transform="translate(-133.1 152.163)" fill="#263238"/>
      <path id="Path_2592" data-name="Path 2592" d="M293.752,266.9c.047.013.165-.434.5-1.085a6.441,6.441,0,0,1,4.322-3.392c.711-.168,1.173-.177,1.172-.226a2.785,2.785,0,0,0-1.213.021,5.938,5.938,0,0,0-4.469,3.508,2.788,2.788,0,0,0-.309,1.173" transform="translate(-135.465 134.209)" fill="#263238"/>
      <path id="Path_2593" data-name="Path 2593" d="M337.677,261.722a1.888,1.888,0,0,0,.353-.83,3.844,3.844,0,0,0-.107-2.18,5.327,5.327,0,0,0-1.156-1.847c-.384-.4-.664-.6-.688-.577s.2.286.53.712a6.547,6.547,0,0,1,1.035,1.808,4.269,4.269,0,0,1,.181,2.043,5.058,5.058,0,0,0-.149.87" transform="translate(-194.348 137.237)" fill="#263238"/>
      <path id="Path_2594" data-name="Path 2594" d="M211.907,158.7s-47.108-4.721-49.4-4.532c-4.225.348-12.015,7.011-25.84,16.292a127.2,127.2,0,0,0-19.835,16.673l4.418,10.087s30.982-11.292,35.84-15.352c4.037-3.374,11.4-8.178,11.4-8.178l18.171.183,13.5,1.192a19.855,19.855,0,0,0,17.509-7.708l5.243-6.847Z" transform="translate(26.975 189.934)" fill="#030303"/>
      <path id="Path_2595" data-name="Path 2595" d="M223.345,173.076s-.076.045-.22.142l-.634.437-2.445,1.716c-2.122,1.515-5.242,3.692-9.063,6.585-.24.178-.469.387-.727.544l-.78.486c-.559.281-1.122.587-1.715.866l-1.823.847-1.916.846c-2.614,1.132-5.444,2.315-8.463,3.541-6.037,2.454-12.814,5.122-20.129,7.931l.163.073-4.006-10.147-.029.144,5.5-5.606-.008.007c1.289-1.118,2.674-2.308,4.09-3.482a288.165,288.165,0,0,1,26.4-19.37l.007,0,.008-.007a25.742,25.742,0,0,1,4-2.812,19.651,19.651,0,0,1,4.274-1.856c.365-.1.734-.178,1.1-.268l1.1-.169,1.1-.058,1.094,0,4.226-.006,14.225-.029,9.232-.035,2.446-.019.629-.01c.141,0,.213-.011.213-.011s-.072-.007-.213-.01l-.629-.01-2.446-.019-9.232-.035-14.225-.029-4.226-.006h-1.094l-1.118.057-1.121.169c-.369.09-.744.169-1.115.27a19.832,19.832,0,0,0-4.329,1.868,25.914,25.914,0,0,0-4.045,2.835l.015-.012A284.426,284.426,0,0,0,180.969,177.8c-1.418,1.176-2.8,2.367-4.095,3.487l0,0,0,0-5.494,5.608-.061.063.032.082,4.014,10.143.046.118.116-.045c7.313-2.819,14.086-5.5,20.12-7.969,3.017-1.233,5.844-2.426,8.457-3.568l1.916-.854,1.824-.856c.594-.282,1.159-.593,1.72-.877l.8-.5c.264-.164.485-.37.725-.549,3.8-2.907,6.91-5.106,9.016-6.643l2.42-1.75.622-.454c.139-.1.207-.16.207-.16" transform="translate(-27.658 190.411)" fill="#455a64"/>
      <path id="Path_2596" data-name="Path 2596" d="M334.047,225.447l-3.568,2.563-2.174,2.35a3.546,3.546,0,0,1-5.011.2L306.806,215.3a1.733,1.733,0,0,1,.193-2.734,1.511,1.511,0,0,1,1.358-.12c1.8.647,16.44,6.666,16.44,6.666l4.416-3.811Z" transform="translate(-185.297 161.72)" fill="#131f2d"/>
      <path id="Path_2598" data-name="Path 2598" d="M334.778,249.213c.032.037.379-.267,1.02-.62a6.442,6.442,0,0,1,5.48-.391c.683.258,1.071.51,1.1.469a2.789,2.789,0,0,0-1.017-.662,5.937,5.937,0,0,0-5.667.4,2.79,2.79,0,0,0-.913.8" transform="translate(-197.955 141.784)" fill="#263238"/>
      <path id="Path_2601" data-name="Path 2601" d="M27.353,146.5a5.754,5.754,0,0,0,.909-.059l2.466-.266c2.081-.24,4.953-.6,8.119-1.033s6.029-.875,8.093-1.237c1.032-.183,1.866-.335,2.439-.461a5.732,5.732,0,0,0,.885-.217,5.818,5.818,0,0,0-.9.113l-2.451.376c-2.07.312-4.934.72-8.1,1.157L30.7,145.988l-2.455.352a5.854,5.854,0,0,0-.9.164" transform="translate(242.938 195.58)" fill="#263238" stroke="#263238" stroke-width="0.3"/>
      <path id="Path_2602" data-name="Path 2602" d="M58.2,213.478a.772.772,0,0,0,.08-.148l.211-.446.786-1.726.562-1.251c.2-.462.386-.972.6-1.516.418-1.093.941-2.322,1.382-3.728l.736-2.193c.252-.764.457-1.576.7-2.408.507-1.659.9-3.469,1.346-5.366a96.323,96.323,0,0,0,1.781-12.546,96.256,96.256,0,0,0-.034-12.675c-.18-1.941-.32-3.788-.594-5.5-.127-.857-.218-1.69-.362-2.481s-.29-1.549-.426-2.274c-.244-1.454-.593-2.743-.856-3.883-.138-.569-.256-1.1-.386-1.584s-.269-.919-.385-1.316c-.231-.776-.412-1.385-.541-1.818-.061-.2-.109-.351-.148-.471a.718.718,0,0,0-.059-.157.8.8,0,0,0,.032.166c.031.122.071.28.121.478.118.436.282,1.049.492,1.83q.163.6.362,1.321c.122.485.232,1.018.364,1.587.248,1.142.584,2.43.815,3.883q.195,1.086.408,2.272c.138.79.225,1.622.346,2.477.264,1.71.4,3.553.568,5.489a98.617,98.617,0,0,1,.013,12.638,98.634,98.634,0,0,1-1.755,12.512c-.438,1.893-.821,3.7-1.318,5.358-.239.831-.438,1.643-.684,2.406l-.718,2.193c-.429,1.407-.938,2.638-1.342,3.734-.209.546-.391,1.058-.58,1.522l-.54,1.258-.739,1.746c-.077.19-.138.34-.186.457a.858.858,0,0,0-.055.16" transform="translate(211.689 192.09)" fill="#263238" stroke="#000" stroke-width="0.3"/>
      <path id="Path_2603" data-name="Path 2603" d="M61.3,230.152a17.077,17.077,0,0,0,3.038,0,17.025,17.025,0,0,0,3.026-.277,17.06,17.06,0,0,0-3.038.005,17.066,17.066,0,0,0-3.025.277" transform="translate(209.408 150.897)" fill="#263238"/>
      <path id="Path_2604" data-name="Path 2604" d="M60.132,235.231a9.546,9.546,0,0,0,3.117-.815,9.558,9.558,0,0,0,2.806-1.583c-.044-.07-1.273.674-2.908,1.33s-3.032.986-3.015,1.067" transform="translate(211.281 149.342)" fill="#263238" stroke="#000" stroke-width="0.3"/>
      <path id="Path_2605" data-name="Path 2605" d="M49.936,187.717a5.294,5.294,0,0,0,4.1.394c-.015-.08-.936.06-2.064-.053s-2.007-.417-2.036-.341" transform="translate(228.236 172.627)" fill="#263238"/>
      <path id="Path_2606" data-name="Path 2606" d="M53.408,183.534a4.106,4.106,0,0,0,3.956-1.676A11.736,11.736,0,0,1,55.517,183a11.737,11.737,0,0,1-2.109.53" transform="translate(223.225 175.646)" fill="#263238"/>
      <path id="Path_2608" data-name="Path 2608" d="M312.711,229.028a20.147,20.147,0,0,0,5.826-2.189c-.031-.066-1.311.483-2.917,1.085s-2.929,1.034-2.909,1.1" transform="translate(-163.439 152.436)" fill="#263238"/>
      <path id="Path_2609" data-name="Path 2609" d="M318.731,219.873a190.645,190.645,0,0,0,5.124-2.464,17.594,17.594,0,0,0-5.124,2.464" transform="translate(-171.67 157.302)" fill="#263238"/>
      <rect id="Rectangle_1813" data-name="Rectangle 1813" width="185.631" height="136.078" transform="translate(120.809 269.49)" fill="none"/>
      <rect id="Rectangle_1814" data-name="Rectangle 1814" width="185.631" height="136.078" transform="translate(120.809 269.49)" fill="none"/>
      <path id="Path_2642" data-name="Path 2642" d="M225.875,50.426c7.476,4.043,18.541-6.5,18.541-6.5s-1.9-3.165-2.176-10.307c-.016-.406.008-.82.029-1.242l-3.886-1.886-7.455,3.955a54.222,54.222,0,0,0-.625,6.394q-.056,1.071-.083,2.3c-4.136,3.517-4.346,7.286-4.346,7.286" transform="translate(26.25 261.111)" fill="#ffc48e"/>
      <path id="Path_2643" data-name="Path 2643" d="M232.9,34.443a53.988,53.988,0,0,0-.627,6.394c6.435-.45,10.47-5.162,11.937-7.221,0-.407.009-.82.03-1.242-.793-.385-2.287-1.111-3.887-1.885Z" transform="translate(24.283 261.11)"/>
      <path id="Path_2644" data-name="Path 2644" d="M229.171,30.842s13.529,1.05,14.053-7.387,2.622-13.981-5.993-15.008-10.5,2.087-11.355,4.861-.21,17.044,3.3,17.534" transform="translate(26.355 267.953)" fill="#ffc48e"/>
      <path id="Path_2645" data-name="Path 2645" d="M240.5,24.236a27.469,27.469,0,0,1-.481-4.742s2.175-2.111.731-4.261c-1.3-1.935-2.638,1.959-3.05,1.468a9.822,9.822,0,0,1-2.138-5.1c-.327-2.8-9.89-1.875-11.029-1.667s-4.015-2.3-4.316-3.833A19.879,19.879,0,0,0,223.505,4.2c1.1-.894,8.7-6.879,16.229-2.78s7.679,8.216,6.405,11.4-2.068,11.129-5.64,11.418" transform="translate(26.996 270.1)" fill="#131f2d"/>
      <path id="Path_2583" data-name="Path 2583" d="M66.835,86.72c.8.486,7.6,5.127,6.607,12.735S57.4,124.263,54.257,124.594l-12.073,1.985V112.355l5.788-.331L55.58,97.139Z" transform="translate(212.482 224.739)" fill="#4bb5e8"/>
      <path id="Path_2584" data-name="Path 2584" d="M74.691,124.421a1.867,1.867,0,0,0,.432.042l1.219.047,4.325.095h.06l.038-.05,3.058-4.11c1.823-2.465,3.461-4.706,4.635-6.336l1.379-1.938a5.394,5.394,0,0,0,.476-.733,5.4,5.4,0,0,0-.561.67L88.3,114c-1.214,1.6-2.876,3.823-4.7,6.289l-3.033,4.128.1-.049-4.326,0-1.22.021a1.877,1.877,0,0,0-.433.033" transform="translate(179.977 211.983)" fill="#263238" stroke="#000" stroke-width="0.3"/>
      <path id="Path_1794" data-name="Path 1794" d="M615.511,644h102.7a4.093,4.093,0,0,1,4.081,4.081v22.445a4.093,4.093,0,0,1-4.081,4.081h-102.7a4.093,4.093,0,0,1-4.081-4.081V648.081A4.093,4.093,0,0,1,615.511,644Z" transform="translate(-510.484 -383.771)" fill="#e5f8cd"/>
      <path id="Path_1795" data-name="Path 1795" d="M776.307,669.241H703.87a1.874,1.874,0,0,1-1.87-1.87h0a1.874,1.874,0,0,1,1.87-1.87h72.436a1.874,1.874,0,0,1,1.87,1.87h0A1.874,1.874,0,0,1,776.307,669.241Z" transform="translate(-570.254 -397.959)" fill="#6db149"/>
      <path id="Path_1796" data-name="Path 1796" d="M742.884,688.241H703.87a1.874,1.874,0,0,1-1.87-1.87h0a1.874,1.874,0,0,1,1.87-1.87h39.014a1.874,1.874,0,0,1,1.87,1.87h0A1.876,1.876,0,0,1,742.884,688.241Z" transform="translate(-570.254 -410.498)" fill="none" stroke="#6db149" stroke-miterlimit="10" stroke-width="1"/>
      <path id="Path_1797" data-name="Path 1797" d="M743.164,707.741H704.15a1.874,1.874,0,0,1-1.87-1.87h0a1.874,1.874,0,0,1,1.87-1.87h39.014a1.874,1.874,0,0,1,1.87,1.87h0A1.874,1.874,0,0,1,743.164,707.741Z" transform="translate(-570.439 -423.366)" fill="none" stroke="#6db149" stroke-miterlimit="10" stroke-width="1"/>
      <path id="Path_1794-2" data-name="Path 1794" d="M615.511,644h102.7a4.093,4.093,0,0,1,4.081,4.081v22.445a4.093,4.093,0,0,1-4.081,4.081h-102.7a4.093,4.093,0,0,1-4.081-4.081V648.081A4.093,4.093,0,0,1,615.511,644Z" transform="translate(-510.484 -348.429)" fill="#ffe4ee"/>
      <path id="Path_1795-2" data-name="Path 1795" d="M776.307,669.241H703.87a1.874,1.874,0,0,1-1.87-1.87h0a1.874,1.874,0,0,1,1.87-1.87h72.436a1.874,1.874,0,0,1,1.87,1.87h0A1.874,1.874,0,0,1,776.307,669.241Z" transform="translate(-570.254 -362.618)" fill="#ad1e56"/>
      <path id="Path_1796-2" data-name="Path 1796" d="M742.884,688.241H703.87a1.874,1.874,0,0,1-1.87-1.87h0a1.874,1.874,0,0,1,1.87-1.87h39.014a1.874,1.874,0,0,1,1.87,1.87h0A1.876,1.876,0,0,1,742.884,688.241Z" transform="translate(-570.254 -375.156)" fill="none" stroke="#ad1e56" stroke-miterlimit="10" stroke-width="1"/>
      <path id="Path_1797-2" data-name="Path 1797" d="M743.164,707.741H704.15a1.874,1.874,0,0,1-1.87-1.87h0a1.874,1.874,0,0,1,1.87-1.87h39.014a1.874,1.874,0,0,1,1.87,1.87h0A1.874,1.874,0,0,1,743.164,707.741Z" transform="translate(-570.439 -388.024)" fill="none" stroke="#ad1e56" stroke-miterlimit="10" stroke-width="1"/>
      <path id="Path_2576" data-name="Path 2576" d="M172.923,101.845l9.607,16.007-10.061-.3-8.872-14.83a.854.854,0,0,1,.733-1.293h7.859a.854.854,0,0,1,.733.415" transform="translate(44.793 217.148)" fill="#263238"/>
      <path id="Path_2588" data-name="Path 2588" d="M213.265,149.312l-45.648-1.283a5.048,5.048,0,0,0-2.108.392,13.324,13.324,0,0,0-6.692,6.869c-2.97,6.311-16.808,32.9-16.808,32.9l14,7.173,17.165-31.842,52.9-4.493-.611-4.229Z" transform="translate(11.637 193.103)" fill="#030303"/>
      <path id="Path_2572" data-name="Path 2572" d="M127.106,82.817c0,.569-4.471,2.412-6.492,1.6-3.075-1.228-2.7-3.642-2.7-3.642l-1.7,1.8-17.12,26.083-12.725,8.4,20.369,6.45,21.348-24.528Z" transform="translate(136.555 227.805)" fill="#fff"/>
      <path id="Path_2573" data-name="Path 2573" d="M88.052,66.9l.45.84,2.031,3.791,8.457,5.392L81.6,97.589l-7.938,18.76L54.644,122.3s9.05-13.918,11.861-21.029,3.1-6.782,5.664-11.992a117.816,117.816,0,0,0,4.648-11.3Z" transform="translate(181.004 234.968)" fill="#4bb5e8"/>
      <path id="Path_2575" data-name="Path 2575" d="M134.454,101.86s1.683-3.593,3.058-6.579c3.1-6.728,10.4-7.367,10.4-7.367L139.841,110.3l-9.891,7.012s-2.812.982-3.166,0c0,0-2.06-7.422-2-7.452s7.038-2.114,7.038-2.114l2.809-6.272" transform="translate(98.137 224.123)" fill="#4bb5e8"/>
      <path id="Path_2585" data-name="Path 2585" d="M71.832,85a2.284,2.284,0,0,0,.236-.431l.6-1.247-.129.013A15.463,15.463,0,0,1,73.7,85.347a17.967,17.967,0,0,0,1.513,2.665l.1.135.105-.13c.781-.963,1.675-1.991,2.638-3.039,2.108-2.293,4.121-4.273,5.558-5.725l1.7-1.727a5.553,5.553,0,0,0,.595-.661,5.552,5.552,0,0,0-.669.586l-1.757,1.665c-1.472,1.418-3.508,3.378-5.624,5.679-.966,1.052-1.859,2.089-2.636,3.064l.2.006a18.8,18.8,0,0,1-1.531-2.613,14.07,14.07,0,0,0-1.233-2l-.079-.106-.049.119L72,84.542a2.277,2.277,0,0,0-.164.463" transform="translate(185.771 229.825)" fill="#263238" stroke="#000" stroke-width="0.3"/>
      <path id="Path_2551" data-name="Path 2551" d="M165.529,136.492l15.907-1.577.92,8.262-17.963-.624Z" transform="translate(44.521 199.869)" fill="#ffc48e"/>
      <path id="Path_2552" data-name="Path 2552" d="M200.721,138.579a.882.882,0,0,0,.918.357,1.014,1.014,0,0,0,.212-.078c.474-.239.266-1.249.266-1.249l2.331-.769a25.94,25.94,0,0,1,4.745,2.67c1.317,1.155,3.97-.368,3.97-.368l.173-5.254L208.3,130.6s.308.195-.114-.5-1.761-.2-1.761-.2c-.273-.334-1.2-.323-1.2-.323l-3.792,1.056a2.681,2.681,0,0,0-1.743,1.522L198.47,135a7.393,7.393,0,0,0-.361,2.409.782.782,0,0,0,.98.365s.383,1.194.711,1.186a2.68,2.68,0,0,0,.92-.38" transform="translate(-2.752 202.623)" fill="#ffc48e"/>
      <path id="Path_2553" data-name="Path 2553" d="M208.882,138.7a1.416,1.416,0,0,1-.257-.139l-.729-.417a27.236,27.236,0,0,0-2.815-1.347l.056,0-2.325.785.066-.114a2.662,2.662,0,0,1,.048.591,1.1,1.1,0,0,1-.181.618.6.6,0,0,1-.294.2.849.849,0,0,1-.333.073.991.991,0,0,1-.647-.235,1.059,1.059,0,0,1-.126-.125l-.028-.035-.014-.018-.007-.009h0l.149.029h0l0,0-.071.043c-.095.056-.192.108-.292.158a2.629,2.629,0,0,1-.315.134,1.247,1.247,0,0,1-.175.047.407.407,0,0,1-.228-.008.72.72,0,0,1-.285-.279,2.667,2.667,0,0,1-.171-.31,5.785,5.785,0,0,1-.26-.652l.155.075a.92.92,0,0,1-.939-.163.746.746,0,0,1-.24-.455,2.154,2.154,0,0,1,.012-.476,13.054,13.054,0,0,1,.387-1.825l0-.007,0-.008.652-1.517.414-.961a4.807,4.807,0,0,1,.472-.942,2.607,2.607,0,0,1,.776-.713,3.393,3.393,0,0,1,.953-.36l3.576-.985.016,0h.013a3.392,3.392,0,0,1,.665.067,1.1,1.1,0,0,1,.616.3l-.141-.021a1.353,1.353,0,0,1,1.252-.127,1.579,1.579,0,0,1,.768.881l-.037-.046,3.466,2.249.936.624a2.182,2.182,0,0,1,.317.233,2.17,2.17,0,0,1-.346-.188l-.963-.583-3.51-2.18-.024-.015-.014-.031a1.4,1.4,0,0,0-.675-.764,1.152,1.152,0,0,0-1.053.12l-.079.048-.062-.069a.927.927,0,0,0-.5-.222,3.216,3.216,0,0,0-.618-.058l.028,0-3.571,1a3.158,3.158,0,0,0-.891.337,2.357,2.357,0,0,0-.7.647,4.567,4.567,0,0,0-.445.9l-.414.962-.654,1.517.005-.015a12.913,12.913,0,0,0-.384,1.783,1.978,1.978,0,0,0-.014.421.506.506,0,0,0,.166.31.684.684,0,0,0,.689.116l.117-.039.038.113a5.685,5.685,0,0,0,.246.625,1.182,1.182,0,0,0,.332.477.235.235,0,0,0,.1,0,1,1,0,0,0,.144-.039,2.51,2.51,0,0,0,.288-.12c.094-.046.187-.1.278-.148l.066-.04,0,0h0l.151.029h0l.005.007.011.014.021.028a.834.834,0,0,0,.1.1.773.773,0,0,0,.5.189.645.645,0,0,0,.26-.057.393.393,0,0,0,.2-.126,1.515,1.515,0,0,0,.1-1.04l-.014-.089.08-.026,2.336-.753.03-.01.027.012a23.326,23.326,0,0,1,2.8,1.422c.314.191.552.346.709.456a1.388,1.388,0,0,1,.232.178" transform="translate(-3.416 202.742)" fill="#263238"/>
      <path id="Path_2554" data-name="Path 2554" d="M220.069,133.268a4.686,4.686,0,0,1-1.181.566,12.545,12.545,0,0,1-3.149.735l.114-.106c-.035.2-.073.412-.123.624a9.643,9.643,0,0,1-1.481,3.347,8.059,8.059,0,0,1-.7.865c-.182.189-.291.284-.3.272-.032-.028.355-.458.85-1.238a10.758,10.758,0,0,0,1.382-3.3c.048-.207.086-.413.121-.608l.017-.1.1-.009a15.087,15.087,0,0,0,3.118-.642c.769-.244,1.222-.438,1.237-.4" transform="translate(-16.834 200.721)" fill="#263238"/>
      <path id="Path_2555" data-name="Path 2555" d="M222.105,139.12a6.238,6.238,0,0,1-2.054,4.232c-.059-.052.647-.855,1.209-2.027s.767-2.219.845-2.2" transform="translate(-22.18 197.699)" fill="#263238"/>
      <path id="Path_2556" data-name="Path 2556" d="M208.889,140.723c0,.006-.034.037-.112.09a2.772,2.772,0,0,1-.358.208,4.2,4.2,0,0,1-1.493.416,4.256,4.256,0,0,1-2.315-.447,4.439,4.439,0,0,1-2.038-2.168l.155.068a9.932,9.932,0,0,1-3.829.582,3.185,3.185,0,0,1-1.036-.168.786.786,0,0,1-.438-.363.724.724,0,0,1,.355-.974l.428-.182c1.128-.469,2.165-.842,3.044-1.126s1.6-.483,2.1-.608a4.434,4.434,0,0,1,.786-.163,5.178,5.178,0,0,1-.759.259c-.491.154-1.2.38-2.069.684s-1.893.693-3.01,1.172l-.422.184a.478.478,0,0,0-.248.27.47.47,0,0,0,.017.37.533.533,0,0,0,.31.242,2.986,2.986,0,0,0,.953.146,9.947,9.947,0,0,0,3.734-.559l.11-.039.045.107a4.277,4.277,0,0,0,1.908,2.077,4.186,4.186,0,0,0,2.2.479,4.521,4.521,0,0,0,1.469-.336c.328-.136.5-.238.5-.222" transform="translate(2.037 199.368)" fill="#263238"/>
      <path id="Path_2574" data-name="Path 2574" d="M112.161,109.037l-3.729,3.481-1.056,2.15,13.868-6.453L131.257,94.2s3.568-7.914,4.794-10.748c1.29-2.983,2.253-4.67,2.253-4.67l.015-2.355-5.06,4.558-4.219,1.257-7.046,11.137Z" transform="translate(116.348 230.052)" fill="#4bb5e8"/>
      <path id="Path_2577" data-name="Path 2577" d="M145.782,127.026l-24.046-2.862-4.044-7.078-3.165-1.74a1.578,1.578,0,0,0-1.69.107l-.3.217-2.349-.3a1.864,1.864,0,0,0-1.155.229l-1.665.947a.8.8,0,0,0,.546,1.473l1.618-.3,2.475.807s-1.6.17-1.8,1.383.606,1.237.606,1.237a1.552,1.552,0,0,0-.505,2.4s-1.4.932.168,2.7c1.063,1.2,8.721,5.107,8.721,5.107l26.581,9.88Z" transform="translate(108.885 210.068)" fill="#ffc48e"/>
      <path id="Path_2586" data-name="Path 2586" d="M113.539,85.3a2.5,2.5,0,0,0-.364.715,19.193,19.193,0,0,0-.632,2l-.164.587.375-.483a16.223,16.223,0,0,1,1.775-1.871c.558-.515,1.108-.99,1.606-1.423l-.205-.079A21.936,21.936,0,0,1,116,87.134a2.677,2.677,0,0,0,.117.934c.03,0,0-.346.035-.932a15.181,15.181,0,0,0,.021-2.423l-.025-.229-.181.151c-.507.423-1.064.894-1.629,1.415a14.1,14.1,0,0,0-1.781,1.926l.211.1c.21-.84.378-1.537.534-2.016a4.983,4.983,0,0,0,.232-.763" transform="translate(135.828 225.894)" fill="#263238" stroke="#000" stroke-width="0.3"/>
      <path id="Path_2587" data-name="Path 2587" d="M133.464,116.172a4.28,4.28,0,0,0,.573-.529l1.488-1.512c.622-.653,1.366-1.386,2.177-2.291.373-.476.7-1,1.089-1.509a10.111,10.111,0,0,0,1.005-1.751c.577-1.252,1.011-2.485,1.4-3.6s.734-2.128,1.053-2.963.6-1.5.827-1.945a5.867,5.867,0,0,0,.346-.7c-.008,0-.051.049-.127.158a5.155,5.155,0,0,0-.312.489,16.374,16.374,0,0,0-.913,1.924c-.344.83-.707,1.836-1.11,2.949s-.845,2.338-1.414,3.571a10.131,10.131,0,0,1-.973,1.707c-.39.517-.72,1.053-1.073,1.514-.759.867-1.522,1.65-2.117,2.31l-1.427,1.573a4.3,4.3,0,0,0-.5.6" transform="translate(98.42 218.209)" fill="#263238" stroke="#000" stroke-width="0.3"/>
      <path id="Path_2600" data-name="Path 2600" d="M18.552,164.212c1.011-4.126,3.077-8.348,7.165-10.672,3.1-1.763,6.941-2.2,10.63-2.589,25.73-2.723,49.777-8.417,75.506-11.139.691,10.469-2.831,26.469-8.143,35.907a9.426,9.426,0,0,1-3.358,3.858c-1.924,1.091-4.391,1.082-6.694,1.031-25.965-.569-51.943-1.519-77.76-3.966,1.453-4.027,1.642-8.3,2.653-12.43" transform="translate(185.146 201.938)" fill="#c4c4c4"/>
      <g id="Group_24913" data-name="Group 24913" transform="translate(123 181.457)">
        <ellipse id="Ellipse_1505" data-name="Ellipse 1505" cx="34" cy="34.5" rx="34" ry="34.5" transform="translate(0 -0.457)" fill="#d4efff"/>
        <g id="Ellipse_1506" data-name="Ellipse 1506" transform="translate(3 3.543)" fill="none" stroke="#fff" stroke-width="1">
          <circle cx="31" cy="31" r="31" stroke="none"/>
          <circle cx="31" cy="31" r="30.5" fill="none"/>
        </g>
        <g id="Group_17369" data-name="Group 17369" transform="translate(18.964 13.513)">
          <path id="Path_11642" data-name="Path 11642" d="M44.948,57.375a1.827,1.827,0,1,1-1.827-1.827,1.827,1.827,0,0,1,1.827,1.827" transform="translate(-27.405 -36.864)" fill="#fff"/>
          <path id="Path_11643" data-name="Path 11643" d="M45.987,21.351a.841.841,0,0,1-.841-.841V.841a.841.841,0,0,1,1.682,0v19.67a.841.841,0,0,1-.841.841" transform="translate(-29.961)" fill="#fff"/>
          <path id="Path_11644" data-name="Path 11644" d="M16.026,60.161H.841a.841.841,0,1,1,0-1.682H16.026a.841.841,0,1,1,0,1.682" transform="translate(0 -38.809)" fill="#fff"/>
        </g>
      </g>
    </g>
    <g id="bell-alarm-notification-notify-svgrepo-com_1_" data-name="bell-alarm-notification-notify-svgrepo-com (1)" transform="translate(119.014 179.95)">
      <path id="Path_4952" data-name="Path 4952" d="M161.673,458.864a1.662,1.662,0,0,0,1.635-1.364h-3.27A1.662,1.662,0,0,0,161.673,458.864Z" transform="translate(-156.868 -442.647)" fill="#ad1e56"/>
      <path id="Path_4953" data-name="Path 4953" d="M10.256,12.114c-.578-.578-1.3-.856-1.3-3.664a4.156,4.156,0,0,0-3.472-4.1H5.381a.779.779,0,1,0-1.153,0H4.121a4.156,4.156,0,0,0-3.472,4.1c0,2.808-.718,3.086-1.3,3.664a1.248,1.248,0,0,0,.882,2.128H9.374A1.248,1.248,0,0,0,10.256,12.114Z" fill="#ad1e56"/>
    </g>
  </g>
</svg>
