<svg xmlns="http://www.w3.org/2000/svg" width="11" height="18" viewBox="0 0 11 18">
  <g id="Group_17156" data-name="Group 17156" transform="translate(-30 -218)">
    <g id="Path_34796" data-name="Path 34796" transform="translate(30 218)" fill="none">
      <path d="M2.1,0H8.9A2.052,2.052,0,0,1,11,2V16a2.052,2.052,0,0,1-2.1,2H2.1A2.052,2.052,0,0,1,0,16V2A2.052,2.052,0,0,1,2.1,0Z" stroke="none"/>
      <path d="M 2.100498199462891 1 C 1.493678092956543 1 0.9999990463256836 1.448600769042969 0.9999990463256836 2 L 0.9999990463256836 16 C 0.9999990463256836 16.55139923095703 1.493678092956543 17 2.100498199462891 17 L 8.899497985839844 17 C 9.506319046020508 17 9.999998092651367 16.55139923095703 9.999998092651367 16 L 9.999998092651367 2 C 9.999998092651367 1.448600769042969 9.506319046020508 1 8.899497985839844 1 L 2.100498199462891 1 M 2.100498199462891 0 L 8.899497985839844 0 C 10.05956840515137 0 10.99999809265137 0.8954296112060547 10.99999809265137 2 L 10.99999809265137 16 C 10.99999809265137 17.10457038879395 10.05956840515137 18 8.899497985839844 18 L 2.100498199462891 18 C 0.9404287338256836 18 -9.5367431640625e-07 17.10457038879395 -9.5367431640625e-07 16 L -9.5367431640625e-07 2 C -9.5367431640625e-07 0.8954296112060547 0.9404287338256836 0 2.100498199462891 0 Z" stroke="none" fill="#5d5d5d"/>
    </g>
    <line id="Line_584" data-name="Line 584" y2="6" transform="translate(32.487 223.538)" fill="none" stroke="#5d5d5d" stroke-linecap="round" stroke-width="1"/>
  </g>
</svg>
