<svg xmlns="http://www.w3.org/2000/svg" xmlns:xlink="http://www.w3.org/1999/xlink" width="39" height="94.897" viewBox="0 0 39 94.897">
  <defs>
    <linearGradient id="linear-gradient" x1="1" y1="0.463" x2="0" y2="0.465" gradientUnits="objectBoundingBox">
      <stop offset="0" stop-color="#e0dfdd"/>
      <stop offset="0.569" stop-color="#b6b7b1"/>
      <stop offset="1" stop-color="#9d9d9d"/>
    </linearGradient>
    <linearGradient id="linear-gradient-2" x1="0.5" x2="0.5" y2="1" gradientUnits="objectBoundingBox">
      <stop offset="0" stop-color="#c2bfba"/>
      <stop offset="1" stop-color="#b9bcb5"/>
    </linearGradient>
    <linearGradient id="linear-gradient-3" x1="-0.269" y1="0.798" x2="1.462" y2="0.798" gradientUnits="objectBoundingBox">
      <stop offset="0" stop-color="#9d9e9e"/>
      <stop offset="0.247" stop-color="#d2d2d2"/>
      <stop offset="1" stop-color="#aeaeaf"/>
      <stop offset="1" stop-color="gray"/>
    </linearGradient>
  </defs>
  <g id="Group_23813" data-name="Group 23813" transform="translate(4584.882 -6898.356)">
    <g id="Group_23808" data-name="Group 23808" transform="translate(-4584.882 6899)">
      <path id="Path_30161" data-name="Path 30161" d="M-3972.667,6984.044h3.118l.974-.324h5.066l.714.324h28.9l.032-94.044H-3962.5l-.877.39h-5.65l-.828-.39h-2.679Z" transform="translate(3972.862 -6890)" fill="#484848"/>
      <path id="Path_30159" data-name="Path 30159" d="M-3972.667,6993.46h3.118l.974-.325h5.066l.714.325h28.9l.032-93.46H-3962.5l-.877.39h-5.65l-.828-.39h-2.679Z" transform="translate(3972.667 -6899.806)" fill="url(#linear-gradient)"/>
      <path id="Path_30160" data-name="Path 30160" d="M-4178.667,6900l.844.455h5.78l.845-.455v93.4l-.909-.26h-5.261l-.909.26Z" transform="translate(4181.395 -6899.806)" stroke="#d9d9d9" stroke-width="1" fill="url(#linear-gradient-2)"/>
      <g id="Group_23806" data-name="Group 23806" transform="translate(2.793 8.768)">
        <path id="Path_30154" data-name="Path 30154" d="M-3955.333,6994.687V6940l1.694.78c.423.195,1.976,5.325,1.976,5.325v42.606l-1.486,4.859Z" transform="translate(3956.113 -6940)" fill="#434241"/>
        <path id="Path_30152" data-name="Path 30152" d="M-3955.333,6994.687V6940l1.559.78c.39.195,1.818,5.325,1.818,5.325v42.606l-1.368,4.859Z" transform="translate(3955.723 -6940)" fill="#201f1d"/>
        <path id="Path_30153" data-name="Path 30153" d="M-3955.333,6994.687V6940l1.559.78c.39.195,1.818,5.325,1.818,5.325v42.606l-1.368,4.859Z" transform="translate(3955.333 -6940)" fill="url(#linear-gradient-3)"/>
        <path id="Path_30155" data-name="Path 30155" d="M-3955.5,6980l.876.877v37.508l-.876.681Z" transform="translate(3955.662 -6972.207)" fill="#ebe9e4"/>
      </g>
      <g id="Group_23812" data-name="Group 23812" transform="translate(22.147 4.676)">
        <g id="Group_23807" data-name="Group 23807" transform="translate(0.39 1.169)">
          <path id="Path_4" data-name="Path 4" d="M51.745,753.666a.391.391,0,0,0-.184.134c-.091.1-.2.23-.3.23a.042.042,0,0,1-.047-.037.044.044,0,0,1,0-.009c0-.017.013-.033.039-.039.093-.027.238-.148.238-.23a.039.039,0,0,0-.034-.044h-.006c-.039,0-.152.019-.291.185a.075.075,0,0,1-.045.031c-.013,0-.028-.025-.028-.074V753.8c0-.065.036-.091.036-.113s-.006-.02-.023-.02c-.039,0-.116.094-.129.094s-.024-.043-.037-.059-.044-.031-.116-.031c-.036,0-.057,0-.089,0s-.045,0-.052-.018-.114-.3-.359-.3c-.055,0-.112.024-.112.1s.044.174.229.236c0,0,.009,0,.009.006a.334.334,0,0,1-.166.14.014.014,0,0,1-.015-.012.013.013,0,0,1,0,0,.309.309,0,0,0,.012-.07c0-.038-.012-.09-.083-.09s-.148.032-.347.224l-.022.021a.294.294,0,0,1-.044.034.08.08,0,0,1-.045.016s-.006,0,0-.016l.007-.01.041-.057c.039-.055.091-.124.1-.14s.034-.038.034-.046-.014-.018-.031-.018a.2.2,0,0,0-.121.055c-.016.016-.062.063-.118.118l-.047.044c-.091.084-.2.168-.254.168-.023,0-.045-.015-.045-.052a.509.509,0,0,1,.1-.193l.026-.034a.893.893,0,0,1,.1-.105.7.7,0,0,1,.417-.2.74.74,0,0,1,.1.01.008.008,0,0,0,.009,0l.081-.144s0,0,0,0a.137.137,0,0,0-.044-.006,1.2,1.2,0,0,0-.629.245,1.5,1.5,0,0,0-.183.154l-.024.025a.5.5,0,0,0-.165.305c0,.1.092.11.14.11a.5.5,0,0,0,.208-.059c.025,0-.015.059-.053.083-.314.191-.573.354-.573.506,0,.068.063.073.111.073s.283-.03.644-.589a.252.252,0,0,1,.071-.061.711.711,0,0,1,.13-.082c.017,0,.016.008.016.015a.312.312,0,0,0-.012.065.073.073,0,0,0,.078.064.368.368,0,0,0,.255-.148.621.621,0,0,1,.1-.1.076.076,0,0,1,.041-.014c.011,0,.016,0,.016.012a.014.014,0,0,1,0,0,.715.715,0,0,0-.021.12v0c0,.047.015.114.125.114a.237.237,0,0,0,.163-.08.632.632,0,0,0,.121-.182.42.42,0,0,0,.043-.147.013.013,0,0,1,.011-.015h0l.061.005a.043.043,0,0,1,.038.046.244.244,0,0,1-.031.088c-.034.067-.089.151-.128.211l-.035.053s-.01.012.005.012h.143a.024.024,0,0,0,.017-.012l.035-.053.09-.137a.021.021,0,0,1,.016-.01c.023,0-.005.057.078.057a.244.244,0,0,0,.053-.012c.006,0,.007.005.007.01a.44.44,0,0,0-.013.059v.013c0,.039.009.1.077.1.132,0,.3-.168.3-.169s.006,0,.006.007-.019.073-.212.307-.288.327-.288.378a.067.067,0,0,0,.063.07c.02,0,.1,0,.305-.331.143-.233.211-.377.287-.493a.975.975,0,0,1,.107-.139c.059-.059.075-.089.075-.1a.033.033,0,0,0-.029-.036Zm-.357.093s.01,0,.01.009c0,.035-.09.116-.119.116a.011.011,0,0,1-.012-.01h0a.242.242,0,0,1,.122-.114Zm-2.385.9a.028.028,0,0,1-.032-.024.033.033,0,0,1,0-.008c0-.067.234-.244.261-.244.007,0,.009,0,.009.008C49.243,754.44,49.072,754.654,49,754.654Zm1.037-.646a.149.149,0,0,1-.065.039c-.025,0-.033-.014-.034-.027a.081.081,0,0,1,.006-.036.306.306,0,0,1,.049-.077.527.527,0,0,1,.181-.15c.015,0,.021.006.022.012,0,.026-.036.045-.059.062s-.037.026-.034.043.015.011.016.028a.034.034,0,0,1-.005.018A.355.355,0,0,1,50.04,754.007Zm.292-.522a.049.049,0,0,1,.047-.051h.007c.148,0,.221.21.221.224s0,.01-.015.01C50.539,753.668,50.332,753.588,50.332,753.485Zm.1.551a.027.027,0,0,1-.03-.023.035.035,0,0,1,0,0,.172.172,0,0,1,.033-.082.388.388,0,0,1,.087-.1c.032-.02.049-.038.049-.049s-.023-.025-.025-.036.007-.02.029-.013.055.009.055.032a.462.462,0,0,1-.055.154C50.538,753.98,50.489,754.036,50.43,754.036Z" transform="translate(-48.821 -753.316)" fill="#201f1d"/>
          <path id="Path_5" data-name="Path 5" d="M90.042,755.937a.154.154,0,0,0-.1.1c0,.025.037.041.05.041a.113.113,0,0,0,.083-.1A.041.041,0,0,0,90.042,755.937Z" transform="translate(-87.035 -755.752)" fill="#201f1d"/>
        </g>
        <path id="Ellipse_1513" data-name="Ellipse 1513" d="M2,.195A1.8,1.8,0,1,0,3.8,2,1.8,1.8,0,0,0,2,.195M2,0A2,2,0,1,1,0,2,2,2,0,0,1,2,0Z" transform="translate(0 0)" fill="#201f1d"/>
      </g>
      <line id="Line_678" data-name="Line 678" y2="29.032" transform="translate(38.222 0.292)" fill="none" stroke="#f4f5f6" stroke-width="1.5"/>
      <line id="Line_679" data-name="Line 679" y2="63.032" transform="translate(38.222 30.59)" fill="none" stroke="#f4f5f6" stroke-width="1.5"/>
      <g id="Path_30162" data-name="Path 30162" transform="translate(0.044 29.81)">
        <path d="M 38.70668029785156 1.403122663497925 L 0.2500001490116119 1.403122663497925 L 0.2500001490116119 0.2500027120113373 L 38.70668029785156 0.2500027120113373 L 38.70668029785156 1.403122663497925 Z" stroke="none"/>
        <path d="M 0.5 0.5000027418136597 L 0.5 1.153122663497925 L 38.45668029785156 1.153122663497925 L 38.45668029785156 0.5000027418136597 L 0.5 0.5000027418136597 M 0 2.741813659667969e-06 L 38.95668029785156 2.741813659667969e-06 L 38.95668029785156 1.653122663497925 L 0 1.653122663497925 L 0 2.741813659667969e-06 Z" stroke="none" fill="#707070"/>
      </g>
    </g>
  </g>
</svg>
