<svg xmlns="http://www.w3.org/2000/svg" width="19" height="19" viewBox="0 0 19 19">
  <g id="Icon_feather-settings" data-name="Icon feather-settings" transform="translate(-1 -1)">
    <path id="Path_1904" data-name="Path 1904" d="M16.555,12.955a1.35,1.35,0,0,0,.27,1.489l.049.049a1.637,1.637,0,1,1-2.315,2.315l-.049-.049a1.361,1.361,0,0,0-2.307.965v.139a1.636,1.636,0,1,1-3.273,0V17.79a1.35,1.35,0,0,0-.884-1.235,1.35,1.35,0,0,0-1.489.27l-.049.049a1.637,1.637,0,1,1-2.315-2.315l.049-.049A1.361,1.361,0,0,0,3.275,12.2H3.136a1.636,1.636,0,1,1,0-3.273H3.21a1.35,1.35,0,0,0,1.235-.884,1.35,1.35,0,0,0-.27-1.489l-.049-.049A1.637,1.637,0,1,1,6.442,4.192l.049.049a1.35,1.35,0,0,0,1.489.27h.065a1.35,1.35,0,0,0,.818-1.235V3.136a1.636,1.636,0,1,1,3.273,0V3.21a1.361,1.361,0,0,0,2.307.965l.049-.049a1.637,1.637,0,1,1,2.315,2.315l-.049.049a1.35,1.35,0,0,0-.27,1.489v.065a1.35,1.35,0,0,0,1.235.818h.139a1.636,1.636,0,1,1,0,3.273H17.79a1.35,1.35,0,0,0-1.235.818Z" transform="translate(0 0)" fill="none" stroke="#5d5d5d" stroke-linecap="round" stroke-linejoin="round" stroke-width="1"/>
    <path id="Path_1903" data-name="Path 1903" d="M17.912,15.706A2.206,2.206,0,1,1,15.706,13.5,2.206,2.206,0,0,1,17.912,15.706Z" transform="translate(-5.206 -5.206)" fill="none" stroke="#5d5d5d" stroke-linecap="round" stroke-linejoin="round" stroke-width="1"/>
  </g>
</svg>
